<?xml version="1.0" encoding="UTF-8" standalone="no"?>
<!-- Created with Inkscape (http://www.inkscape.org/) -->
<svg
   xmlns:svg="http://www.w3.org/2000/svg"
   xmlns="http://www.w3.org/2000/svg"
   version="1.0"
   width="218.63901"
   height="199.95799"
   viewBox="0 0 218.639 199.958"
   id="svg2276"
   xml:space="preserve"><defs
   id="defs2284" />
	
		<g
   id="Layer_1">
			<path
   d="M 119.67,141.016 C 119.985,141.064 120.301,141.111 120.616,141.159 C 120.663,140.898 120.71,140.638 120.758,140.378 C 120.64,140.087 120.522,139.795 120.404,139.503 C 120.068,138.443 119.855,137.308 119.245,136.523 C 119.087,136.32 118.807,136.086 118.558,135.979 C 118.413,135.916 118.177,135.932 118.085,135.814 C 117.714,135.078 117.894,133.839 117.28,133.354 C 116.467,132.708 114.777,132.542 114.253,131.627 C 113.588,130.465 115.596,129.824 114.466,128.694 C 114.025,128.701 113.362,128.886 113.048,128.717 C 112.921,128.245 113.163,127.821 113.331,127.487 C 113.001,127.056 111.888,126.117 110.989,126.304 C 110.512,126.404 110.196,126.686 109.475,126.517 C 108.325,126.247 107.582,125.566 106.376,125.359 C 105.535,125.213 105.176,125.805 104.413,125.571 C 103.15,125.184 102.449,123.761 101.244,123.443 C 99.754,123.529 98.264,123.616 96.773,123.703 C 96.11,123.809 95.261,123.669 94.597,123.561 C 93.54,123.39 91.68,123.611 90.835,123.797 C 89.343,124.126 87.988,124.56 86.838,125.239 C 86.42,125.508 86.002,125.775 85.584,126.044 C 85.418,126.178 85.253,126.312 85.087,126.446 C 82.675,127.289 80.262,128.133 77.849,128.976 C 76.107,129.032 74.364,129.086 72.622,129.142 C 70.367,130.435 68.112,131.728 65.857,133.021 C 65.587,133.107 64.893,132.9 64.485,133.021 C 62.889,133.495 63.323,135.526 62.9,137.184 C 62.814,137.42 62.727,137.657 62.64,137.893 C 62.459,138.027 62.277,138.162 62.096,138.295 C 61.571,138.716 61.218,139.354 60.653,139.737 C 60.43,139.889 60.058,140.126 59.636,140.045 C 58.993,139.922 58.625,139.448 58.122,139.17 C 57.373,139.446 56.624,139.722 55.875,139.998 C 55.687,140.071 55.26,140.328 55.095,140.234 C 54.464,139.971 53.966,139.587 53.156,139.429 C 51.692,139.147 50.261,139.715 49.158,140.044 C 48.539,140.229 47.902,140.311 47.219,140.423 C 46.904,140.423 46.588,140.423 46.273,140.423 C 45.995,140.511 45.697,140.737 45.351,140.824 C 44.226,141.107 42.911,140.962 42.087,141.511 C 41.364,141.992 40.931,143.231 40.526,144.018 C 40.392,144.271 40.258,144.523 40.124,144.775 C 38.688,144.765 37.508,145.129 36.884,145.934 C 36.781,146.116 36.679,146.296 36.576,146.478 C 36.388,146.656 36.152,146.649 36.008,146.88 C 35.749,147.297 35.795,148.051 35.393,148.322 C 35.134,148.497 34.663,148.315 34.376,148.44 C 33.898,148.649 33.144,149.961 32.531,148.914 C 32.515,148.922 32.499,148.93 32.484,148.937 C 32.161,150.184 31.112,148.904 30.402,149.055 C 30.126,149.114 30.03,149.344 29.858,149.504 C 27.816,149.118 25.774,148.732 23.732,148.345 C 23.55,148.085 23.369,147.825 23.188,147.565 C 22.748,147.012 22.111,146.558 21.485,146.193 C 21.022,145.923 20.453,145.8 19.829,145.697 C 19.561,145.652 19.245,145.748 19.072,145.674 C 18.891,145.374 18.709,145.074 18.528,144.775 C 18.29,144.233 18.221,143.695 18.102,143.002 C 18.065,142.789 17.944,142.043 18.102,141.866 C 18.634,141.66 19.408,141.846 19.899,141.606 C 20.364,140.826 20.83,140.044 21.295,139.264 C 21.401,138.843 20.683,137.201 20.586,136.638 C 20.505,136.174 20.81,135.879 20.775,135.575 C 20.333,133.549 19.892,131.522 19.45,129.496 C 17.984,126.91 16.517,124.324 15.051,121.738 C 14.689,119.578 14.326,117.417 13.963,115.257 C 12.253,114.808 12.159,113.227 11.361,111.875 C 11.023,111.301 10.569,111.133 10.06,110.739 C 9.574,110.364 9.138,109.772 8.877,109.178 C 8.099,107.403 8.099,105.002 7.032,103.548 C 6.723,103.127 6.269,102.902 5.92,102.531 C 4.37,100.881 2.52,99.442 1.119,97.658 C 0.764,97.177 0.41,96.696 0.055,96.215 C -0.129,95.689 0.133,95.143 0.646,95.245 C 1.42,95.971 1.926,97.299 2.704,98.107 C 3.244,98.668 3.65,98.793 4.384,99.171 C 4.818,99.572 5.251,99.975 5.685,100.377 C 5.716,100.354 5.748,100.33 5.779,100.306 C 5.895,100.061 6.083,99.907 6.134,99.573 C 6.225,98.984 5.744,98.618 5.826,98.107 C 5.891,98.022 5.916,97.999 6.063,97.988 C 6.347,98.202 6.784,99.101 7.174,98.982 C 7.42,98.953 7.555,98.792 7.718,98.674 C 7.6,97.555 7.481,96.435 7.363,95.316 C 6.007,93.51 4.651,91.705 3.295,89.899 C 2.753,89.204 2.129,88.774 1.829,87.794 C 1.128,85.507 3.159,83.292 3.343,81.313 C 3.264,80.982 3.185,80.65 3.107,80.319 C 2.941,79.468 2.775,78.616 2.61,77.765 C 2.487,77.354 2.182,76.886 2.113,76.512 C 2.539,75.093 2.965,73.673 3.39,72.254 C 3.556,72.254 3.721,72.254 3.887,72.254 C 3.716,73.565 4.452,75.047 5.59,75.14 C 5.781,74.661 6.153,74.218 6.37,73.721 C 6.936,72.429 7.303,70.948 8.333,70.126 C 8.924,69.654 9.678,69.464 10.367,69.062 C 10.964,68.713 11.502,68.282 11.975,67.808 C 13.425,66.357 14.423,64.401 16.445,63.527 C 17.946,62.879 20.212,63.124 21.909,62.605 C 22.662,62.374 23.39,61.987 23.919,61.517 C 24.329,61.153 24.703,60.762 25.244,60.524 C 26.509,59.966 28.197,59.853 29.218,59.057 C 29.51,58.829 29.782,58.46 29.975,58.135 C 30.078,57.93 30.18,57.725 30.283,57.52 C 31.069,57.155 32.7,57.323 33.097,57.851 C 34.973,56.992 36.85,56.132 38.726,55.273 C 40.036,54.695 41.233,54.22 42.014,53.121 C 42.852,51.941 43.19,50.293 43.764,48.84 C 43.959,48.346 44.104,47.755 44.426,47.374 C 44.533,47.247 45.234,47.078 45.419,46.948 C 46.059,46.502 46.473,45.825 46.933,45.198 C 47.1,44.969 47.613,44.622 47.43,44.228 C 47.288,43.893 46.773,43.817 46.389,43.731 C 46.272,43.377 46.113,43.04 46.034,42.619 C 45.81,41.422 46.292,40.278 46.555,39.403 C 46.641,39.008 46.728,38.614 46.815,38.22 C 47.667,37.527 48.518,36.833 49.37,36.139 C 49.176,35.503 49.537,34.988 50.103,34.956 C 50.413,35.353 50.905,35.592 51.191,36.02 C 51.403,36.338 51.392,36.746 51.569,37.131 C 52.514,37.539 52.675,38.956 53.367,39.638 C 53.565,39.833 54.038,40.259 54.289,40.087 C 54.512,39.517 54.527,38.846 54.525,38.029 C 55.16,38.358 55.592,38.425 55.826,37.651 C 55.873,37.494 56.069,37.224 55.945,36.965 C 55.695,36.448 54.496,36.632 54.1,35.617 C 53.674,34.524 55.457,33.871 53.816,33.134 C 53.824,33.094 53.832,33.055 53.839,33.016 C 54.421,32.392 55.386,32.639 56.441,32.614 C 56.607,32.787 56.772,32.961 56.938,33.135 C 57.348,33.675 57.84,34.619 58.712,34.057 C 58.626,33.568 58.539,33.079 58.452,32.591 C 59.67,32.37 59.526,30.905 59.99,29.942 C 59.919,29.832 59.848,29.721 59.777,29.611 C 59.497,29.75 58.76,30.268 58.523,30.132 C 58.41,29.853 58.226,29.632 58.169,29.28 C 58.001,28.255 59.892,27.27 60.487,26.844 C 60.795,26.867 61.102,26.891 61.409,26.915 C 61.409,26.907 61.409,26.899 61.409,26.892 C 61.344,26.721 61.302,26.487 61.338,26.277 C 61.426,25.77 61.571,25.382 62.047,25.284 C 62.587,25.173 63.68,26.379 63.963,25.237 C 63.514,24.733 63.064,24.228 62.615,23.723 C 63.152,22.341 63.672,22.78 64.767,22.138 C 65.054,21.97 65.255,21.691 65.524,21.523 C 65.576,21.871 66.093,22.616 66.494,22.493 C 66.668,22.471 66.724,22.394 66.802,22.28 C 66.748,21.272 67.242,20.94 67.393,20.151 C 67.498,19.599 67.012,19.264 67.085,18.945 C 67.15,18.779 67.251,18.726 67.416,18.661 C 67.884,18.736 68.31,19.194 68.882,18.969 C 69.048,18.859 69.214,18.748 69.379,18.638 C 69.639,18.946 69.899,19.253 70.159,19.56 C 70.175,19.552 70.191,19.544 70.206,19.537 C 70.478,18.834 71.26,17.447 71.933,17.172 C 72.489,16.944 73.318,17.418 73.778,17.597 C 75.523,18.279 76.402,19.65 77.728,20.72 C 78.207,21.106 78.674,21.512 79.218,21.831 C 79.492,21.992 79.949,22.073 80.046,22.399 C 80.205,22.934 79.416,23.19 79.289,23.534 C 79.305,23.755 79.321,23.975 79.336,24.196 C 79.296,24.929 79.257,25.663 79.218,26.396 C 80.823,26.357 79.674,23.958 81.134,24.338 C 81.173,23.928 81.213,23.518 81.252,23.108 C 82.77,22.812 83.385,23.212 84.54,23.699 C 84.808,23.786 85.076,23.873 85.344,23.959 C 85.502,24.188 85.659,24.417 85.817,24.645 C 85.817,24.629 85.817,24.613 85.817,24.598 C 86.19,24.288 86.804,23.377 87.472,23.841 C 87.566,24.17 87.64,24.591 87.874,24.787 C 89.167,24.168 88.682,23.705 88.938,22.185 C 89.017,21.901 89.095,21.617 89.174,21.333 C 88.605,20.605 87.946,20.651 86.974,20.363 C 87.203,18.808 88.401,17.734 89.079,16.555 C 89.366,16.056 89.144,15.602 89.624,15.231 C 90.338,14.676 91.675,14.693 92.226,13.977 C 92.21,13.954 92.195,13.93 92.178,13.906 C 91.56,13.646 91.282,12.709 91.634,11.967 C 91.907,11.391 92.405,10.704 92.911,10.359 C 93.515,9.945 94.178,9.766 94.022,8.727 C 94.085,8.68 94.149,8.633 94.211,8.585 C 94.637,8.349 95.135,8.948 95.583,8.987 C 95.835,8.357 96.088,7.726 96.34,7.095 C 97.869,7.713 100.048,7.178 101.662,6.929 C 102.475,6.804 103.361,6.998 103.908,7.213 C 104.105,7.3 104.303,7.386 104.5,7.473 C 104.766,6.868 105.844,6.749 106.273,6.267 C 106.282,5.698 105.941,5.511 105.777,5.108 C 105.328,4.005 105.542,2.866 104.097,2.719 C 103.378,3.189 102.03,3.255 101.566,2.482 C 101.23,1.921 101.246,1.114 102.063,1.063 C 102.084,1.516 102.268,1.814 102.584,1.985 C 103.221,1.885 103.505,1.357 104.027,1.133 C 105.11,0.669 105.478,1.995 105.754,2.671 C 105.77,2.655 105.785,2.639 105.801,2.624 C 106.097,2.48 106.293,2.205 106.676,2.127 C 107.272,2.006 107.653,2.441 107.906,2.694 C 108.556,3.343 109.089,4.271 110.01,4.633 C 111.366,5.166 111.887,3.837 112.778,4.018 C 113.31,4.126 113.401,5 113.842,5.271 C 114.517,5.686 115.706,5.58 116.491,5.886 C 118.302,4.224 119.624,7.858 121.079,7.566 C 122.311,7.318 123.004,5.986 124.532,5.839 C 124.532,5.862 124.532,5.886 124.532,5.91 C 124.375,6.367 124.218,6.825 124.059,7.282 C 124.659,7.085 125.257,6.888 125.856,6.691 C 125.952,7.454 125.82,8.763 126.755,8.559 C 127.027,8.5 127.278,8.372 127.417,8.181 C 127.964,7.423 126.504,5.804 127.961,5.579 C 128.835,5.444 128.772,6.898 129.215,7.258 C 129.223,7.258 129.231,7.258 129.238,7.258 C 129.342,7.055 129.571,6.958 129.805,6.88 C 130.857,6.531 131.256,7.667 131.626,8.205 C 131.175,9.138 130.35,9.644 129.758,10.428 C 129.579,10.665 129.224,10.997 129.332,11.492 C 129.401,11.806 129.63,11.991 129.829,12.178 C 129.821,12.194 129.812,12.209 129.805,12.225 C 129.411,12.548 129.017,12.871 128.622,13.195 C 127.992,11.153 126.403,13.902 125.548,13.999 C 125.665,14.979 124.52,15.915 125.808,16.412 C 125.636,16.996 125.535,17.547 125.312,18.067 C 124.626,19.668 123.374,21.376 122.237,22.561 C 122.3,22.916 122.363,23.27 122.425,23.625 C 123.206,24.114 123.988,24.603 124.767,25.091 C 125.445,25.525 126.123,25.958 126.801,26.392 C 126.841,26.542 126.88,26.692 126.92,26.842 C 127.064,27.179 127.349,27.511 127.629,27.717 C 128.478,28.341 129.548,28.63 130.066,29.586 C 131.574,28.762 132.764,31.013 133.921,31.431 C 134.134,31.463 134.347,31.494 134.56,31.526 C 135.153,31.651 135.682,31.996 136.002,32.401 C 136.355,32.847 136.927,34.042 137.398,34.27 C 138.099,34.396 138.801,34.522 139.503,34.648 C 140.944,35 142.709,35.492 143.642,36.351 C 143.941,36.626 144.132,38.537 144.447,39.047 C 144.982,39.918 145.373,39.201 146.126,39.355 C 146.907,39.514 147.781,40.849 148.563,40.703 C 149.945,40.444 151.751,40.377 152.75,39.709 C 153.709,39.067 153.999,37.931 154.477,36.8 C 155.257,34.924 156.039,33.047 156.819,31.171 C 157.013,30.663 156.931,30.008 157.032,29.421 C 157.289,27.911 157.63,26.599 158.877,26.109 C 158.625,25.021 158.372,23.933 158.12,22.845 C 158.159,21.749 158.199,20.653 158.238,19.557 C 158.364,18.782 158.108,17.286 158.38,16.695 C 159.038,16.456 159.693,15.553 159.516,14.495 C 159.429,13.977 159.158,13.602 159.35,13.052 C 159.745,11.926 160.864,11.617 161.55,10.805 C 161.005,9.817 159.803,11.045 159.256,10.048 C 159.51,9.704 159.848,9.431 160.083,9.055 C 160.422,8.432 160.762,7.809 161.101,7.186 C 161.361,6.821 161.849,6.652 162.023,6.216 C 162.852,4.144 162.833,1.761 164.436,0.492 C 164.658,0.327 164.847,0.1 165.13,0 C 165.327,0.449 165.525,0.899 165.722,1.348 C 166.021,1.648 166.321,1.947 166.62,2.247 C 166.845,2.72 166.817,3.328 166.928,3.903 C 167.218,5.415 167.509,6.918 168.773,7.427 C 168.529,8.003 168.284,8.578 168.04,9.154 C 169.685,10.035 170.427,11.446 170.784,13.648 C 171.048,15.276 170.453,16.953 170.713,18.591 C 170.784,19.08 170.855,19.569 170.926,20.057 C 171.029,20.325 171.131,20.593 171.234,20.861 C 171.47,21.717 171.858,22.779 172.889,22.777 C 173.435,21.787 174.213,22.034 175.279,21.618 C 175.584,21.499 175.797,21.3 176.036,21.121 C 176.76,21.374 176.346,22.541 176.675,23.179 C 178.194,23.676 178.436,25.647 180.01,26.136 C 179.372,27.116 180.536,27.411 180.223,28.194 C 180.095,28.512 179.72,28.588 179.442,28.761 C 179.989,29.571 180.68,30.821 180.436,32.356 C 180.311,33.14 179.96,34.637 180.152,35.266 C 180.651,36.9 182.206,37.664 183.014,39.027 C 183.234,39.397 183.231,40.137 183.322,40.588 C 183.448,41.455 183.574,42.322 183.7,43.19 C 183.503,43.537 183.305,43.884 183.108,44.231 C 182.585,45.429 182.836,46.858 183.984,47.235 C 183.963,50.404 183.49,51.29 186.018,52.368 C 186.714,52.665 186.806,53.176 187.72,52.746 C 188.056,53.839 189.048,53.637 190.133,53.479 C 190.655,54.133 190.512,54.804 189.872,55.276 C 189.92,55.323 189.967,55.371 190.015,55.418 C 190.156,55.722 190.808,56.197 191.316,56.104 C 191.495,56.071 191.621,55.971 191.742,56.01 C 191.875,56.278 192.201,56.49 192.428,56.672 C 193.25,57.331 194.042,57.958 195.124,58.375 C 195.472,58.454 195.818,58.533 196.165,58.611 C 196.462,59.327 197.706,59.591 197.301,60.622 C 197.054,60.733 196.748,60.846 196.591,61.047 C 196.087,61.696 196.469,62.903 196.899,63.389 C 197.048,63.484 197.199,63.578 197.348,63.673 C 197.718,63.944 198.124,64.317 198.366,64.714 C 198.69,65.249 198.344,65.822 198.413,65.967 C 199.314,66.397 199.639,67.653 199.832,68.805 C 199.855,69.254 199.88,69.704 199.903,70.153 C 200.049,71.114 199.764,72.196 200.163,72.897 C 200.439,73.383 201.354,73.992 202.126,73.938 C 201.838,73.23 202.029,72.416 202.458,72.022 C 202.466,72.022 202.474,72.022 202.481,72.022 C 203.254,72.715 203.707,73.737 204.492,74.363 C 204.688,74.521 204.984,74.863 205.272,74.836 C 205.501,74.497 205.729,74.158 205.958,73.819 C 206.004,73.852 205.973,73.821 206.006,73.866 C 206.235,74.189 206.463,74.512 206.692,74.836 C 206.566,75.214 206.44,75.593 206.313,75.971 C 206.074,76.902 205.827,79.779 206.408,80.489 C 206.895,81.083 207.815,80.165 208.277,81.009 C 206.668,83.327 210.341,84.442 211.351,85.739 C 211.666,86.144 211.533,86.281 211.683,86.827 C 211.838,87.393 212.314,87.963 212.723,88.293 C 213.464,88.891 214.874,89.909 214.331,91.297 C 215.938,91.817 215.622,93.169 215.916,94.94 C 215.924,95.326 215.932,95.712 215.939,96.099 C 216.055,96.561 216.406,96.725 216.649,97.045 C 216.467,97.526 216.286,98.007 216.105,98.488 C 215.899,99.142 215.784,99.843 215.655,100.57 C 215.49,101.501 215.77,102.548 215.726,103.338 C 215.451,103.637 215.174,103.937 214.898,104.236 C 215.215,104.836 215.631,105.389 215.916,106.057 C 216.37,107.125 216.56,108.331 216.909,109.51 C 217.051,109.944 217.193,110.377 217.335,110.811 C 217.201,111.3 217.067,111.789 216.933,112.278 C 216.684,113.154 216.493,113.984 216.153,114.761 C 215.845,115.328 215.538,115.896 215.23,116.464 C 214.577,117.98 214.38,119.861 213.764,121.431 C 213.543,121.911 213.323,122.393 213.102,122.873 C 212.928,123.126 212.754,123.378 212.581,123.63 C 212.194,125.389 211.809,127.147 211.422,128.904 C 210.401,129.083 210.699,130.209 210.263,130.963 C 210.135,131.185 209.938,131.281 209.742,131.436 C 209.446,131.67 209.204,132.074 209.01,132.406 C 208.139,133.891 208.124,136.734 205.532,136.38 C 204.775,137.081 204.018,137.783 203.261,138.485 C 202.111,140.33 200.959,142.174 199.808,144.019 C 199.155,145.035 197.479,145.757 198.531,147.378 C 198.523,147.394 198.515,147.409 198.508,147.425 C 198.21,147.567 197.888,147.981 197.798,148.323 C 197.741,148.54 197.804,148.725 197.728,148.867 C 197.193,149.133 196.493,150.047 196.12,150.523 C 195.264,151.613 194.421,152.766 193.873,154.166 C 193.345,156.003 192.816,157.84 192.288,159.677 C 192.193,160.008 192.099,160.339 192.004,160.67 C 192.036,160.954 192.067,161.238 192.099,161.522 C 192.261,162.415 192.218,163.579 191.673,163.982 C 191.337,164.231 191.051,164.078 190.633,164.242 C 190.128,164.597 189.623,164.952 189.118,165.306 C 186.28,165.409 183.441,165.511 180.603,165.614 C 178.657,166.089 178.272,168.257 176.582,168.997 C 175.721,169.374 174.776,169.651 173.791,169.895 C 173.502,169.966 172.808,169.94 172.655,170.155 C 172.202,170.988 173.911,170.76 173.956,171.48 C 173.833,171.79 173.428,172.351 172.939,172.024 C 172.71,171.709 172.482,171.393 172.252,171.078 C 172.09,170.959 171.926,171.034 171.708,170.936 C 170.794,170.053 169.879,169.169 168.965,168.287 C 169.154,167.979 169.343,167.672 169.532,167.364 C 169.469,166.945 169.026,166.643 168.515,166.82 C 167.916,167.029 166.777,168.083 166.197,167.199 C 167.259,166.875 168.256,165.724 167.38,164.621 C 167.245,164.451 167.063,164.165 166.836,164.1 C 166.253,163.934 165.642,165.004 165.109,165.164 C 165.186,166.247 164.356,165.985 163.666,166.347 C 163.47,166.513 163.272,166.678 163.075,166.844 C 162.28,167.632 161.632,169.045 160.45,169.398 C 159.799,169.592 159.449,169.165 159.03,169.02 C 157.441,168.471 156.621,167.296 155.294,166.513 C 154.898,166.28 154.23,166.049 153.614,166.205 C 153.425,166.268 153.235,166.331 153.047,166.393 C 152.363,164.726 151.204,166.876 150.113,166.205 C 149.719,165.962 149.119,164.832 148.836,164.407 C 148.758,164.281 148.679,164.155 148.6,164.028 C 148.348,163.965 148.096,163.902 147.843,163.84 C 147.048,163.657 146.134,163.617 145.526,163.248 C 144.52,162.639 144.83,161.933 144.272,161.025 C 143.459,159.701 141.538,159.183 141.528,157.098 C 143.02,156.043 142.66,154.051 142.002,152.439 C 141.868,152.084 141.733,151.729 141.6,151.375 C 141.435,151.24 141.269,151.106 141.103,150.973 C 140.743,150.613 140.407,150.187 140.11,149.767 C 139.63,149.086 139.178,148.28 138.36,147.946 C 137.728,147.687 137.359,148.064 136.893,148.182 C 136.458,148.292 135.968,148.146 135.664,148.04 C 135.497,147.982 135.312,147.975 135.215,147.851 C 134.905,147.273 136.245,146.732 136.398,146.266 C 136.547,145.281 136.697,144.295 136.847,143.31 C 136.39,142.671 135.932,142.033 135.475,141.394 C 135.16,140.946 134.866,140.099 134.221,139.998 C 133.741,141.299 133.259,142.6 132.779,143.9 C 132.61,144.329 132.52,145.01 132.14,145.224 C 131.75,145.444 131.274,145.069 130.839,145.059 C 130.33,145.739 129.516,145.782 128.356,145.768 C 128.356,145.76 128.356,145.752 128.356,145.745 C 128.521,145.114 128.687,144.483 128.852,143.853 C 129.246,143.957 129.812,143.834 130.106,143.735 C 131.108,143.392 131.636,142.344 131.407,140.825 C 131.384,140.376 131.36,139.927 131.336,139.477 C 131.436,138.756 131.514,138.296 131.738,137.727 C 132.154,136.671 133.493,136.391 133.89,135.362 C 134.165,134.65 133.473,134.221 133.204,133.872 C 133.579,133.747 134.687,132.975 134.505,132.358 C 134.418,132.239 134.331,132.121 134.245,132.003 C 134.087,131.546 133.93,131.089 133.771,130.632 C 133.645,130.403 133.519,130.174 133.393,129.945 C 133.385,129.945 133.376,129.945 133.369,129.945 C 133.541,131.446 132.285,132.19 131.619,133.044 C 131.283,133.475 130.938,133.919 130.721,134.463 C 130.48,135.066 130.568,135.55 130.106,135.906 C 129.582,136.309 128.728,136.337 128.072,136.615 C 127.063,137.043 126.205,138.085 125.589,138.933 C 124.993,139.752 124.49,140.634 123.957,141.535 C 123.854,141.709 123.399,142.241 123.483,142.387 C 123.616,142.706 124.017,143.113 123.909,143.616 C 123.761,144.31 122.716,144.286 122.182,143.971 C 121.184,143.381 120.346,142.293 119.675,141.369 C 119.67,141.252 119.67,141.134 119.67,141.016 z M 92.683,1.348 C 93.382,1.808 94.865,2.604 95.781,1.679 C 96.982,2.313 98.212,0.763 99.164,2.034 C 98.721,3.339 97.865,3.944 96.846,4.659 C 96.626,4.813 96.404,5.09 96.09,5.132 C 95.159,4.903 94.229,4.674 93.299,4.446 C 92.967,3.72 92.637,2.995 92.305,2.27 C 92.431,1.963 92.556,1.656 92.683,1.348 z M 91.358,2.176 C 91.633,2.216 91.909,2.255 92.185,2.295 C 92.516,3.004 92.848,3.714 93.178,4.423 C 93.139,4.486 93.1,4.549 93.06,4.612 C 92.871,4.7 92.704,4.849 92.47,4.896 C 92.081,4.975 90.956,4.662 90.672,4.541 C 90.688,4.541 90.704,4.541 90.72,4.541 C 91.511,3.838 90.616,3.036 91.074,2.27 C 91.169,2.239 91.263,2.208 91.358,2.176 z M 129.415,16.77 C 129.73,16.81 130.046,16.849 130.361,16.888 C 129.856,17.872 130.72,19.797 129.272,19.892 C 128.871,19.616 128.468,19.34 128.066,19.064 C 128.137,18.843 128.208,18.623 128.279,18.402 C 128.543,17.349 128.437,17.146 129.415,16.77 z M 145.546,33.019 C 145.829,33.098 146.113,33.177 146.398,33.255 C 146.398,33.263 146.398,33.271 146.398,33.279 C 146.398,33.287 146.398,33.295 146.398,33.302 C 145.709,33.515 145.024,33.919 144.269,34.13 C 144.694,33.76 145.12,33.389 145.546,33.019 z M 217.923,89.833 C 219.935,91.311 217.112,92.966 216.669,94.161 C 216.661,94.161 216.653,94.161 216.646,94.161 C 216.486,92.988 216.641,91.808 217.119,91.134 C 217.291,90.891 217.707,90.673 217.829,90.425 C 217.859,90.227 217.891,90.029 217.923,89.833 z M 3.418,95.083 C 4.579,95.73 5.595,95.915 4.979,97.638 C 4.956,97.63 4.932,97.622 4.908,97.614 C 4.1,96.962 4.085,96.661 3.56,95.769 C 3.478,95.631 3.274,95.458 3.3,95.296 C 3.339,95.225 3.378,95.154 3.418,95.083 z M 131.496,148.065 C 131.543,148.073 131.591,148.081 131.638,148.088 C 131.743,149.282 133.322,148.456 133.885,149.129 C 133.7,150.003 132.842,150.084 132.064,150.358 C 131.755,150.467 131.438,150.727 131.166,150.807 C 130.653,150.65 130.141,150.492 129.629,150.334 C 129.384,150.311 129.174,150.558 128.824,150.5 C 128.32,150.365 127.815,150.231 127.31,150.098 C 127.081,150.106 126.853,150.114 126.624,150.121 C 126.423,149.821 126.345,149.486 126.458,149.033 C 128.138,148.711 129.817,148.388 131.496,148.065 z M 162.008,175.194 C 162.221,175.399 162.434,175.604 162.647,175.809 C 162.611,176.586 162.162,177.495 161.63,177.796 C 161.216,176.582 161.627,176.122 162.008,175.194 z M 180.67,177.015 C 180.899,177.194 182.42,178.887 182.468,179.097 C 182.188,179.44 182.072,179.974 181.497,180.019 C 181.357,179.961 181.181,179.892 181.119,179.759 C 180.97,178.844 180.819,177.93 180.67,177.015 z M 178.47,197.688 C 178.234,197.688 177.997,197.688 177.761,197.688 C 177.761,197.239 177.761,196.789 177.761,196.339 C 175.413,196.316 174.624,198.556 173.669,199.958 C 172.19,199.255 170.374,200.354 169.364,198.94 C 169.364,198.924 169.364,198.909 169.364,198.893 C 169.593,198.649 169.821,198.404 170.05,198.16 C 169.808,196.56 167.862,197.705 167.874,195.913 C 167.058,195.437 166.838,194.318 166.597,193.265 C 166.534,192.902 166.471,192.539 166.408,192.176 C 166.559,191.685 166.723,191.044 166.574,190.403 C 166.15,188.594 164.864,187.548 164.492,185.744 C 164.555,184.947 164.618,184.151 164.681,183.354 C 164.782,182.806 164.622,182.062 164.846,181.604 C 165.95,181.434 166.352,182.834 167.33,181.958 C 167.866,182.306 168.402,182.652 168.938,182.999 C 170.366,183.893 171.823,184.664 173.502,185.341 C 173.963,184.542 174.908,184.23 176.175,184.23 C 176.655,184.23 177.137,184.23 177.617,184.23 C 177.846,184.19 178.075,184.151 178.304,184.111 C 178.448,184.025 178.541,183.862 178.73,183.803 C 179.069,183.812 179.408,183.82 179.747,183.827 C 180.125,183.749 180.219,183.466 180.457,183.259 C 181.147,183.627 181.583,184.38 181.379,185.554 C 181.314,185.932 181.203,186.473 181.284,186.95 C 181.35,187.335 181.609,187.557 181.686,187.848 C 181.663,188.171 181.639,188.494 181.616,188.818 C 181.257,190.742 180.628,191.219 179.557,192.366 C 179.808,193.308 178.803,193.769 178.54,194.471 C 178.518,195.543 178.494,196.616 178.47,197.688 z "
   id="path2281" />
		</g>
	</svg>