<?xml version="1.0" encoding="UTF-8" standalone="no"?>
<!-- Created with Inkscape (http://www.inkscape.org/) -->
<svg
   xmlns:svg="http://www.w3.org/2000/svg"
   xmlns="http://www.w3.org/2000/svg"
   version="1.0"
   width="546.13599"
   height="343.39301"
   viewBox="0 0 546.136 343.393"
   id="svg2310"
   xml:space="preserve"><defs
   id="defs2318" />
	
		<g
   style="fill:#000000"
   id="Layer_1">
			<path
   d="M 407.205,116.645 C 407.204,116.648 407.201,116.651 407.2,116.655 C 407.212,116.694 407.221,116.732 407.247,116.775 L 407.205,116.645 z M 520.836,102.188 C 521.247,102.581 521.43,101.772 521.72,101.264 C 520.81,100.982 520.926,101.683 520.836,102.188 z M 545.898,45.67 C 545.588,45.275 545.401,45.882 545,45.891 L 544.58,45.097 C 545.268,44.379 544.247,43.698 544.03,42.999 L 543.987,42.94 C 543.788,43.044 543.14,42.705 542.735,42.512 L 541.734,42.732 C 541.142,43.246 540.323,42.458 540.01,41.861 C 540.097,41.156 539.688,40.762 538.979,40.474 C 538.761,39.574 539.741,38.25 538.134,38.28 L 535.617,38.027 C 535.094,36.932 534.479,36.341 534.165,35.644 C 532.666,30.75 530.06,25.777 528.359,20.887 C 527.838,19.892 526.743,20.415 525.924,19.627 C 524.711,19.249 524.09,18.255 522.694,18.784 L 521.608,19.809 C 520.117,20.641 518.758,23.178 516.924,21.807 C 516.005,21.021 516.266,18.907 514.383,20.248 C 513.169,25.093 510.867,30.863 511.865,35.766 C 511.492,37.28 510.716,38.701 511.745,39.988 C 511.163,41.104 512.383,41.884 512.495,42.485 C 512.217,43.695 511.827,44.306 511.953,45.71 C 511.17,46.73 510.08,47.554 510.511,49.053 L 510.928,49.849 C 509.723,49.871 510.057,51.573 509.971,52.378 C 509.572,52.486 508.754,51.798 508.258,52.109 L 508.08,53.317 C 507.375,53.23 505.971,53.358 505.49,54.471 C 505.766,55.728 505.485,56.797 505.492,57.737 L 490.783,62.278 C 490.723,62.322 490.651,62.361 490.557,62.389 C 491.295,64.182 491.535,66.086 491.668,67.791 L 491.473,68.096 L 492.297,69.085 L 492.165,72.604 C 491.435,71.212 490.999,69.513 489.969,68.227 C 490.333,66.311 489.295,64.624 489.465,63.013 C 489.962,62.802 489.779,63.71 490.285,63.901 C 490.791,63.48 490.637,62.915 490.498,62.366 L 489.372,62.714 L 476.179,66.28 C 473.689,67.332 471.729,69.981 470.364,72.117 C 469.978,72.928 469.154,75.232 468.764,75.842 L 468.821,75.778 C 467.949,77.403 467.491,79.622 465.499,80.465 C 465.104,80.874 465.115,81.377 465.526,81.871 L 465.731,82.068 C 465.925,81.763 466.321,81.453 466.725,81.546 C 466.933,81.944 466.752,82.952 467.548,82.534 C 467.964,83.229 467.176,84.048 466.473,84.062 C 467.106,85.556 468.242,87.141 467.566,88.561 C 465.753,88.295 465.789,90.103 464.602,91.03 C 464.426,92.34 462.621,92.476 462.04,93.592 C 460.14,94.031 458.22,93.467 456.643,95.005 C 452.5,93.781 448.098,94.672 444.518,96.55 C 443.532,96.782 442.714,97.36 441.922,97.97 L 441.98,97.938 C 442.488,98.6 442.637,99.606 442.914,100.512 C 442.934,100.473 442.952,100.434 442.987,100.397 L 444.192,100.374 C 444.101,100.878 444.011,101.382 443.616,101.691 C 443.514,101.618 443.399,101.526 443.291,101.423 C 443.524,101.838 443.837,102.184 444.324,102.374 L 444.432,102.378 C 444.738,102.573 444.744,102.874 445.048,103.069 C 445.371,104.168 444.178,104.794 443.586,105.308 L 442.822,107.332 C 440.055,109.697 438.301,112.444 435.427,114.41 L 435.023,114.318 C 433.07,117.169 429.673,118.14 427.001,120.102 C 425.116,121.345 423.72,121.875 422.557,124.007 C 421.199,126.445 419.084,126.185 416.882,126.631 C 416.005,127.954 414.698,127.98 413.403,128.508 C 412.465,126.819 411.198,128.752 410.176,127.868 L 411.064,127.047 C 410.347,126.358 409.258,127.183 408.453,127.099 C 407.141,126.823 406.119,125.939 404.712,125.867 L 404.009,125.881 L 403.986,124.676 L 404.461,123.26 C 404.155,123.065 405.457,122.839 405.144,122.242 C 406.132,121.419 405.008,120.436 405.896,119.616 L 405.865,119.618 L 405.665,119.358 C 405.744,118.255 406.813,117.662 407.199,116.656 C 407.076,116.243 407.733,116.028 407.727,115.661 C 407.811,114.856 407.495,114.058 408.291,113.741 C 407.874,112.946 408.661,112.126 409.262,112.014 C 409.801,112.233 410.057,112.806 410.155,113.422 L 410.174,113.446 C 411.349,111.816 410.302,109.626 410.666,107.61 L 411.306,107.021 C 408.872,105.863 409.683,102.764 408.338,100.781 C 406.986,98.497 407.196,93.872 403.487,94.246 C 402.896,94.86 402.307,95.575 401.406,95.694 C 400.017,96.625 400.172,99.335 398.677,99.967 C 398.421,102.282 396.982,100.603 395.777,100.627 C 394.462,100.151 396.037,98.512 395.125,98.128 C 394.585,96.23 396.903,96.586 397.082,95.478 C 398.89,95.442 396.82,92.369 398.828,92.33 C 398.716,91.729 399.31,91.316 399.708,91.107 C 399.35,88.201 399.581,84.68 397.232,82.717 L 397.417,81.91 L 398.323,81.993 C 398.401,80.886 396.378,80.122 396.857,79.008 C 396.227,77.614 394.637,78.55 393.817,77.661 C 393.118,77.876 392.507,77.486 391.997,77.094 C 390.899,77.417 389.393,77.447 389.362,75.941 C 387.632,74.77 385.252,76.323 384.007,74.339 C 383.314,74.855 382.72,75.269 381.812,75.086 C 381.941,76.49 380.052,77.532 381.383,78.811 L 382.4,79.394 C 382.019,80.506 380.904,79.926 380.108,80.343 C 377.034,82.413 380.816,85.654 378.247,87.814 C 377.835,87.32 379.021,86.392 378.207,85.806 L 377.533,87.326 C 376.713,86.438 377.384,84.818 377.262,83.715 C 377.46,83.611 377.754,83.203 377.35,83.111 L 376.751,83.323 C 375.667,84.349 375.919,86.956 374.102,86.49 C 372.705,86.92 373.539,88.511 373.258,89.521 C 369.947,89.787 372.626,93.15 372.159,94.967 L 370.231,99.124 C 371.253,100.008 371.09,101.92 371.214,103.123 L 370.638,104.44 L 372.042,107.538 L 375.153,114.397 C 376.26,119.599 373.538,124.173 371.617,128.632 C 369.937,130.071 368.766,131.802 366.657,131.844 C 365.054,132.076 364.134,131.191 363.305,130.001 C 362.155,127.713 361.31,125.62 360.26,123.331 C 359.907,120.726 360.85,117.593 359.205,115.717 L 358.67,114.02 C 358.108,111.018 358.449,107.896 359.694,104.858 C 358.952,102.863 359.024,101.456 359.79,99.531 C 360.985,99.006 360.557,97.608 360.236,96.71 C 360.881,93.684 361.22,90.563 362.775,87.92 C 363.156,86.807 363.937,85.687 363.811,84.383 C 364.414,84.371 364.2,83.773 364.092,83.373 C 362.883,83.196 363.125,85.301 361.922,85.425 C 360.949,87.051 361.318,90.46 358.498,90.113 C 358.131,91.828 357.046,92.854 356.067,94.179 C 354.352,93.811 355.728,92.277 355.509,91.377 C 356.797,90.447 355.856,88.557 357.66,88.421 C 358.848,87.494 358.218,86.1 358.898,84.981 C 360.367,83.043 361.128,80.918 361.588,78.8 C 362.788,78.475 362.449,76.572 363.349,76.354 C 363.762,76.948 363.372,77.559 364.085,78.047 C 364.98,77.527 364.858,76.525 365.043,75.717 C 365.863,76.505 366.643,75.284 367.446,75.268 C 367.875,76.666 366.065,76.601 365.993,78.009 L 366.911,78.694 C 367.295,77.782 367.57,76.471 368.668,76.148 C 369.354,75.23 369.414,73.22 371.128,73.487 C 371.826,73.273 372.853,74.357 373.132,73.247 L 375.135,72.906 C 375.418,71.996 376.499,70.769 377.608,70.948 C 380.11,70.497 381.857,72.472 383.687,73.541 C 384.385,73.326 383.668,72.637 383.958,72.029 C 384.556,71.816 384.024,70.32 385.041,70.903 C 385.468,72.2 386.239,70.578 386.948,70.865 C 388.454,70.835 390.48,71.699 391.455,70.173 C 390.75,70.087 390.142,69.797 389.43,69.309 L 389.617,68.602 C 389.007,68.212 388.211,68.629 387.501,68.242 L 387.876,66.929 C 386.86,66.346 387.128,64.633 385.72,64.56 C 385.429,65.068 384.635,65.586 383.935,65.7 C 383.927,65.299 383.521,65.105 383.317,64.908 C 382.93,65.72 381.719,65.442 381.115,65.353 C 380.8,64.656 380.216,65.572 379.902,64.975 C 380.485,63.959 379.055,62.782 380.04,61.758 L 379.732,61.463 C 378.034,61.899 376.136,62.539 374.849,63.468 C 372.743,63.61 371.243,63.941 369.344,64.481 C 367.856,65.414 366.368,66.448 365.192,67.878 C 364.073,67.197 362.982,67.921 361.859,66.939 C 361.065,67.457 359.667,67.887 358.55,67.306 C 358.023,66.011 356.398,65.139 355.671,63.947 C 355.08,63.38 354.311,63.117 353.514,63.012 C 352.653,62.898 351.761,62.968 351.032,63.034 C 350.206,61.845 349.841,63.761 349.036,63.676 C 348.64,63.985 348.855,64.684 348.352,64.694 C 347.895,61.89 349.551,59.245 352.024,57.288 L 352.011,56.685 C 352.605,56.171 353.725,56.953 354.107,55.941 C 351.665,54.381 349.498,56.534 347.611,57.676 C 346.229,58.908 344.064,61.161 342.986,62.589 C 341.378,62.521 341.022,64.838 339.522,65.169 L 335.922,66.044 C 334.246,67.684 332.357,68.626 330.359,69.268 C 328.749,69.099 328.017,67.707 326.639,69.141 C 326.019,68.249 327.405,67.217 326.982,66.12 C 327.478,65.808 327.868,65.198 327.755,64.598 C 326.028,63.628 325.162,65.554 323.758,65.681 C 321.675,67.028 319.384,67.977 316.984,68.527 C 316.283,68.641 315.865,67.846 315.755,67.346 C 319.32,64.764 322.247,60.387 325.496,57.007 C 328.157,54.443 331.658,53.671 334.735,51.802 C 335.452,51.019 336.344,50.339 337.191,49.64 L 336.808,49.811 L 334.629,50.287 L 332.702,49.319 L 327.681,49.414 C 326.191,50.347 325.656,48.549 325.036,47.757 C 323.239,48.293 322.475,50.418 320.366,50.458 C 319.16,50.38 317.361,50.917 317.424,48.907 C 316.016,48.833 314.903,48.352 314.177,47.16 C 312.656,46.486 313.19,48.083 312.187,48.202 L 311.374,47.715 C 311.446,46.207 309.744,46.54 308.74,46.559 C 308.582,46.484 308.486,46.366 308.433,46.226 L 306.593,46.128 C 306.281,45.632 305.677,45.544 305.768,45.04 C 306.423,45.947 307.499,45.551 308.47,45.44 C 308.533,45.252 308.618,45.078 308.709,44.953 C 308.646,44.909 308.578,44.877 308.514,44.836 C 307.712,44.635 306.866,44.538 306.353,44.021 C 306.25,44 306.151,43.976 306.047,43.958 L 304.846,44.154 C 304.413,44.038 303.867,43.926 303.447,43.684 C 303.318,43.674 303.188,43.664 303.059,43.654 C 302.169,44.475 300.881,45.404 299.978,45.421 C 300.323,42.4 296.145,44.59 294.807,42.907 C 293.801,42.825 292.405,43.355 291.584,42.466 L 290.353,35.859 C 290.616,33.845 287.618,34.605 287.02,34.918 C 286.935,35.723 287.07,37.529 286.799,39.141 C 275.55,39.255 265.805,39.239 255.448,38.733 L 224.272,36.915 L 189.342,33.159 L 159.518,28.502 L 131.892,23.201 L 98.684,14.892 L 63.625,4.006 L 52.701,0.083 L 52.604,0 C 51.622,1.026 52.566,2.814 52.588,3.818 L 53.182,3.403 L 53.591,3.695 C 52.805,4.516 54.245,5.991 52.743,6.225 L 52.767,7.33 C 52.459,7.035 51.861,7.249 51.975,7.85 L 52.727,10.044 C 52.354,11.358 51.587,12.982 52.814,13.96 C 51.714,14.186 51.339,15.399 50.549,16.02 C 50.873,17.018 49.376,17.453 49.797,18.348 C 48.82,19.575 49.465,21.47 48.287,22.702 C 47.593,23.119 47.763,21.709 47.174,22.325 L 45.308,24.275 C 44.603,24.191 43.572,23.008 42.889,23.927 L 42.266,23.036 C 43.159,22.514 44.142,21.588 45.026,20.664 L 45.329,20.758 C 45.543,21.356 44.954,21.972 45.066,22.472 C 45.869,22.454 46.217,20.035 47.253,21.418 C 47.944,20.9 48.128,20.093 48.112,19.39 C 47.4,19.004 47.282,18.203 47.369,17.598 C 47.967,17.384 48.973,17.462 48.552,16.567 C 48.947,16.257 50.138,15.628 49.717,14.733 C 48.126,15.472 46.857,17.108 45.053,17.349 L 43.38,18.893 C 43.496,19.594 43.987,19.08 44.395,19.372 C 43.804,19.888 42.708,20.314 42.284,19.319 C 42.837,17.096 46.055,17.226 46.704,14.8 C 47.422,15.487 48.512,14.759 48.895,13.947 C 48.467,12.751 50.038,11.109 48.317,10.544 C 47.742,11.762 47.101,10.069 46.311,10.689 L 45.679,9.397 C 44.586,9.924 43.457,8.844 42.444,8.464 C 39.213,7.733 36.927,4.367 34.466,2.112 C 33.4,3.843 32.139,5.881 32.291,8.188 C 34.354,10.553 32.312,13.612 32.466,16.021 C 33.104,17.614 32.028,18.944 32.174,20.95 L 33.198,21.831 C 32.698,21.942 32.522,23.052 31.904,22.362 C 31.413,22.875 31.445,24.281 31.558,24.881 C 31.96,24.872 32.265,25.066 32.573,25.36 L 31.607,27.089 L 31.089,26.398 C 30.714,27.612 29.534,28.743 29.367,30.254 C 29.967,30.14 30.282,30.736 30.695,31.229 C 32.48,30.185 33.04,32.784 34.538,32.349 L 34.77,33.75 C 34.373,33.96 34.145,32.759 33.634,32.369 C 32.453,33.5 31.608,31.61 30.51,31.936 L 29.791,31.249 C 29.11,32.269 29.756,34.163 28.365,34.897 C 28.497,36.301 27.41,37.128 27.743,38.528 C 26.955,39.249 27.179,40.248 26.39,40.969 C 25.462,44.406 23.318,47.367 21.783,50.616 C 19.485,55.69 17.693,60.954 14.378,65.449 L 13.095,66.482 L 9.407,72.291 C 9.548,74.096 10.097,76.194 8.319,77.54 L 8.082,80.458 C 7.223,82.486 9.377,84.448 7.304,86.102 C 8.554,88.083 7.503,90.518 7.043,92.437 L 5.22,96.295 C 4.981,99.113 1.775,99.486 0.728,102.122 L 0,105.455 C 0.034,106.961 2.06,107.72 1.594,109.337 C 3.259,111.912 2.745,115.942 1.295,118.486 C 0.539,120.613 1.789,122.594 0.323,124.435 C 1.595,127.42 2.153,129.92 4.021,132.591 C 3.85,133.901 4.687,135.389 4.918,136.791 C 4.42,137.003 3.437,137.929 3.753,138.625 L 4.55,138.306 C 5.677,139.286 5.614,140.995 7.038,141.767 L 7.763,142.756 C 8.854,142.129 7.928,141.145 8.72,140.625 C 8.207,140.134 8.696,139.521 8.988,139.112 C 9.974,138.286 10.606,139.578 11.021,140.172 L 9.145,141.621 C 9.462,142.317 9.881,143.111 9.393,143.725 L 10.016,144.615 C 10.239,145.615 10.879,147.308 10.092,148.029 L 8.231,145.659 C 8.409,144.651 9.288,143.526 7.764,142.756 C 6.905,144.784 6.245,146.708 6.696,148.908 C 6.027,150.429 6.58,152.728 7.717,154.109 C 8.337,154.899 9.147,155.182 9.95,155.164 C 10.981,156.347 10.807,157.556 10.738,158.964 C 10.683,160.974 7.418,158.736 8.675,161.019 C 6.426,163.782 10.494,166.002 10.258,168.92 C 11.287,170.003 10.923,171.718 11.856,173.003 C 11.582,174.216 12.7,174.793 13.218,175.485 C 13.749,176.778 14.084,178.278 15.106,179.059 C 14.619,179.773 14.345,180.985 15.066,181.772 C 15.883,182.357 16.811,183.442 16.332,184.457 C 14.752,185.698 16.283,186.769 15.107,188.101 C 15.625,188.793 15.036,189.41 14.746,189.917 L 16.21,192.497 C 18.517,192.345 20.463,194.01 22.391,194.871 C 23.208,195.456 24.114,195.536 25.119,195.514 C 26.357,196.993 28.093,198.261 28.243,200.467 C 29.889,202.239 32.124,203.294 34.64,203.54 C 34.868,204.739 36.109,206.319 35.029,207.448 L 35.953,208.333 C 36.656,208.317 37.238,207.399 37.856,208.089 L 41.277,212.835 C 43.643,215.294 45.837,219.064 44.509,222.608 C 44.826,223.304 43.445,224.441 44.962,224.909 C 45.39,225.67 45.294,226.495 45.21,227.318 L 45.351,227.405 L 71.364,231.093 C 71.182,232.101 70.29,232.721 69.704,233.636 L 70.112,233.93 L 109.135,257.498 L 140.973,262.418 L 141.671,256.88 C 147.505,257.271 154.157,258.45 159.893,258.943 C 161.208,259.421 163.016,259.386 162.949,261.196 C 162.91,264.412 166.428,264.546 167.678,266.833 C 168.415,268.626 170.952,269.984 171.491,271.884 C 172.306,272.471 172.827,273.465 173.833,273.547 C 175.374,275.325 177.297,276.093 177.942,278.29 C 177.675,280.103 179.1,281.081 179.333,282.784 C 178.291,286.119 180.634,287.782 181.386,290.38 C 181.803,291.176 183.006,291.052 183.722,291.742 C 184.888,294.934 188.789,294.056 190.045,296.745 C 192.857,296.692 193.629,300.293 196.819,299.027 C 198.312,298.296 197.281,296.909 199.087,296.774 C 199.271,295.866 199.358,295.162 200.259,295.044 C 201.127,293.118 201.208,292.113 202.184,290.588 C 202.966,289.468 205.706,290.922 206.068,288.806 C 207.572,288.677 208.188,289.369 209.302,289.85 C 212.011,289.698 214.445,290.857 217.055,290.807 C 216.95,291.389 217.645,291.789 218.179,292.257 C 219.003,292.622 220.253,293.014 220.178,294.058 C 221.2,294.943 222.175,293.415 222.663,292.704 C 223.376,293.192 221.883,293.925 222.699,294.511 C 222.303,294.961 221.833,295.166 221.348,295.216 C 221.808,295.71 221.628,296.748 222.693,296.728 C 222.924,298.332 224.819,297.592 224.747,299.101 C 226.578,300.271 225.312,302.405 226.847,303.882 C 226.677,305.492 228.301,306.365 228.428,307.77 C 229.252,308.86 228.497,311.385 230.52,312.151 C 231.837,312.728 232.457,313.621 232.785,315.02 C 233.393,315.311 234.015,316.303 234.032,317.207 C 235.163,318.592 236.397,320.075 238.114,320.545 C 238.941,321.735 238.366,323.253 238.291,324.561 C 239.722,325.383 237.816,327.775 239.421,328.611 C 239.394,328.553 239.364,328.492 239.341,328.441 C 238.937,328.348 238.831,328.049 238.823,327.648 C 240.026,327.524 240.172,329.832 241.462,329.002 C 242.177,329.59 240.99,330.518 242.008,331.2 L 242.813,331.285 C 242.383,331.913 242.587,333.228 241.819,333.618 C 241.967,334.198 242.239,334.701 242.91,335.02 C 243.018,335.419 242.634,336.332 243.335,336.217 L 246.558,336.658 C 247.496,338.448 249.605,338.408 251.219,338.779 C 252.999,342.563 257.375,340.269 260.615,341.614 C 261.036,342.61 262.465,343.789 263.66,343.264 C 264.257,342.951 265.121,342.107 266.03,342.29 L 266.157,340.939 L 265.751,340.748 L 265.278,342.064 L 264.974,341.97 C 264.565,341.678 264.755,341.171 264.948,340.765 C 264.324,339.875 264.296,338.569 263.673,337.679 C 264.151,336.563 262.547,336.7 262.527,335.796 C 263.095,334.275 262.047,332.29 261.908,330.585 L 262.296,329.974 C 261.885,329.581 261.377,329.291 261.463,328.687 L 262.461,328.363 L 262.235,327.263 C 262.632,327.053 262.907,325.841 262.695,325.344 C 261.889,325.262 260.791,325.587 260.47,324.691 C 261.066,324.376 261.853,323.655 262.278,324.65 C 264.478,324.2 263.404,321.109 265.087,319.966 C 264.471,319.376 262.771,319.716 263.44,318.194 C 263.219,317.296 264.226,317.373 264.825,317.259 C 265.426,317.146 265.144,318.056 265.945,317.938 L 268.188,314.874 L 267.877,314.479 C 267.387,314.992 266.576,314.708 266.393,315.517 C 265.987,315.325 266.182,315.019 265.873,314.725 C 266.561,314.005 267.446,313.183 268.363,313.764 C 268.642,312.754 269.176,314.149 269.666,313.635 C 270.352,312.817 270.934,311.899 270.606,310.7 C 271.002,310.491 271.609,310.678 271.621,311.179 C 272.953,312.355 274.219,310.519 275.209,309.894 C 275.2,309.492 274.893,309.198 274.391,309.208 C 273.875,308.617 272.563,308.345 273.244,307.325 L 274.56,307.799 C 275.143,306.881 276.262,307.559 276.953,306.941 C 277.191,308.644 278.736,307.517 279.653,308.099 L 281.487,307.544 C 281.475,307.041 280.371,307.065 281.161,306.445 C 282.654,305.809 284.674,306.266 285.851,305.035 C 287.33,303.796 290.015,302.531 289.866,300.324 C 291.381,300.692 291.337,298.683 292.737,298.452 C 292.923,297.744 293.103,296.836 292.195,296.655 C 292.779,295.839 291.577,295.966 291.466,295.466 C 292.251,294.645 290.428,293.983 291.72,293.351 C 292.753,294.634 293.405,292.309 294.509,292.285 L 294.717,292.582 C 295.141,293.577 294.453,294.296 294.068,295.008 C 294.584,295.599 295.78,295.17 296.579,294.951 C 296.889,295.347 296.641,295.926 295.939,296.042 C 294.94,296.266 294.304,296.609 294.222,297.415 L 294.527,297.609 C 296.083,295.263 299.203,295.496 301.476,293.838 C 304.189,293.878 306.255,291.923 309.075,292.162 C 312.771,291.275 315.941,293.717 319.167,294.247 L 320.78,294.513 C 323.603,294.952 326.17,292.885 328.631,295.142 C 329.028,294.932 329.519,294.418 329.61,294.014 C 328.5,293.738 327.467,292.555 326.381,293.384 C 325.482,293.605 324.763,292.917 324.945,292.109 C 325.846,291.989 326.311,290.271 327.427,290.748 C 327.936,291.039 327.545,291.55 327.853,291.844 L 329.558,291.706 C 330.258,291.59 330.974,292.177 330.593,293.089 C 330.999,293.281 331.694,292.863 331.711,293.667 C 331.626,294.372 332.532,294.452 332.925,294.042 C 333.533,294.33 334.349,294.813 335.254,294.895 C 334.691,296.615 337.579,295.546 336.516,297.378 C 336.311,297.182 336.205,296.983 336.098,296.684 C 335.582,296.093 334.992,296.609 334.702,297.118 C 335.425,298.006 336.72,297.474 337.444,298.464 C 338.444,298.24 339.057,298.729 339.87,299.112 C 340.363,298.699 341.265,298.579 341.586,299.476 C 343.3,299.739 342.644,297.342 343.536,296.82 C 344.041,296.91 344.645,296.997 344.935,296.488 L 345.352,297.181 C 345.939,296.464 346.363,297.46 346.963,297.346 L 347.003,299.154 C 347.795,298.634 349.606,298.694 349.674,297.286 C 348.861,296.902 349.455,296.488 349.552,296.285 L 349.349,296.188 C 349.525,295.08 349.094,293.783 347.987,293.707 C 347.976,293.205 348.586,293.493 348.884,293.386 C 349.817,294.672 351.6,293.527 352.535,294.912 C 351.68,297.141 354.54,294.767 354.679,296.472 C 356.373,295.831 356.627,298.237 357.645,298.818 C 357.657,299.319 356.867,299.94 357.278,300.333 C 358.081,300.315 357.859,299.416 358.355,299.104 C 358.949,298.689 359.654,298.774 360.167,299.264 L 361.43,297.327 L 358.964,294.87 C 358.371,295.285 357.854,294.594 357.646,294.297 C 356.762,295.221 356.126,293.728 355.22,293.648 L 354.994,292.548 L 354.296,292.765 C 354.004,293.173 353.19,292.689 353.276,292.083 L 354.173,291.762 C 353.856,291.066 354.764,291.247 354.956,290.841 L 354.649,290.647 L 355.337,289.928 C 355.397,288.118 356.651,290.3 356.924,288.989 C 356.511,288.496 357.579,286.865 356.174,286.896 C 356.558,286.083 357.865,286.155 358.664,285.936 L 358.429,284.435 L 356.952,285.774 C 356.261,286.291 355.231,285.209 355.161,286.516 C 354.052,286.34 354.281,287.641 353.893,288.252 C 352.799,288.778 352.558,286.976 351.466,287.603 L 351.448,286.8 C 352.656,286.873 353.332,285.653 353.412,284.747 L 352.865,285.167 C 352.263,285.495 352.335,285.552 352.022,285.481 C 350.388,284.311 349.15,287.352 347.023,286.596 C 346.217,286.514 345.118,286.74 344.595,285.847 C 344.255,284.147 346.358,283.798 346.826,282.281 C 347.934,282.457 349.042,282.533 349.672,283.724 C 350.763,283.097 350.997,284.599 352.09,284.073 L 352.61,284.865 C 353.033,284.855 353.331,284.669 353.412,284.747 L 354.715,284.617 C 355.814,284.291 356.385,282.872 357.168,281.95 C 358.789,282.617 360.056,280.781 361.765,280.844 L 364.793,281.479 C 365.274,280.565 366.306,281.748 367.102,281.428 C 367.461,279.511 369.809,281.166 370.61,281.048 C 370.874,279.334 370.933,277.525 371.803,275.998 C 372.627,276.884 373.254,277.975 372.779,279.191 C 372.801,280.195 373.697,279.773 374.013,280.469 C 374.227,281.068 373.741,281.782 373.442,281.889 C 374.348,281.969 376.252,281.726 377.13,280.601 C 377.944,281.085 378.302,279.068 378.835,280.462 C 380.547,280.624 380.506,278.817 381.595,278.09 L 381.992,277.88 C 382.305,278.376 382.585,277.465 382.885,277.358 L 384.722,278.624 C 386.422,278.285 387.734,278.557 389.215,277.419 L 392.02,277.055 C 393.15,278.135 391.324,277.372 391.041,278.182 C 392.865,278.845 394.572,278.807 396.401,279.77 C 396.587,279.063 397.281,278.646 397.983,278.63 C 399.395,278.9 398.014,280.036 399.332,280.508 C 400.632,280.279 400.751,281.079 401.764,281.459 C 401.67,281.762 401.271,281.872 401.075,282.077 C 400.457,281.388 399.848,281.099 399.549,281.207 L 400.478,282.291 C 401.183,282.376 402.093,282.657 402.711,283.347 C 404.027,283.82 402.905,287.562 405.273,285.6 C 406.167,285.079 407.48,285.451 408.362,284.427 C 409.38,285.007 410.651,283.471 411.633,282.445 L 414.221,281.382 C 413.813,281.09 413.902,280.586 413.891,280.083 C 415.267,278.747 416.689,279.419 418.283,278.78 C 419.09,278.963 419.32,280.264 420.315,279.84 C 422.826,279.784 423.203,283.192 425.519,283.442 C 425.448,284.75 426.458,285.029 427.283,285.915 C 428.184,285.794 428.73,287.791 429.838,287.866 C 430.284,289.866 431.762,288.527 433.076,288.899 C 434.703,289.767 433.941,291.694 435.668,292.558 C 435.775,292.858 435.285,293.371 435.789,293.46 C 435.721,294.868 436.664,296.655 435.797,298.282 C 435.116,299.302 436.355,300.781 435.165,301.511 C 435.698,302.907 435.631,304.414 435.059,305.733 L 436.612,307.808 L 437.706,307.282 L 437.976,305.87 C 438.155,304.861 436.755,305.194 436.74,304.491 L 437.429,303.873 C 437.842,304.366 438.748,304.445 438.568,305.354 C 439.485,305.936 438.751,304.545 439.549,304.328 C 440.147,304.113 440.167,305.016 440.475,305.311 C 439.506,306.941 438.949,308.961 437.771,310.194 L 438.92,312.177 C 440.553,313.346 440.607,315.756 442.441,316.921 C 442.669,318.121 443.983,318.494 444.983,318.271 C 445.568,317.455 444.257,317.283 444.344,316.678 L 446.145,316.336 C 446.055,316.841 445.666,317.352 446.179,317.842 C 445.995,318.65 446.322,319.748 445.322,319.971 C 445.762,321.669 447.88,322.024 449.196,322.497 C 449.312,323.197 449.328,323.9 449.942,324.39 C 449.776,326 450.892,326.478 451.522,327.669 C 451.93,327.961 452.334,328.053 452.347,328.655 C 452.936,328.039 453.46,329.032 453.851,328.521 L 456.386,329.569 C 456.504,330.371 457.019,330.962 457.825,331.045 C 458.763,332.632 459.233,335.635 461.935,335.173 C 462.041,335.472 462.953,335.753 462.461,336.266 C 461.666,336.686 460.846,335.901 460.132,335.414 L 460.134,335.515 C 459.752,336.428 459.884,337.831 460.991,337.907 C 461.883,337.385 462.995,337.662 463.782,336.941 C 465.105,337.715 465.975,336.188 467.064,335.462 C 468.785,336.025 468.835,333.815 469.619,332.893 C 468.568,330.807 470.429,328.656 470.782,326.438 L 470.627,319.508 L 470.321,314.793 C 469.613,310.087 465.331,307.27 463.927,302.88 C 461.483,301.428 461.016,298.525 459.166,296.657 L 457.228,290.873 L 457.418,290.366 C 458.436,290.946 457.557,292.071 458.965,292.14 C 458.909,294.151 458.958,296.36 460.792,297.524 C 460.996,298.24 461.446,299.265 461.948,299.81 C 461.948,299.81 462.134,299.477 461.943,299.355 C 461.752,299.233 461.354,298.111 461.164,297.989 L 461.028,297.49 C 460.605,296.005 460.623,294.697 461.002,293.401 C 456.333,286.774 450.363,280.377 448.078,272.491 C 447.306,269.394 446.038,266.609 446.067,263.393 C 446.455,262.782 445.339,262.304 446.031,261.787 C 445.498,260.392 447.095,259.955 447.172,258.849 C 446.124,256.963 448.399,255.305 447.852,253.308 C 446.919,252.023 449.219,251.57 448.793,250.474 C 449.798,250.452 449.572,249.351 449.661,248.847 L 450.163,248.836 C 450.366,248.932 450.658,248.523 450.552,248.225 C 448.909,246.654 453.211,245.854 451.761,243.878 C 452.157,243.667 452.372,244.266 452.676,244.358 C 453.572,244.037 454.054,243.123 453.929,242.02 C 454.121,241.614 453.113,241.436 453.706,241.02 C 455.227,241.69 455.598,240.275 456.587,239.549 C 457.877,238.817 460.066,237.864 460.126,236.055 C 461.21,235.126 462.696,234.19 462.46,232.587 C 462.845,231.875 463.355,232.165 463.863,232.455 C 464.76,232.134 464.74,231.229 465.025,230.52 C 466.513,229.683 465.866,227.688 466.235,226.173 L 469.921,220.264 C 471.877,217.91 474.794,218.045 477.397,217.585 L 477.209,218.192 C 477.315,218.491 477.614,218.383 477.813,218.278 C 478.373,216.357 477.914,213.756 479.078,211.922 C 481.914,208.443 484.918,203.453 489.819,202.54 L 490.531,202.926 C 491.618,202.098 492.591,200.67 492.657,199.161 L 492.247,198.768 C 491.66,199.484 491.152,199.195 490.741,198.802 C 490.755,199.404 490.154,199.518 489.763,200.029 C 488.643,199.351 488.208,202.375 486.964,200.695 C 488.163,200.367 488.839,199.146 489.422,198.228 C 488.297,197.349 489.696,197.017 489.879,196.208 C 489.742,194.604 487.556,195.657 486.732,194.771 C 487.011,193.76 487.737,194.749 488.129,194.338 L 488.209,193.432 C 488.413,193.528 489.307,193.106 489.223,193.811 C 489.439,194.51 490.24,194.391 490.533,193.983 C 491.057,194.976 491.642,194.159 492.137,193.846 C 494.881,195.292 494.094,191.492 495.475,190.356 L 496.477,190.234 C 497.16,189.315 495.847,189.043 496.63,188.121 C 496.697,186.612 495.685,186.233 494.659,185.352 C 494.584,186.458 493.158,185.586 493.083,186.693 C 492.859,185.694 491.75,185.517 490.851,185.738 C 489.586,187.575 487.453,186.516 485.869,187.557 C 485.265,187.469 485.956,186.952 485.847,186.553 C 487.052,186.526 489.264,186.576 489.324,184.768 C 490.345,185.448 490.201,183.542 491.123,184.325 C 491.602,183.31 492.303,183.194 493.095,182.675 L 494.724,183.644 C 494.595,182.34 493.362,181.062 492.729,179.769 L 492.103,178.679 C 492.103,178.679 491.249,178.081 491.565,177.083 C 492.136,175.663 490.708,174.69 490.279,173.495 L 487.47,173.657 C 487.399,174.966 486.073,174.091 485.488,174.907 C 485.257,173.506 483.848,173.436 482.831,172.856 C 483.208,171.743 481.904,171.873 481.597,171.578 L 481.794,171.373 C 482.599,171.456 483.396,171.136 483.621,172.236 C 484.924,172.106 484.85,173.313 486.062,173.589 L 487.146,172.66 C 486.637,172.37 487.42,171.448 486.42,171.671 L 484.974,169.896 C 485.767,169.376 484.852,168.894 484.642,168.497 C 484.624,167.694 485.736,167.971 486.24,168.06 L 486.227,167.457 C 485.713,166.966 485.693,166.062 484.988,165.978 C 484.462,164.885 482.473,165.833 482.437,164.227 C 483.354,164.809 484.151,164.49 485.066,164.972 L 484.507,162.472 C 484.802,162.164 484.994,161.758 484.784,161.361 C 483.26,160.591 481.249,160.535 480.307,158.848 C 479.709,159.062 479.203,158.873 478.714,159.487 C 478.399,158.891 477.698,159.007 477.292,158.815 C 476.686,158.628 475.261,157.856 475.846,157.039 C 476.549,157.023 477.381,158.31 477.861,157.295 C 478.265,157.386 478.277,157.889 478.484,158.185 C 479.892,158.254 480.575,157.335 481.611,158.718 C 482.485,157.393 482.53,159.401 483.333,159.383 L 483.628,159.075 C 483.61,158.272 482.892,157.585 482.381,157.194 C 482.865,156.38 480.85,156.123 482.036,155.293 C 480.204,154.229 480.16,152.22 479.424,150.73 C 480.209,149.909 478.787,149.237 479.47,148.318 C 478.963,148.128 479.044,147.222 478.734,146.827 C 480.036,146.597 478.901,145.316 478.588,144.821 L 479.378,144.2 C 479.251,142.997 480.144,142.475 480.828,141.656 C 481.833,141.634 481.708,140.531 481.692,139.828 C 481.475,139.13 482.477,139.007 482.778,139 C 482.892,139.6 482.107,140.421 483.01,140.401 C 482.831,141.409 482.44,141.82 481.544,142.242 C 481.466,143.248 480.788,144.368 481.212,145.364 C 482.41,145.036 481.538,146.462 481.851,146.957 C 480.538,146.685 480.871,148.084 480.882,148.586 C 481.288,148.778 481.375,148.173 481.569,147.868 C 482.17,147.754 482.183,148.357 482.393,148.754 C 482.601,149.051 482.096,148.962 481.898,149.067 C 481.226,150.488 483.044,150.95 483.661,151.539 L 482.574,152.367 C 482.786,152.865 482.798,153.367 482.51,153.976 C 483.144,155.368 484.563,155.939 485.985,156.611 L 486.869,155.687 C 487.982,156.064 486.991,156.689 487.005,157.291 C 487.224,158.09 487.809,157.273 488.21,157.264 C 488.429,158.063 488.738,158.458 488.357,159.371 C 488.585,160.571 489.453,158.944 490.069,159.534 L 489.974,159.837 C 490.885,160.118 490.305,161.136 489.809,161.448 C 489.258,163.771 488.608,166.096 489.067,168.698 C 489.586,169.389 489.913,170.588 490.815,170.468 C 491.377,168.647 490.428,166.659 491.597,165.025 C 492.807,165.199 492.365,163.4 492.545,162.492 C 492.413,161.089 493.998,160.049 493.165,158.761 C 493.75,157.945 493.222,155.999 494.635,156.269 L 494.065,158.54 C 494.461,158.229 494.836,157.016 494.819,156.313 C 495.62,154.559 495.64,152.792 495.299,151.071 C 495.028,149.704 494.528,148.366 494.011,147.088 C 492.492,146.62 490.86,145.451 490.023,143.963 C 489.874,141.756 487.845,140.897 487.198,138.902 C 488.829,139.971 490.458,140.939 492.185,141.805 C 492.586,141.796 492.871,140.986 493.187,141.682 C 496.07,140.312 494.044,144.074 494.961,144.657 C 496.351,143.923 496.815,142.204 496.882,140.696 C 497.143,138.882 499.428,137.726 499.084,135.824 C 501.315,132.258 500.307,127.559 499.717,123.654 C 499.717,123.654 499.193,123.214 498.798,122.971 C 497.682,122.286 496.903,123.616 496.069,122.228 C 496.25,121.32 495.72,120.126 497.116,119.593 C 498.046,119.66 498.012,119.271 498.012,119.271 C 498.191,118.263 498.974,117.341 499.561,116.625 C 499.835,115.414 501.239,115.282 501.31,113.974 L 504.465,111.291 C 505.578,111.668 505.349,110.367 506.248,110.146 C 506.308,108.336 507.733,109.208 508.832,108.883 C 509.407,107.664 511.137,108.631 511.812,107.41 C 512.711,107.189 513.91,106.861 514.59,105.841 C 515.4,106.124 515.976,104.906 516.893,105.488 C 517.991,105.162 518.662,103.74 519.968,103.712 C 520.236,102.199 519.593,100.405 519.661,98.997 C 520.159,98.785 520.885,99.774 521.163,98.763 C 521.477,99.359 521.493,100.062 521.721,101.263 C 522.127,101.454 522.707,100.437 523.518,100.721 C 524.107,100.105 524.6,99.692 524.584,98.99 L 524.785,98.985 L 526.143,96.845 C 526.556,97.338 526.779,98.338 527.292,98.828 C 529.104,98.989 528.744,96.385 530.564,96.947 C 530.828,95.233 533.865,96.271 533.118,94.278 C 532.575,92.482 530.926,90.61 529.018,90.653 C 529.022,90.854 528.728,91.161 529.134,91.353 C 529.542,91.645 529.635,91.342 530.033,91.132 C 530.945,91.513 530.879,93.022 531.88,92.899 C 532.619,94.49 530.509,94.437 529.93,95.554 L 527.115,95.416 C 526.696,94.622 526.267,93.425 525.259,93.247 C 525.627,91.732 523.514,91.578 523.288,90.478 C 522.684,90.391 521.355,89.416 521.284,90.724 C 520.98,90.63 520.572,90.338 520.565,90.036 L 520.862,89.828 C 521.322,87.909 520.987,86.41 523.071,85.258 C 523.035,83.651 521.967,85.282 521.348,84.593 C 520.112,83.214 520.473,81.398 520.439,79.891 C 521.218,78.768 520.991,77.568 520.866,76.466 C 521.649,75.544 521.729,74.638 522.412,73.719 C 521.29,72.94 522.881,72.202 522.965,71.496 C 521.836,70.416 522.807,68.888 523.487,67.868 C 524.484,67.544 523.407,68.774 524.315,68.954 C 524.596,68.043 525.208,68.432 525.602,68.121 C 526.491,67.398 525.573,66.816 525.362,66.318 C 526.267,66.398 525.93,64.798 526.941,65.077 C 526.847,65.38 526.66,65.987 527.169,66.277 C 528.28,66.554 528.346,64.945 528.327,64.142 C 528.901,62.823 528.934,64.329 529.836,64.208 L 531.001,62.374 C 530.76,60.571 530.626,59.067 530.688,57.357 C 531.286,57.143 530.652,55.751 531.661,55.929 L 531.976,56.525 C 533.078,56.4 532.299,57.523 532.607,57.817 C 533.013,58.009 533.71,57.692 534.024,58.288 C 535.33,58.259 534.305,57.377 534.59,56.668 C 534.885,56.36 535.677,55.84 535.164,55.349 C 536.07,55.429 535.739,54.131 536.133,53.72 C 536.44,54.014 536.635,53.709 536.83,53.503 C 537.731,53.382 538.062,54.681 538.679,55.271 C 539.076,55.061 539.065,54.559 539.259,54.253 C 540.359,54.028 539.825,52.633 539.91,51.928 L 541.117,52.001 C 541.402,51.292 542.608,51.265 542.181,50.169 C 543.194,50.548 543.459,48.935 544.168,49.221 C 544.865,48.904 545.255,48.393 545.44,47.686 C 545.12,46.792 546.721,46.456 545.898,45.67 z M 36.538,136.245 C 34.931,136.277 35.892,134.048 35.575,133.25 C 36.264,132.533 37.063,132.316 37.968,132.298 C 37.496,133.916 37.618,135.018 36.538,136.245 z M 63.154,222.516 L 61.961,223.143 C 61.044,222.456 61.12,221.25 60.701,220.355 C 60.281,219.459 59.366,218.874 59.344,217.769 C 59.328,216.965 60.043,217.555 60.445,217.546 C 61.576,218.83 62.206,220.225 63.531,221.202 C 64.076,222.184 63.412,222.26 63.154,222.516 z M 81.644,24.248 C 81.76,25.049 82.351,24.435 82.76,24.829 C 83.07,25.225 83.381,25.721 83.79,26.115 C 84.784,25.593 83.839,23.502 85.558,24.071 L 87.123,21.93 C 86.674,19.528 88.251,17.99 89.627,16.456 L 89.934,16.751 C 88.959,18.277 87.282,19.817 87.731,22.219 C 86.538,22.845 86.475,24.755 84.973,24.986 C 84.394,26.203 86.696,25.756 86.427,27.368 C 86.626,27.264 86.828,27.36 87.033,27.557 C 86.734,27.663 85.844,28.384 85.723,27.382 C 85.91,26.675 85.498,26.181 84.795,26.194 C 84.398,26.403 83.907,27.015 83.297,26.626 C 82.751,24.427 80.166,25.784 79.225,23.894 C 80.115,23.172 80.759,25.27 81.644,24.248 z M 91.205,193.13 L 90.693,192.638 C 90.693,192.638 90.228,191.97 90.366,191.339 C 90.436,189.831 88.607,188.762 87.892,188.173 C 86.996,188.593 86.93,190.302 85.508,189.527 C 85.201,189.231 84.389,188.845 84.679,188.237 C 84.466,187.638 83.978,188.351 83.677,188.357 L 82.75,187.169 C 81.637,186.79 81.157,187.903 80.159,188.226 C 79.044,187.746 79.934,187.025 79.723,186.527 C 80.826,186.404 82.232,186.377 83.441,186.553 C 83.933,186.041 84.323,185.431 84.209,184.73 C 85.904,184.093 83.858,182.226 85.867,182.186 C 85.781,182.89 86.001,183.891 85.31,184.507 C 84.533,185.828 84.472,187.839 86,188.913 C 86.703,188.899 86.685,187.995 86.878,187.591 C 87.477,187.378 88.264,186.558 88.772,186.85 C 88.595,188.059 89.617,188.943 90.432,189.53 L 91.502,192.824 L 91.205,193.13 z M 115.708,131.992 C 115.689,130.486 113.589,131.216 113.468,129.61 C 112.644,128.013 113.621,125.891 112.301,124.703 L 111.301,125.017 C 110.567,122.616 112.547,120.381 111.511,117.883 C 112.806,117.063 113.43,118.762 114.732,118.445 C 114.445,119.553 114.863,120.854 115.378,121.852 C 117.492,122.227 116.011,124.255 117.031,125.447 C 117.722,124.534 118.51,123.319 117.99,121.919 C 118.788,121.507 119.693,121.495 120.406,122.29 C 120.915,122.786 121.328,123.685 120.834,124.293 C 120.435,124.499 119.633,124.61 119.64,125.212 C 121.16,126.197 119.678,128.125 121.398,129.107 C 121.618,130.611 120.522,131.328 119.115,131.246 C 117.917,131.863 116.917,132.278 115.708,131.992 z M 126.855,177.258 C 126.481,178.671 125.398,179.798 124.31,180.623 C 124.418,181.022 125.33,181.407 125.724,180.997 C 126.132,181.29 125.64,181.802 125.238,181.81 L 123.224,181.549 C 122.547,182.868 120.304,181.204 120.336,182.812 C 119.93,182.619 119.73,182.623 119.436,183.031 C 118.199,181.447 117.258,184.681 116.61,182.383 L 116.602,181.982 C 116.805,182.079 117.303,181.868 117.395,181.463 L 118.312,182.149 C 118.298,181.446 119.102,181.43 119.493,180.92 C 119.696,181.017 119.799,181.115 120.003,181.313 L 120.395,180.802 C 120.812,181.598 121.813,181.377 122.516,181.364 C 123.006,180.751 124.002,180.329 123.582,179.433 L 124.175,178.919 L 124.482,179.214 C 125.477,178.693 125.151,177.493 125.236,176.688 L 126.25,177.17 C 127.026,175.748 129.327,175.301 128.89,173.502 C 129.591,173.387 129.465,172.084 130.183,172.873 C 130.018,174.583 128.442,176.222 126.855,177.258 z M 145.9,88.579 C 145.593,88.284 145.404,88.89 145.107,89.097 C 144.499,88.807 145.18,87.689 144.278,87.807 C 144.375,87.604 144.367,87.203 144.061,87.008 L 143.057,87.028 C 142.651,86.835 143.143,86.323 143.443,86.217 C 144.569,87.3 144.423,84.992 145.544,85.774 L 145.991,88.076 L 145.9,88.579 z M 188.185,52.484 C 189.162,51.058 187.917,49.073 187.188,47.782 L 185.808,49.115 C 185.183,48.023 184.522,50.145 183.902,49.253 L 183.121,50.374 C 182.902,49.474 182.109,49.992 181.613,50.303 C 180.5,49.923 179.072,48.846 177.889,49.975 C 176.865,48.991 175.885,50.215 174.989,50.635 C 174.095,51.155 173.912,52.063 173.119,52.581 C 173.103,51.778 173.79,50.96 173.375,50.266 L 172.154,49.486 L 171.443,49.098 C 173.028,47.962 173.7,51.464 175.376,49.824 C 175.545,48.213 176.866,48.991 177.675,49.276 C 178.654,47.951 179.384,49.343 180.388,49.323 C 180.989,49.211 182.808,49.778 182.686,48.675 C 183.79,48.654 184.779,47.83 185.88,47.608 C 186.179,47.502 186.466,46.793 185.961,46.602 L 186.158,46.397 C 186.965,46.582 187.652,45.765 188.16,46.056 C 188.268,46.456 188.776,46.747 188.181,47.161 C 188.394,47.76 188.309,48.565 189.115,48.649 L 188.824,49.157 C 188.742,50.162 189.376,51.757 188.185,52.484 z M 231.773,57.048 C 230.15,56.277 228.367,57.517 226.856,57.346 C 226.033,56.358 225.019,55.875 223.804,55.397 C 223.507,55.604 223.203,55.509 222.796,55.216 C 223.597,55.1 223.879,54.09 223.567,53.593 C 222.84,52.402 219.641,53.168 220.8,50.835 C 221.688,50.014 220.867,49.126 220.156,48.738 C 219.037,48.057 217.61,46.98 216.324,48.009 C 215.942,49.021 214.428,48.65 213.534,49.169 C 212.931,49.181 213.014,48.275 212.606,47.982 L 211.309,48.409 L 210.996,47.812 C 211.797,47.696 212.976,46.367 213.5,47.461 C 213.408,47.865 213.516,48.264 213.919,48.357 L 215.821,48.018 L 217.006,46.99 C 219.006,46.549 220.942,47.917 222.083,49.703 L 221.018,51.733 C 221.538,52.627 222.134,52.314 222.841,52.501 C 223.737,52.082 222.408,50.902 223.101,50.386 C 223.406,50.581 223.707,50.575 224.111,50.668 C 224.01,50.669 224.306,50.363 224.111,50.668 C 223.735,51.981 224.355,52.873 225.074,53.663 C 224.471,53.675 224.584,54.275 224.592,54.677 L 226.833,56.24 C 228.851,56.702 230.938,55.556 233.149,55.613 L 233.643,55.201 L 234.165,56.195 C 233.679,57.008 233.149,55.612 232.67,56.827 C 232.268,56.637 231.966,56.643 231.773,57.048 z M 239.958,90.038 C 239.886,91.446 238.149,89.973 238.58,91.472 C 239.421,93.364 235.509,93.642 236.759,95.928 C 238.059,95.601 237.104,98.132 238.402,97.704 C 237.999,98.265 237.406,98.163 237.406,98.163 C 236.211,98.688 236.373,96.739 235.863,96.347 C 235.84,95.142 236.418,93.925 234.906,93.654 C 233.785,92.873 233.114,94.493 232.291,93.505 C 233.192,93.387 234.271,92.06 235.191,92.845 L 235.478,92.136 L 237.002,93.01 C 237.201,92.906 237.28,91.799 237.992,92.287 L 238.256,90.373 L 239.248,89.75 C 239.223,88.445 240.5,87.013 238.773,86.042 C 237.958,85.456 237.377,86.572 236.564,86.086 C 237.054,85.474 238.057,85.353 238.661,85.441 L 239.573,85.825 C 239.963,85.215 239.051,84.83 239.041,84.328 C 238.238,84.344 238.119,83.442 237.709,83.048 L 237.184,81.853 C 237.583,81.745 237.802,82.644 238.298,82.333 L 239.09,81.715 L 239.584,81.303 C 239.359,80.102 239.032,78.803 238.119,78.318 C 237.493,77.125 236.455,75.438 237.741,74.408 C 237.701,72.399 238.945,69.261 236.31,68.107 C 237.202,67.487 237.836,69.082 238.549,69.57 C 238.083,71.387 239.131,73.576 237.754,75.111 C 237.583,76.621 238.615,78.007 239.938,78.885 C 239.661,80.096 240.697,81.683 239.407,82.512 C 238.913,82.924 238.626,83.633 239.435,83.918 C 239.552,84.719 240.67,85.4 239.983,86.218 C 241.114,87.504 239.129,88.749 239.958,90.038 z M 252.126,116.118 C 251.691,114.419 249.861,113.35 248.526,111.869 C 247.219,111.794 248.495,110.262 247.679,109.676 C 247.267,109.182 246.46,108.997 246.346,108.296 C 246.838,107.784 247.119,106.774 247.915,106.357 C 247.907,105.955 247.393,105.363 247.887,104.951 C 248.5,105.441 249.023,106.536 248.134,107.257 C 247.337,107.574 247.866,108.97 248.077,109.468 C 248.591,110.061 248.804,110.659 248.715,111.264 C 250.558,113.036 252.72,115.705 255.052,116.764 L 255.06,117.166 C 253.67,117.997 253.432,116.092 252.126,116.118 z M 273.636,238.856 C 273.64,239.057 273.845,239.254 273.746,239.356 C 273.14,239.168 272.438,239.282 271.537,239.4 C 271.44,239.602 271.551,240.103 271.146,240.01 C 270.533,239.419 270.301,237.917 269.105,238.343 L 269.088,237.539 C 270.679,236.704 269.925,239.23 271.62,238.594 C 271.912,238.086 273.418,238.056 272.999,237.16 L 272.686,236.563 L 273.982,236.036 C 272.795,236.964 274.822,237.929 273.636,238.856 z M 276.763,208.958 L 276.044,208.169 C 276.947,208.15 276.126,207.263 276.223,207.06 C 276.527,207.155 277.424,206.835 277.637,207.434 C 277.774,208.046 277.113,208.901 276.763,208.958 z M 286.551,53.355 C 286.2,50.851 288.831,51.803 289.595,49.779 C 290.694,49.456 291.993,49.129 293.017,50.113 C 292.943,51.42 291.233,51.958 289.528,51.488 C 291.608,51.888 291.063,52.864 290.571,53.376 C 289.266,53.503 287.77,54.035 286.551,53.355 z M 291.345,219.922 L 291.735,219.311 C 291.41,218.113 289.817,218.847 289.997,217.739 C 290.794,217.422 291.419,218.514 292.419,218.294 L 293.34,219.18 C 292.639,219.293 292.058,220.41 291.345,219.922 z M 295.731,60.407 L 294.912,59.619 C 295.609,59.304 295.58,57.798 296.801,58.577 L 297.114,59.173 C 296.822,59.683 296.022,59.899 295.731,60.407 z M 300.973,76.578 C 299.861,76.198 299.746,75.497 299.425,74.499 C 300.118,73.983 300.803,73.065 301.715,73.449 C 302.532,74.137 301.351,75.365 302.271,76.151 C 302.188,77.057 301.467,76.167 300.973,76.578 z M 366.738,207.183 C 366.546,207.588 366.038,207.296 365.835,207.201 C 365.413,206.205 366.207,205.687 366.492,204.877 C 366.172,203.879 366.347,202.67 365.33,201.987 L 364.854,203.302 C 363.832,202.417 364.906,200.89 364.787,199.888 L 362.667,194.304 L 362.053,193.713 C 362.752,193.498 363.832,192.272 364.957,193.253 C 365.379,194.25 366.602,195.13 365.925,196.449 C 365.936,197.052 366.852,197.636 366.258,198.05 C 364.426,196.881 365.397,195.154 363.864,193.878 C 363.463,193.886 363.356,193.587 363.149,193.29 C 363.897,195.585 365.46,198.367 365.713,201.074 C 366.437,202.065 366.759,203.163 367.185,204.36 C 367.306,205.363 366.317,206.187 366.738,207.183 z M 379.128,224.117 L 375.68,222.477 C 374.268,222.204 372.537,221.032 370.956,222.369 C 371.448,221.857 372.531,220.731 373.347,221.318 C 375.259,221.481 376.464,221.457 377.892,222.534 C 378.791,222.315 379.314,223.309 379.725,223.805 L 379.128,224.117 z M 424.145,219.612 L 424.075,221.12 C 422.482,221.855 423.748,219.821 422.145,220.054 C 421.343,220.17 420.626,219.482 420.311,218.784 C 420.803,218.272 421.031,219.573 421.735,219.66 L 423.439,219.426 L 423.523,218.62 L 423.315,218.224 C 423.256,218.159 423.211,218.093 423.21,218.024 L 423.315,218.224 C 423.598,218.54 424.379,218.858 424.145,219.612 z M 431.771,229.407 L 431.368,229.314 C 430.26,229.135 429.084,230.665 428.363,229.776 L 431.252,228.513 L 431.147,228.213 C 429.934,227.835 428.697,226.252 427.716,227.477 L 427.58,225.672 L 429.1,226.345 C 429.297,226.14 428.781,225.448 429.388,225.636 L 429.187,225.64 C 429.993,225.725 430.423,227.223 431.436,227.605 L 432.161,228.696 C 432.27,229.171 432.176,229.499 431.771,229.407 z M 459.219,311.944 L 460.604,310.812 C 461.711,310.992 462.844,312.375 463.069,313.577 C 462.99,314.683 461.904,315.609 462.327,316.706 C 461.532,317.123 460.423,316.944 459.706,316.255 C 459,316.068 459.474,314.652 458.481,315.276 C 456.352,314.311 458.939,313.055 459.219,311.944 z M 465.167,104.279 C 463.932,102.797 464.499,100.977 463.063,99.499 L 463.155,99.095 C 463.864,99.382 464.288,100.479 464.705,101.275 L 465.261,103.976 L 465.167,104.279 z M 468.547,102.505 C 466.933,102.135 466.102,100.745 465.273,99.455 C 465.357,98.65 464.944,98.055 465.234,97.447 C 466.145,97.831 465.366,99.052 465.98,99.642 C 466.21,101.144 467.919,101.211 468.643,102.202 L 468.547,102.505 z "
   style="fill:#000000"
   id="path2315" />
		</g>
	</svg>