<?xml version="1.0" encoding="UTF-8" standalone="no"?>
<svg
   xmlns:dc="http://purl.org/dc/elements/1.1/"
   xmlns:cc="http://creativecommons.org/ns#"
   xmlns:rdf="http://www.w3.org/1999/02/22-rdf-syntax-ns#"
   xmlns:svg="http://www.w3.org/2000/svg"
   xmlns="http://www.w3.org/2000/svg"
   xmlns:xlink="http://www.w3.org/1999/xlink"
   xmlns:sodipodi="http://sodipodi.sourceforge.net/DTD/sodipodi-0.dtd"
   xmlns:inkscape="http://www.inkscape.org/namespaces/inkscape"
   width="180"
   height="100"
   preserveAspectRatio="xMidYMid meet"
   zoomAndPan="magnify"
   version="1.0"
   contentScriptType="text/ecmascript"
   contentStyleType="text/css"
   id="svg2"
   inkscape:version="0.48.1 r9760"
   sodipodi:docname="india.svg">
  <metadata
     id="metadata71">
    <rdf:RDF>
      <cc:Work
         rdf:about="">
        <dc:format>image/svg+xml</dc:format>
        <dc:type
           rdf:resource="http://purl.org/dc/dcmitype/StillImage" />
        <dc:title>INDIA</dc:title>
      </cc:Work>
    </rdf:RDF>
  </metadata>
  <defs
     id="defs69">
    <defs
       id="defs14">
      <path
         d="m -0.01,-0.2 0,-0.2 -0.09,-0.5 0.05,0 a 0.05,0.05 0 0 0 0.1,0 l 0.05,0 -0.09,0.5 0,0.2 z"
         id="spoke"
         inkscape:connector-curvature="0"
         style="fill:#ffffff" />
    </defs>
  </defs>
  <sodipodi:namedview
     pagecolor="#ffffff"
     bordercolor="#666666"
     borderopacity="1"
     objecttolerance="10"
     gridtolerance="10"
     guidetolerance="10"
     inkscape:pageopacity="0"
     inkscape:pageshadow="2"
     inkscape:window-width="1280"
     inkscape:window-height="776"
     id="namedview67"
     showgrid="false"
     inkscape:zoom="3.5843373"
     inkscape:cx="90"
     inkscape:cy="28.159664"
     inkscape:window-x="0"
     inkscape:window-y="24"
     inkscape:window-maximized="1"
     inkscape:current-layer="svg2" />
  <title
     content="structured text"
     id="title4">INDIA</title>
  <rect
     width="180"
     height="33.321007"
     id="rect6"
     x="0"
     y="0.67899323"
     style="fill:#fcd116" />
  <rect
     y="33.678993"
     width="180"
     height="33.321007"
     id="rect8"
     x="0"
     style="fill:#ffffff" />
  <rect
     y="65.842018"
     width="180"
     height="34.157982"
     id="rect10"
     x="0"
     style="fill:#007a5e" />
  <circle
     id="circle17"
     r="15"
     cy="50"
     cx="90"
     sodipodi:cx="90"
     sodipodi:cy="50"
     sodipodi:rx="15"
     sodipodi:ry="15"
     style="fill:#000080" />
  <use
     id="use19"
     xlink:actuate="onLoad"
     xlink:show="embed"
     xlink:type="simple"
     transform="matrix(14.871673,1.9578929,-1.9578929,14.871673,90,50)"
     xlink:href="#spoke"
     x="0"
     y="0"
     width="180"
     height="100" />
  <use
     id="use21"
     xlink:actuate="onLoad"
     xlink:show="embed"
     xlink:type="simple"
     transform="matrix(13.858193,5.7402515,-5.7402515,13.858193,90,50)"
     xlink:href="#spoke"
     x="0"
     y="0"
     width="180"
     height="100" />
  <use
     id="use23"
     xlink:actuate="onLoad"
     xlink:show="embed"
     xlink:type="simple"
     transform="matrix(11.9003,9.1314214,-9.1314214,11.9003,90,50)"
     xlink:href="#spoke"
     x="0"
     y="0"
     width="180"
     height="100" />
  <use
     id="use25"
     xlink:actuate="onLoad"
     xlink:show="embed"
     xlink:type="simple"
     transform="matrix(9.1314214,11.9003,-11.9003,9.1314214,90,50)"
     xlink:href="#spoke"
     x="0"
     y="0"
     width="180"
     height="100" />
  <use
     id="use27"
     xlink:actuate="onLoad"
     xlink:show="embed"
     xlink:type="simple"
     transform="matrix(5.7402515,13.858193,-13.858193,5.7402515,90,50)"
     xlink:href="#spoke"
     x="0"
     y="0"
     width="180"
     height="100" />
  <use
     id="use29"
     xlink:actuate="onLoad"
     xlink:show="embed"
     xlink:type="simple"
     transform="matrix(1.9578929,14.871673,-14.871673,1.9578929,90,50)"
     xlink:href="#spoke"
     x="0"
     y="0"
     width="180"
     height="100" />
  <use
     id="use31"
     xlink:actuate="onLoad"
     xlink:show="embed"
     xlink:type="simple"
     transform="matrix(-1.9578929,14.871673,-14.871673,-1.9578929,90,50)"
     xlink:href="#spoke"
     x="0"
     y="0"
     width="180"
     height="100" />
  <use
     id="use33"
     xlink:actuate="onLoad"
     xlink:show="embed"
     xlink:type="simple"
     transform="matrix(-5.7402515,13.858193,-13.858193,-5.7402515,90,50)"
     xlink:href="#spoke"
     x="0"
     y="0"
     width="180"
     height="100" />
  <use
     id="use35"
     xlink:actuate="onLoad"
     xlink:show="embed"
     xlink:type="simple"
     transform="matrix(-9.1314214,11.9003,-11.9003,-9.1314214,90,50)"
     xlink:href="#spoke"
     x="0"
     y="0"
     width="180"
     height="100" />
  <use
     id="use37"
     xlink:actuate="onLoad"
     xlink:show="embed"
     xlink:type="simple"
     transform="matrix(-11.9003,9.1314214,-9.1314214,-11.9003,90,50)"
     xlink:href="#spoke"
     x="0"
     y="0"
     width="180"
     height="100" />
  <use
     id="use39"
     xlink:actuate="onLoad"
     xlink:show="embed"
     xlink:type="simple"
     transform="matrix(-13.858193,5.7402515,-5.7402515,-13.858193,90,50)"
     xlink:href="#spoke"
     x="0"
     y="0"
     width="180"
     height="100" />
  <use
     id="use41"
     xlink:actuate="onLoad"
     xlink:show="embed"
     xlink:type="simple"
     transform="matrix(-14.871673,1.9578929,-1.9578929,-14.871673,90,50)"
     xlink:href="#spoke"
     x="0"
     y="0"
     width="180"
     height="100" />
  <use
     id="use43"
     xlink:actuate="onLoad"
     xlink:show="embed"
     xlink:type="simple"
     transform="matrix(-14.871673,-1.9578929,1.9578929,-14.871673,90,50)"
     xlink:href="#spoke"
     x="0"
     y="0"
     width="180"
     height="100" />
  <use
     id="use45"
     xlink:actuate="onLoad"
     xlink:show="embed"
     xlink:type="simple"
     transform="matrix(-13.858193,-5.7402515,5.7402515,-13.858193,90,50)"
     xlink:href="#spoke"
     x="0"
     y="0"
     width="180"
     height="100" />
  <use
     id="use47"
     xlink:actuate="onLoad"
     xlink:show="embed"
     xlink:type="simple"
     transform="matrix(-11.9003,-9.1314214,9.1314214,-11.9003,90,50)"
     xlink:href="#spoke"
     x="0"
     y="0"
     width="180"
     height="100" />
  <use
     id="use49"
     xlink:actuate="onLoad"
     xlink:show="embed"
     xlink:type="simple"
     transform="matrix(-9.1314214,-11.9003,11.9003,-9.1314214,90,50)"
     xlink:href="#spoke"
     x="0"
     y="0"
     width="180"
     height="100" />
  <use
     id="use51"
     xlink:actuate="onLoad"
     xlink:show="embed"
     xlink:type="simple"
     transform="matrix(-5.7402515,-13.858193,13.858193,-5.7402515,90,50)"
     xlink:href="#spoke"
     x="0"
     y="0"
     width="180"
     height="100" />
  <use
     id="use53"
     xlink:actuate="onLoad"
     xlink:show="embed"
     xlink:type="simple"
     transform="matrix(-1.9578929,-14.871673,14.871673,-1.9578929,90,50)"
     xlink:href="#spoke"
     x="0"
     y="0"
     width="180"
     height="100" />
  <use
     id="use55"
     xlink:actuate="onLoad"
     xlink:show="embed"
     xlink:type="simple"
     transform="matrix(1.9578929,-14.871673,14.871673,1.9578929,90,50)"
     xlink:href="#spoke"
     x="0"
     y="0"
     width="180"
     height="100" />
  <use
     id="use57"
     xlink:actuate="onLoad"
     xlink:show="embed"
     xlink:type="simple"
     transform="matrix(5.7402515,-13.858193,13.858193,5.7402515,90,50)"
     xlink:href="#spoke"
     x="0"
     y="0"
     width="180"
     height="100" />
  <use
     id="use59"
     xlink:actuate="onLoad"
     xlink:show="embed"
     xlink:type="simple"
     transform="matrix(9.1314214,-11.9003,11.9003,9.1314214,90,50)"
     xlink:href="#spoke"
     x="0"
     y="0"
     width="180"
     height="100" />
  <use
     id="use61"
     xlink:actuate="onLoad"
     xlink:show="embed"
     xlink:type="simple"
     transform="matrix(11.9003,-9.1314214,9.1314214,11.9003,90,50)"
     xlink:href="#spoke"
     x="0"
     y="0"
     width="180"
     height="100" />
  <use
     id="use63"
     xlink:actuate="onLoad"
     xlink:show="embed"
     xlink:type="simple"
     transform="matrix(13.858193,-5.7402515,5.7402515,13.858193,90,50)"
     xlink:href="#spoke"
     x="0"
     y="0"
     width="180"
     height="100" />
  <use
     id="use65"
     xlink:actuate="onLoad"
     xlink:show="embed"
     xlink:type="simple"
     transform="matrix(14.871673,-1.9578929,1.9578929,14.871673,90,50)"
     xlink:href="#spoke"
     x="0"
     y="0"
     width="180"
     height="100" />
</svg>
