<?xml version="1.0" encoding="UTF-8" standalone="no"?>
<!-- Created with Inkscape (http://www.inkscape.org/) -->
<svg
   xmlns:svg="http://www.w3.org/2000/svg"
   xmlns="http://www.w3.org/2000/svg"
   version="1.0"
   width="267.638"
   height="386.66501"
   viewBox="0 0 267.638 386.665"
   id="svg2208"
   xml:space="preserve"><defs
   id="defs2216" />
	
		<g
   id="Layer_1">
			<path
   d="M 95.026,181.452 C 95.488,181.513 95.622,181.686 95.92,181.805 C 96.88,181.07 97.636,180.385 98.848,179.526 C 99.057,178.534 99.609,178.215 99.824,177.773 C 100.075,178.099 100.311,178.836 99.279,179.974 C 99.72,180.19 98.951,181.42 100,181.794 C 100.196,182.682 98.507,183.008 98.221,183.99 C 99.295,187.738 100.633,182.347 102.407,183.758 C 102.878,182.566 105.831,182.171 105.254,180.606 C 105.041,179.99 104.253,178.724 104.284,177.753 C 104.115,176.065 103.712,175.795 103.832,174.145 C 103.651,173.729 102.932,173.243 102.104,172.977 C 101.329,173.501 100.487,173.94 99.856,174.562 C 94.815,174.132 96.866,178.794 95.026,181.452 z M 205.809,359.116 C 205.762,358.845 205.76,358.627 205.796,358.448 L 204.457,358.439 C 204.37,358.505 203.713,358.732 203.056,358.96 C 201.988,358.74 201.561,358.998 200.687,358.49 L 197.037,360.233 C 196.806,360.203 196.802,360.83 196.895,361.312 C 199.207,361.618 200.028,364.312 202.462,364.869 C 205.699,365.296 204.404,361.44 206.874,361.14 C 206.495,360.461 206.518,359.681 205.809,359.116 z M 200.592,11.978 L 201.364,11.874 C 201.758,10.281 201.828,8.317 203.252,7.489 C 203.335,6.86 203.37,6.267 203.72,5.632 L 203.598,4.869 C 203.088,4.566 203.355,3.739 202.641,3.802 C 200.298,3.729 201.771,5.648 201.474,6.706 C 200.606,6.749 199.425,7.377 199.612,8.342 C 199.949,9.482 200.285,10.621 200.592,11.978 z M 205.68,6.319 C 206.569,6.123 206.691,5.198 206.135,4.654 C 205.821,4.064 206.699,3.945 207.201,3.698 C 206.583,2.44 209.565,0.638 206.513,0 C 205.45,0.331 204.749,1.492 204.858,2.448 C 204.679,3.208 204.424,3.959 204.214,4.95 C 204.278,5.664 204.936,6.614 205.68,6.319 z M 191.422,21.689 C 193.533,21.732 194.347,26.857 196.644,23.71 C 196.772,23.335 196.833,22.872 196.992,22.266 C 200.032,21.805 197.104,25.574 198.513,26.779 C 197.966,29.138 197.508,31.429 196.971,33.711 C 197.28,33.752 198.436,33.904 198.741,34.572 C 199.603,33.98 199.108,32.973 199.297,32.136 C 201.521,31.331 199.688,28.58 200.414,26.638 C 200.962,25.455 202.658,25.679 203.118,24.564 C 202.952,23.444 201.755,23.6 201.025,23.19 C 200.051,21.65 201.819,21.335 202.732,20.357 C 202.736,19.731 202.74,19.104 202.764,18.323 C 203.428,18.645 203.91,18.552 204.48,18.393 C 204.706,17.873 205.871,16.773 204.724,16.543 C 204.242,16.636 203.836,16.739 203.343,16.909 C 202.062,15.329 202.683,14.783 202.161,13.382 C 201.72,13.167 201.277,12.952 200.85,13.209 C 200.65,12.947 200.311,13.138 199.674,13.211 C 198.945,13.977 198.674,14.255 198.403,14.532 L 198.333,12.093 C 198.525,10.628 198.384,8.728 197.511,8.221 C 196.052,8.577 195.859,10.042 195.244,11.137 C 194.848,11.163 193.707,10.307 193.323,11.432 C 192.538,12.035 193.568,13.739 194.795,13.352 C 194.413,15.654 200.075,16.714 196.328,18.964 C 194.608,19.522 192.676,18.718 191.411,17.61 C 189.687,18.795 192.761,20.454 191.422,21.689 z M 175.59,60.294 C 174.263,59.648 173.645,61.37 173.476,62.054 C 174.283,62.474 174.674,63.075 175.517,63.813 C 178.558,63.352 175.051,61.398 175.59,60.294 z M 170.254,72.214 C 169.986,71.865 169.719,71.516 169.297,71.148 C 168.49,70.728 167.269,71.665 167.64,72.419 C 167.964,72.933 168.06,73.543 168.482,73.912 C 168.383,74.291 168.234,75.868 168.769,75.155 C 168.733,74.837 168.706,74.441 168.778,73.901 C 168.946,73.217 170.076,72.975 170.254,72.214 z M 160.986,71.148 C 160.29,72.86 162.625,74.186 164.421,73.64 C 165.862,71.634 163.603,70.778 163.297,68.934 L 161.698,67.978 C 160.662,68.705 160.099,68.365 159.746,69.259 C 158.956,70.489 160.185,71.278 160.986,71.148 z M 162.112,67.445 L 163.608,68.436 C 165.237,68.573 166.558,66.944 167.999,67.917 C 168.524,68.692 168.972,69.456 169.45,69.989 C 170.791,69.931 172.705,69.086 173.13,67.652 C 173.497,66.053 171.772,66.061 170.946,66.972 C 169.774,66.347 168.524,65.711 167.286,64.999 C 168.004,64.31 167.602,63.787 168.32,63.097 C 167.504,62.754 166.069,62.33 165.769,61.035 C 164.021,60.021 162.086,61.02 161.076,62.141 C 161.889,63.111 161.419,64.303 161.075,65.12 C 161.261,66.088 161.72,66.845 162.112,67.445 z M 170.18,53.151 C 170.179,53.155 170.178,53.162 170.178,53.167 C 170.369,53.174 170.412,53.182 170.18,53.151 z M 169.45,55.721 C 169.041,56.451 169.992,56.969 170.132,57.693 C 170.362,57.724 170.594,57.754 170.701,57.533 L 171.024,56.87 C 170.612,56.424 170.2,55.977 169.634,55.511 C 169.993,54.553 170.136,53.492 170.178,53.168 C 169.415,53.14 166.184,53.126 167.734,55.652 C 168.284,55.646 168.746,55.707 169.45,55.721 z M 127.002,343.128 C 127.37,342.707 127.258,342.378 127.385,342.003 C 126.763,341.372 126.695,340.108 125.708,340.449 C 124.595,341.165 126.123,343.248 126.807,343.416 L 127.002,343.128 z M 128.137,239.39 C 129.817,239.141 130.008,240.656 131.128,240.49 C 131.987,238.721 134.303,237.224 135.914,235.712 C 134.93,234.249 137.481,233.331 137.895,231.975 C 135.557,231.275 136.967,229.5 136.786,227.908 C 135.778,227.226 134.357,229.077 133.068,228.751 C 132.566,230.175 131.907,232.205 130.516,233.825 C 128.764,233.437 128.275,235.959 128.739,237.197 C 128.078,238.051 128.075,239.853 127.018,240.733 C 127.201,243.294 128.086,239.774 128.137,239.39 z M 13.188,247.753 C 12.911,247.482 13.674,247.033 13.536,246.309 C 12.477,246.013 10.735,245.548 10.213,247.125 C 9.708,249.176 11.563,246.99 13.188,247.753 z M 17.639,243.126 C 18.712,243.17 19.116,242.341 18.987,241.833 C 18.066,241.085 18.198,241.278 17.842,240.996 C 17.174,241.3 16.816,241.644 16.379,241.979 C 16.499,242.407 16.252,242.61 16.18,242.99 C 16.362,244.582 17.17,242.966 17.639,243.126 z M 14.985,244.322 C 15.07,244.279 15.498,244.091 15.834,243.887 C 15.799,243.706 15.803,243.56 15.827,243.433 C 15.577,243.107 13.595,243.843 14.985,244.322 z M 14.993,244.325 C 14.99,244.324 14.989,244.323 14.986,244.322 C 14.962,244.333 14.958,244.337 14.993,244.325 z M 86.378,384.815 C 86.22,385.42 84.962,386.04 86.135,386.665 C 86.801,386.36 88.153,386.225 88.188,385.367 C 87.699,384.911 86.825,384.403 86.378,384.815 z M 108.618,133.966 C 109.286,133.661 109.954,133.358 110.621,133.054 L 112.259,130.827 C 112.154,130.439 112.261,129.995 112.542,129.778 C 112.134,127.529 110.06,128.981 108.792,129.676 C 108.347,131.265 105.875,133.369 108.618,133.966 z M 121.113,181.168 C 120.421,181.076 119.649,180.975 118.899,180.719 L 117.646,184.866 C 119.877,185.787 119.012,188.182 119.405,189.959 C 120.451,192.136 123.137,191.392 124.384,190.852 C 124.317,189.587 123.704,188.879 124.519,188.046 C 122.004,186.303 124.633,182.416 121.113,181.168 z M 131.09,262.478 C 130.968,263.403 130.846,264.328 130.462,265.454 C 130.551,266.562 130.413,267.016 130.717,267.683 L 130.831,268.38 C 131.791,268.772 132.77,269.313 133.378,270.699 C 134.117,271.032 134.935,271.375 135.541,271.533 C 136.838,269.499 138.812,268.583 139.749,268.168 C 139.819,267.629 139.938,267.468 140.153,267.025 L 140.299,267.045 C 140.903,266.027 140.991,265.509 140.099,266.332 L 139.929,266.506 C 138.429,267.171 138.003,265.351 137.16,264.612 C 137.471,259.869 133.352,263.167 131.09,262.478 z M 127.565,264.836 C 127.459,267.461 128.929,267.71 130.446,268.328 L 130.333,267.631 C 130.029,266.964 130.167,266.512 130.077,265.402 C 129.646,265.109 128.463,264.562 127.565,264.836 z M 112.468,166.013 C 112.464,166.022 112.461,166.035 112.457,166.044 C 112.525,166.064 112.544,166.064 112.468,166.013 z M 112.03,168.149 C 112.139,167.319 112.251,166.492 112.457,166.044 C 112.267,165.989 111.674,165.776 111.523,166.045 C 109.825,167.624 107.659,168.593 106.959,170.932 C 106.22,171.775 105.472,172.696 104.472,173.74 C 104.618,175.013 104.875,175.44 105.122,175.943 L 105.282,176.512 C 106.685,177.168 107.827,175.045 109.136,174.041 C 109.959,171.954 110.064,169.381 112.03,168.149 z M 113.632,157.257 C 113.713,156.641 112.061,156.021 111.818,154.891 C 110.596,151.672 108.636,153.453 107.221,151.698 C 105.611,150.231 106.764,148.031 104.914,147.787 L 104.318,147.546 C 103.574,147.943 102.064,147.705 101.38,148.419 C 101.14,149.642 99.302,150.497 100.583,152.078 C 101.918,151.47 103.378,152.29 104.181,153.337 C 103.751,154.221 103.106,155.547 103.179,156.184 C 102.876,156.591 102.542,156.996 102.257,157.405 L 102.425,157.663 C 103.883,157.306 104.384,157.304 104.886,157.057 C 105.811,157.179 105.439,159.404 104.103,158.835 C 104.267,158.778 103.276,157.824 102.223,158.077 L 101.826,158.123 C 100.063,157.812 99.441,157.181 98.209,158.195 C 96.806,160.518 99.906,159.594 100.33,161.139 C 103.929,159.419 106.66,158.916 110.058,159.913 C 111.912,159.226 111.528,157.166 112.637,157.676 L 113.632,157.257 z M 103.161,167.177 C 103.387,166.657 103.612,166.138 103.585,165.742 C 100.763,163.959 100.839,168.732 101.423,169.064 C 102.053,168.441 102.01,167.574 103.161,167.177 z M 101.714,132.957 C 97.531,133.064 101.11,135.353 102.771,136.515 L 103.096,136.746 C 103.502,136.643 103.1,136.119 103.506,136.016 C 104.229,134.7 103.364,132.939 101.714,132.957 z M 104.104,137.428 L 103.975,137.872 C 103.683,138.939 103.711,139.512 104.58,139.765 C 105.596,139.194 106.643,138.391 106.523,137.512 C 106.286,136.932 105.864,136.563 105.15,136.625 C 104.725,136.883 104.299,137.141 104.104,137.428 z M 106.348,90.681 C 105.651,91.216 105.129,92.793 106.593,92.987 C 108.571,92.856 108.399,91.186 108.91,89.686 C 107.979,89.014 107.186,90.869 106.348,90.681 z M 99.288,145.418 C 99.302,144.714 98.47,145.074 98.028,144.859 C 96.864,145.961 95.776,147.071 95.192,147.935 C 94.802,148.511 94.993,148.849 95.871,148.73 C 96.579,148.118 99.336,148.012 99.288,145.418 z M 106.979,121.577 C 104.675,120.018 107.341,116.45 107.049,113.902 C 105.737,112.552 105.225,109.898 103.504,109.279 C 99.35,110.457 103.372,114.436 100.832,116.454 C 100.189,115.977 99.459,115.567 98.951,115.266 C 98.656,114.521 98.584,113.884 98.424,113.315 C 97.868,112.77 97.104,113.219 97.012,113.912 C 97.229,114.646 97.455,115.304 97.744,115.499 C 97.417,116.126 97.133,116.428 97.041,116.681 L 97.012,116.892 C 97.151,117.617 96.904,118.897 96.537,117.516 L 96.567,116.725 C 96.076,116.522 95.746,116.333 95.443,116.294 C 95.214,117.439 93.236,117.57 93.382,118.845 C 95.914,119.257 95.075,122.047 97.363,123.133 C 98.483,122.967 97.929,120.62 99.548,120.833 C 100.857,122.809 98.485,124.143 100.717,126.241 C 103.808,125.394 100.72,128.594 103.177,128.996 C 104.363,128.917 106.115,129.305 106.195,127.513 C 104.209,124.74 107.907,124.052 106.979,121.577 z M 89.899,153.589 C 89.825,151.775 93.958,150.527 92.852,150.215 C 92.514,150.404 92.12,150.275 91.375,150.569 C 90.393,150.283 88.885,149.379 88.004,151.3 C 87.97,152.157 87.927,154.27 89.899,153.589 z M 79.257,137.366 C 79.461,135.824 80.911,133.742 82.903,132.907 C 82.857,132.666 82.81,132.425 82.661,131.777 C 81.563,129.986 79.96,132.048 78.87,131.983 C 78.344,134.188 76.867,135.874 79.257,137.366 z M 83.608,115.673 C 82.628,116.563 81.92,117.175 82.934,118.406 C 81.102,119.811 82.93,123.188 81.125,124.989 C 82.041,126.364 81.303,127.208 81.541,128.965 C 82.127,129.278 82.78,129.677 83.577,130.174 C 86.308,129.671 84.687,127.106 84.977,125.497 C 85.073,124.177 87.609,122.786 85.341,121.546 C 84.337,120.237 86.021,119.362 86.89,119.319 C 86.632,115.915 88.915,113.47 89.928,110.548 C 88.745,109.999 87.404,108.882 87.935,107.227 C 86.271,106.773 86.428,109.145 85.181,109.686 C 83.87,109.513 82.488,108.704 81.226,109.949 C 79.08,113.742 85.098,112.105 83.608,115.673 z M 88.739,104.117 C 89.378,105.221 90.618,107.109 91.503,107.54 C 92.753,105.195 96.257,105.972 96.921,103.315 C 96.298,102.683 98.757,101.283 99.784,101.81 C 103.113,101.543 100.473,98.372 103.627,98.24 C 103.548,97.053 103.756,94.886 102.04,94.816 C 102.044,94.189 102.799,93.819 103.271,93.802 C 102.768,91.07 106.737,88.927 107.946,86.891 C 107.842,86.486 107.257,86.173 107.009,85.67 C 109.621,84.289 106.906,82.285 106.744,80.539 C 106.493,80.662 106.375,80.96 106.077,80.843 C 104.703,82.936 101.89,84.054 100.547,85.915 C 100.244,86.424 100.192,85.634 99.776,85.814 C 98.709,86.771 94.728,86.637 95.558,89.255 C 93.964,88.262 94.201,91.82 92.507,89.794 C 90.228,90.435 90.335,93.192 89.843,94.539 C 90.091,95.042 90.415,95.555 90.73,96.145 C 91.418,96.863 91.158,97.064 90.099,96.767 L 89.775,96.711 C 89.461,96.759 89.158,96.794 88.861,97.231 C 89.63,99.136 91.587,99.159 92.933,99.651 C 94.347,100.229 93.825,101.806 92.417,101.778 C 92.229,99.636 89.874,101.442 89.227,101.592 C 89.397,102.084 89.48,102.645 90.081,102.254 C 92.893,102.94 89.606,104.075 88.739,104.117 z M 18.545,265.395 C 20.789,265.613 22.262,267.533 24.164,268.567 C 24.462,268.685 24.59,268.309 24.62,268.079 C 23.691,265.604 20.928,265.162 19.153,263.751 C 18.342,263.957 17.846,264.754 18.545,265.395 z M 22.676,260.646 L 22.121,259.751 C 21.971,259.633 21.752,259.507 21.326,259.764 C 20.597,260.531 20.342,261.282 20.836,262.286 C 22.321,262.921 22.221,261.491 22.676,260.646 z M 101.76,193.846 C 100.199,193.053 98.718,194.621 99.085,195.552 C 101.094,194.445 101.177,194.553 100.936,196.383 C 101.922,198.572 103.323,194.641 101.76,193.846 z M 266.959,286.628 C 264.058,283.657 260.482,280.442 256.278,279.025 C 254.582,277.625 251.759,279.998 250.087,277.816 C 246.913,278.103 243.54,279.305 240.404,278.108 C 239.138,279.979 240.207,283.178 237.701,284.337 C 234.474,286.812 234.439,280.535 230.578,281.28 C 230.895,277.089 235.153,276.317 237.019,274.054 C 235.389,269.761 235.579,265.944 232.599,261.788 C 230.275,260.384 227.756,259.267 225.637,257.498 C 225.565,256.861 224.669,255.92 224.345,255.406 L 224.248,255.393 C 222.906,254.276 223.217,253.258 222.445,253.157 C 221.736,252.593 220.88,253.734 220.576,253.067 C 219.878,253.602 219.586,254.034 219.304,254.388 C 218.221,254.872 217.607,252.989 216.755,253.504 C 216.241,253.828 215.806,254.162 215.303,254.409 C 214.27,254.509 214.115,253.311 214.591,252.669 C 217.115,254.335 218.139,251.333 220.576,253.066 C 221.079,252.819 221.813,252.601 222.548,252.384 C 222.748,252.646 224.138,253.555 225.276,255.037 L 225.755,255.413 C 227.963,255.69 229.846,254.598 231.866,256.044 C 230.955,251.063 225.042,247.147 224.044,242.232 C 224.166,241.307 223.537,240.127 224.41,239.457 C 225.211,239.328 226.474,239.259 226.144,238.196 C 221.011,237.285 219.55,232.308 217.679,228.063 C 215.333,225.636 211.795,222.74 209.509,222.831 C 207.668,221.333 205.558,222.467 203.137,221.207 C 203.178,220.898 203.219,220.59 203.259,220.281 C 198.616,213.867 198.252,206.527 195.422,200.039 C 194.068,197.821 196.11,196.601 194.304,194.245 C 195.899,192.261 193.871,189.799 193.658,187.261 C 192.178,186.595 189.987,185.365 190.201,183.747 C 187.495,184.644 187.712,181.224 186.148,179.998 C 184.065,178.547 184.902,174.581 181.209,174.642 C 180.471,175.487 179.941,175.337 179.124,174.996 C 178.6,171.241 174.125,174.258 173.708,170.283 C 171.921,170.753 168.297,169.098 168.584,172.272 C 166.583,173.184 164.347,175.87 162.662,172.588 C 161.676,172.929 161.219,172.241 160.048,172.792 C 159.374,172.547 158.701,172.302 158.059,171.824 L 157.455,171.94 C 155.883,171.969 155.531,171.961 154.499,172.061 C 153.738,171.882 152.382,171.467 152.811,170.583 C 152.893,169.966 153.837,169.935 154.398,169.852 C 155.237,171.216 156.121,170.314 157.627,171.375 L 158.012,171.426 C 158.376,170.454 159.969,171.606 160.131,170.372 C 164.094,171.836 162.819,164.847 167.253,165.117 C 169.399,167.281 171.294,163.611 173.502,163.511 C 173.995,163.34 173.902,162.858 174.04,162.406 C 172.868,161.781 172.12,159.722 170.169,160.249 C 169.946,158.966 169.724,157.682 169.501,156.398 L 169.304,155.96 C 168.482,156.244 169.023,155.864 168.941,156.481 C 167.329,156.816 165.734,157.762 164.538,157.919 C 163.486,158.466 160.395,160.49 160.939,158.602 C 161.955,158.03 163.098,157.984 164.531,157.233 C 164.443,157.299 165.084,155.855 165.274,156.194 C 167.552,154.534 166.541,154.616 169.997,155.171 C 170.536,155.241 170.707,154.989 170.83,155.241 C 172.728,153.924 175.924,153.482 176.675,150.759 C 177.696,149.56 175.234,148.609 177.091,147.599 C 176.246,145.684 178.48,144.803 179.604,144.01 C 180.726,142.041 183.466,140.285 182.307,137.781 C 184.117,135.354 185.334,132.064 184.817,128.859 C 185.93,125.165 189.524,122.894 190.782,119.296 C 190.866,116.876 188.88,114.106 186.807,112.578 C 182.945,113.322 178.936,111.618 174.976,112.508 C 172.34,111.69 168.61,111.433 165.464,113.292 C 164.149,112.569 161.723,111.936 160.487,110.597 C 156.341,109.345 158.168,115.701 154.163,113.37 C 152.666,115.21 150.124,116.052 147.862,115.361 C 147.238,116.533 145.416,117.861 144.56,119.003 C 144.107,118.864 143.57,119.225 142.995,118.836 C 140.592,119.392 140.707,118.935 141.251,118.427 C 141.369,118.433 142.082,118.379 143.167,118.271 C 142.5,115.596 146.436,115.488 147.002,112.975 C 146.298,112.959 145.507,113.013 144.439,112.793 C 141.979,113.017 141.057,115.248 139.501,115.749 C 139.715,114.13 141.253,111.98 143.301,111.31 C 143.358,111.475 143.491,111.649 144.329,111.838 C 145.443,111.121 147.591,108.504 148.556,111.297 C 150.003,109.842 151.244,108.75 151.97,106.808 C 149.92,106.303 149.024,107.752 146.758,107.689 C 145.041,106.443 147.15,105.31 148.311,104.835 C 146.51,103.029 149.841,100.96 151.309,100.526 C 151.518,99.534 152.79,98.213 153.993,98.606 C 155.9,96.036 159.355,94.216 160.82,91.43 C 163.604,91.719 163.827,88.848 165.253,87.545 C 166.115,86.953 168.601,82.969 165.335,83.949 C 164.788,82.152 167.221,80.356 167.151,79.093 C 167.525,78.045 166.014,77.611 165.352,78.463 C 163.916,76.862 162.164,79.454 160.923,77.566 C 158.591,77.416 161.449,79.517 160.018,80.27 C 157.479,79.307 155.392,78.483 152.375,81.144 C 150.171,80.618 148.506,80.163 146.165,81.265 C 145.311,80.604 144.158,82.804 143.35,81.207 C 142.653,81.742 141.94,82.394 141.252,82.852 L 141.143,82.936 C 140.492,83.712 140.508,83.734 140.313,84.022 C 139.601,84.222 140.35,83.371 140.892,82.608 C 140.346,81.988 141.095,81.067 140.596,80.688 C 138.975,78.741 138.153,80.831 137.42,81.583 L 136.854,82.763 C 136.793,83 136.889,83.08 136.731,83.688 C 135.87,84.497 135.129,83.942 136.294,83.288 L 136.52,81.468 C 136.35,81.195 136.169,80.751 135.973,80.08 C 133.416,81.624 133.245,76.976 130.334,78.238 C 130.214,80.339 126.186,82.944 130.252,84.813 C 130.852,87.401 128.217,84.78 127.72,85.577 C 127.213,86.451 125.787,87.753 127.437,88.912 C 129.547,91.934 126.007,90.84 124.42,91.572 C 123.798,90.941 123.428,90.185 122.468,90.922 C 121.778,93.184 125,94.314 124.716,96.472 C 124.078,99.524 122.629,95.648 121.582,96.451 C 120.89,97.535 122.182,99.038 121.278,99.938 C 121.773,100.945 122.507,100.728 123.252,100.434 C 123.947,101.702 126.716,101.517 125.151,103.271 C 123.723,103.397 120.749,102.77 120.149,104.337 C 119.685,103.1 118.677,102.417 117.651,103.066 C 117.462,103.904 117.197,104.731 116.591,105.749 C 116.076,104.897 114.626,104 113.586,105.353 C 113.973,106.58 112.303,109.731 115.718,109.397 C 117.144,111.075 114.765,110.683 113.959,111.439 C 112.395,113.193 115.184,112.855 115.442,114.458 C 116.163,114.944 116.872,115.509 117.659,116.083 C 116.388,118.581 114.442,115.502 113.27,114.877 C 110.956,116.375 113.765,120.038 112.833,122.347 C 113.748,122.546 114.662,122.745 115.607,122.713 C 115.475,123.714 114.901,124.501 114.234,124.805 C 114.142,125.499 114.677,126.197 115.371,126.288 C 115.651,127.736 116.24,128.912 117.029,130.662 L 119.04,132.358 C 118.517,132.758 118.162,132.477 117.756,132.58 C 117.488,132.232 117.287,131.971 116.723,131.504 L 116.542,131.382 C 114.743,130.753 113.926,131.9 112.81,131.439 C 112.761,131.358 112.385,131.616 112.36,131.524 L 112.207,131.712 C 112.754,132.764 113.565,134.047 115.671,134.423 C 117.778,134.799 116.861,135.363 116.676,136.026 C 116.522,136.005 116.28,136.052 115.412,136.094 C 113.993,134.966 113.03,134.094 111.61,132.966 L 111.062,133.404 C 111.33,133.753 111.597,134.101 111.865,134.451 C 111.24,135.623 110.796,137.211 110.067,137.977 C 110.434,138.32 110.655,138.642 110.782,138.96 C 111.386,138.844 114.319,140.224 110.897,140.165 C 110.829,140.732 110.653,141.337 110.627,142.049 C 110.559,142.26 110.475,142.442 110.377,142.6 C 111.969,142.417 111.991,144.534 109.818,143.169 C 108.31,144.131 105.473,142.75 103.818,143.738 C 103.259,144.837 104.343,145.425 104.984,145.971 L 106.283,146.072 C 106.848,146.176 107.558,146.584 108.013,146.408 C 109.57,147.085 107.962,146.795 107.82,147.873 C 107.756,148.963 107.625,151.141 109.408,151.297 C 110.762,150.534 111.4,152.834 112.328,152.486 L 112.732,152.653 C 112.9,152.497 113.124,152.395 113.42,152.375 C 115.763,149.47 119.516,147.77 121.762,145.008 C 122.224,145.069 122.687,145.129 123.046,144.784 C 123.476,143.9 124.138,143.047 124.722,142.182 C 126.088,141.48 123.934,144.362 123.431,144.834 C 123.628,145.723 123.171,146.212 123.47,146.329 L 123.783,146.175 C 124.112,146.062 124.471,146.305 124.451,146.459 C 124.375,146.449 123.988,146.779 123.787,146.519 L 123.45,146.474 C 121.33,147.684 120.787,149.425 119.417,150.891 C 119.553,152.243 117.592,152.846 118.672,154.165 C 116.999,154.963 116.118,156.886 115.513,157.903 L 114.853,158.757 C 114.388,160.498 113.989,162.327 113.632,163.849 C 114.151,164.074 114.597,163.662 114.814,164.397 C 114.822,166.124 116.022,168.32 114.539,169.457 C 111.055,171.507 113.424,176.132 113.217,178.3 C 113.572,178.582 114.014,178.797 114.456,179.012 C 110.643,182.352 111.671,185.859 110.547,189.631 C 109.404,191.753 109.385,193.084 108.839,195.443 C 110.541,196.216 112.26,195.659 114.406,194.844 C 114.317,193.735 115.415,192.546 113.898,191.562 C 115.293,189.316 115.463,186.829 117.129,184.304 L 116.807,183.772 C 116.837,183.019 116.872,180.391 118.055,180.927 L 118.381,180.157 C 119.69,179.153 118.783,177.701 119.845,176.194 L 119.389,176.127 C 119.24,176.124 118.894,175.62 118.817,175.667 C 118.537,174.219 117.51,174.867 118.035,174.466 C 117.843,172.95 117.82,171.929 117.731,170.82 C 118.666,170.865 120.134,169.392 119.963,168.899 L 120.876,167.628 C 122.194,166.547 124.163,164.846 125.321,163.195 C 125.21,164.044 124.79,164.85 124.447,165.667 C 123.4,166.471 122.353,167.273 121.306,168.076 C 121.199,168.297 120.317,169.044 120.574,169.47 C 120.2,170.518 119.807,171.721 119.336,172.912 C 118.993,174.475 119.417,177.059 120.485,174.456 C 123.36,172.424 123.955,177.128 125.849,176.437 C 126.45,176.045 126.433,175.279 126.946,174.955 L 127.119,174.391 C 127.515,171.384 127.89,169.886 127.973,167.466 L 128.197,165.77 C 128.331,165.946 128.387,166.109 128.614,166.766 C 129.004,166.191 129.08,165.613 129.968,165.416 C 130.008,165.107 130.862,165.181 131.396,164.702 C 133.122,164.244 132.813,165.399 130.016,167.284 C 129.9,168.759 130.153,168.772 130.067,170.015 C 130.496,170.934 130.418,170.777 131.251,171.964 C 131.028,171.646 131.939,172.477 132.025,172.409 C 132.92,172.763 133.237,173.333 133.966,173.743 C 134.166,174.456 133.84,175.001 131.346,173.103 C 130.534,173.31 129.748,173.03 128.705,173.206 C 128.295,173.936 128.854,173.853 128.308,175.036 L 128.315,175.723 C 128.462,178.173 129.321,179.247 127.89,181.175 C 127.146,185.624 133.786,183.443 132.584,188.38 C 133.357,189.658 132.234,191.627 130.704,191.347 C 128.238,195.177 128.563,199.847 124.494,202.76 C 124.204,204.368 123.279,207.069 123.707,208.439 C 123.227,210.139 122.212,205.498 121.039,207.557 C 121.602,209.828 121.199,213.185 123.919,215.15 L 124.471,216.615 C 123.887,217.479 124.425,218.746 125.869,219.094 C 128.821,218.699 124.194,215.737 125.168,214.296 C 125.558,213.721 125.593,212.862 126.203,212.395 C 127.163,211.659 128.971,211.035 129.132,212.782 C 132.297,213.748 133.458,217.428 136.285,218.586 C 137.849,216.833 137.278,215.071 136.967,212.678 L 136.478,211.928 C 136.596,211.629 136.82,208.963 137.063,210.093 C 137.155,210.508 137.231,211.713 137.396,211.656 L 137.55,211.97 C 141.771,210.88 140.782,216.591 143.703,215.251 C 143.939,214.654 144.251,214.069 144.487,213.473 C 145.237,213.729 145.588,214.637 146.445,214.672 C 149.595,215.166 148.432,210.308 152.025,212.193 C 155.658,212.593 152.483,208.724 154.839,208.094 C 156.755,208.426 158.599,208.423 160.715,209.016 L 161.656,208.945 C 162.665,208.848 163.224,209.089 163.709,208.942 C 163.599,208.512 163.755,207.948 163.92,207.358 C 164.024,206.989 164.238,206.221 164.138,206.047 L 163.925,205.728 L 164.178,205.44 C 164.664,204.884 165.332,204.993 165.82,205.072 C 166.057,205.111 166.266,205.13 166.424,205.096 C 167.086,203.556 168.422,202.931 169.616,202.387 C 170.82,201.838 171.954,201.308 172.469,199.916 C 171.71,198.146 173.108,197.073 174.244,196.206 C 174.728,195.837 175.184,195.489 175.484,195.112 L 175.721,194.813 L 176.073,194.963 C 177.371,195.52 177.949,194.745 178.785,193.436 C 179.067,192.993 179.335,192.575 179.655,192.247 L 179.679,192.222 L 179.707,192.201 C 180.11,191.891 180.637,191.878 181.102,191.867 C 181.722,191.852 181.862,191.802 181.902,191.675 C 180.905,189.837 179.593,187.369 179.364,184.861 L 179.307,184.238 L 179.927,184.32 C 180.381,184.38 180.601,184.252 180.726,184.152 L 180.776,184.112 L 180.805,184.099 C 181.535,181.997 183.532,180.001 185.465,179.447 L 185.74,180.408 C 184.12,180.873 182.375,182.631 181.752,184.422 L 181.739,184.515 L 181.702,184.789 L 181.45,184.904 L 181.26,184.99 C 181.019,185.161 180.743,185.265 180.438,185.306 C 180.784,187.5 181.967,189.703 182.859,191.344 L 182.928,191.471 L 182.918,191.616 C 182.835,192.825 181.723,192.852 181.126,192.866 C 180.828,192.873 180.496,192.884 180.341,192.982 C 180.103,193.234 179.871,193.591 179.627,193.974 C 178.905,195.105 177.929,196.628 176.002,196.001 C 175.657,196.359 175.259,196.689 174.85,197.001 C 173.579,197.971 172.887,198.573 173.454,199.678 L 173.549,199.861 L 173.486,200.057 C 172.87,202.002 171.361,202.69 170.029,203.297 C 168.795,203.86 167.728,204.346 167.253,205.682 L 167.19,205.858 L 167.027,205.95 C 166.569,206.208 166.063,206.126 165.658,206.06 C 165.411,206.019 165.253,206.002 165.138,206.011 C 165.193,206.491 165.038,207.065 164.881,207.628 C 164.786,207.966 164.627,208.532 164.672,208.688 C 164.669,208.679 164.656,208.65 164.625,208.622 L 164.354,208.913 C 164.472,208.864 164.587,208.834 164.689,208.903 C 164.804,210.408 162.865,209.055 161.658,209.288 L 161.03,209.598 C 160.671,209.943 159.998,210.579 160.021,211.601 C 157.062,211.446 157.04,214.58 156.544,216.553 C 152.761,218.485 154.991,222.386 152.591,225.127 C 153.632,227.93 158.496,230.296 156.302,233.849 C 156.991,234.567 157.604,235.275 158.314,235.839 C 158.093,235.732 159.557,235.924 160.085,234.896 C 161.694,236.363 159.652,237.584 159.393,238.961 C 159.589,239.849 160.954,241.989 161.589,240.74 C 162.866,239.967 163.577,234.573 165.817,237.219 C 166.397,236.982 167.044,236.832 167.614,236.672 C 168.281,236.368 168.356,235.202 168.916,235.119 C 169.36,235.472 169.487,235.841 168.166,236.94 C 168.517,237.849 169.06,238.195 169.323,239.17 C 169.552,241.004 167.769,240.847 166.619,241.244 C 166.574,242.18 165.878,243.89 167.281,244.546 C 166.733,245.729 164.723,244.914 163.569,245.939 C 163.824,248.168 162.47,250.106 163.691,252.149 C 164.672,252.435 165.567,252.789 166.569,252.92 C 165.317,254.088 164.374,255.297 163.286,256.408 C 162.61,257.965 161.762,260.833 163.681,262.34 C 163.195,264.236 160.728,262.735 160.115,265.006 C 160.717,265.791 161.242,266.567 162.137,268.096 C 161.783,267.814 161.711,268.353 162.056,268.712 C 159.611,268.233 158.371,267.521 156.782,265.899 C 153.932,266.7 149.945,268.997 146.875,266.71 C 146.233,267.409 145.947,268.391 144.69,269.01 C 143.271,269.057 141.766,269.173 140.195,269.201 C 138.861,269.808 137.787,270.216 136.72,271.173 C 136.603,271.472 136.485,271.769 135.988,272.567 C 138.614,280.597 126.131,277.598 126.953,284.449 C 126.068,285.215 124.39,285.601 126.304,285.952 C 126.586,285.598 127.296,285.711 127.84,285.155 C 129.926,281.823 132.361,289.965 132.219,283.909 C 132.97,281.185 136.279,281.073 138.379,281.193 C 141.333,281.974 138.943,284.639 140.389,286.162 C 142.539,287.701 140.95,290.235 139.688,291.48 C 139.613,292.646 141.244,293.959 141.246,295.135 C 139.632,298.45 139.746,302.935 137.058,305.481 C 132.899,303.13 131.852,311.068 127.148,308.094 C 126.567,311.311 122.879,311.922 120.482,312.861 C 120.282,312.599 120.081,312.339 119.803,312.066 C 117.479,310.662 118.105,313.646 117.484,314.191 C 115.992,315.406 113.207,315.117 112.942,317.12 C 114.865,318.002 118.351,317.128 117.606,320.401 C 117.012,321.342 115.823,320.244 115.024,321.55 C 114.146,321.669 113.355,321.722 112.717,321.794 C 112.261,322.283 114.143,323.472 114.8,323.245 C 116.516,323.314 118.317,325.12 118.237,326.913 C 121.415,328.978 122.452,325.273 125.371,325.737 C 126.12,324.816 125.625,323.809 126.559,322.678 C 128.14,322.573 129.287,322.803 130.797,323.238 C 132.009,323.554 131.601,321.305 133.065,321.498 C 134.15,322.189 133.673,322.833 133.156,323.784 C 133.795,324.888 134.982,325.984 136.143,325.511 C 136.637,326.517 135.102,326.864 134.903,327.778 C 135.768,329.54 137.172,330.194 138.896,329.01 C 141.307,330.347 142.273,327.182 144.964,326.989 C 147.848,328.309 145.611,333.973 149.749,332.323 C 150.942,336.951 154.602,334.767 157.932,335.677 C 160.217,335.586 161.32,333.772 162.242,331.54 C 165.552,330.878 167.521,328.451 170.517,328.112 L 169.744,327.838 L 169.928,327.323 L 169.892,327.279 L 169.901,327.089 C 169.901,327.089 169.915,326.785 169.922,326.621 C 169.918,326.605 169.915,326.594 169.911,326.577 C 169.608,325.35 169.722,324.473 170.199,323.917 C 169.821,322.654 170.015,321.571 170.269,320.734 L 170.237,320.628 C 169.956,320.263 169.546,319.923 169.108,319.565 C 168.459,319.035 167.75,318.427 167.275,317.594 C 164.934,318.157 162.807,316.915 161.658,314.237 L 161.559,314.005 L 161.686,313.787 C 162.088,313.1 161.739,312.246 161.333,311.257 C 161.096,310.675 160.849,310.072 160.75,309.457 L 160.717,309.254 L 160.836,309.086 C 161.036,308.807 161.214,308.32 161.403,307.806 C 161.841,306.609 162.387,305.156 163.725,304.583 C 163.718,304.244 163.771,303.867 163.83,303.473 C 163.912,302.932 164.036,302.114 163.811,301.915 C 163.758,301.869 163.525,301.735 162.734,301.961 L 162.36,302.066 L 162.165,301.73 C 161.855,301.198 161.217,300.751 160.654,300.357 C 159.87,299.809 159.13,299.292 159.157,298.497 C 159.179,297.878 159.661,297.317 160.708,296.689 C 161.146,296.408 161.657,296.264 162.152,296.125 C 163.126,295.852 163.731,295.645 163.899,294.908 C 163.91,294.829 163.91,294.785 163.91,294.743 C 163.836,294.75 163.751,294.761 163.68,294.772 C 163.303,294.83 162.786,294.908 162.337,294.604 L 162.183,294.5 L 162.134,294.319 C 161.873,293.342 162.342,292.151 162.837,290.89 C 163.346,289.596 163.871,288.258 163.42,287.493 C 163.161,287.054 162.54,286.765 161.575,286.639 L 161.223,286.592 L 161.151,286.245 C 160.788,284.506 160.623,282.69 161.866,281.198 L 162.042,280.987 L 162.315,281.022 C 162.962,281.108 163.667,280.929 164.413,280.741 C 165.868,280.373 167.505,279.984 168.928,281.594 C 169.337,281.491 169.719,281.238 169.997,280.855 C 170.303,280.435 170.434,279.944 170.35,279.553 C 170.271,279.224 169.651,279.163 168.847,279.117 C 168.419,279.093 167.976,279.067 167.608,278.961 L 167.196,278.841 L 167.252,278.415 C 167.424,277.116 166.046,275.1 164.694,273.776 L 164.124,273.217 L 164.875,272.947 C 165.221,272.823 165.635,272.614 165.64,272.324 C 165.651,271.651 164.216,270.589 163.603,270.345 L 163.604,270.345 C 162.792,270.215 161.577,269.175 161.564,269.16 L 162.334,268.522 C 162.489,268.673 163.293,269.187 163.658,269.35 L 163.709,269.311 L 163.971,269.415 C 164.543,269.641 166.662,270.947 166.64,272.34 C 166.635,272.705 166.479,273.176 165.879,273.565 C 167.059,274.849 168.183,276.583 168.248,278.061 C 168.449,278.086 168.668,278.104 168.905,278.118 C 169.868,278.172 171.065,278.24 171.327,279.329 C 171.473,280.007 171.278,280.797 170.807,281.442 C 170.31,282.124 169.58,282.559 168.805,282.636 L 168.528,282.664 L 168.359,282.443 C 167.287,281.045 166.128,281.338 164.66,281.709 C 163.957,281.887 163.232,282.057 162.502,282.026 C 161.788,283.023 161.791,284.236 162.071,285.717 C 163.158,285.921 163.898,286.328 164.284,286.983 C 164.982,288.169 164.366,289.737 163.769,291.254 C 163.4,292.193 163.044,293.143 163.089,293.809 C 163.222,293.817 163.375,293.805 163.529,293.782 C 163.883,293.728 164.325,293.661 164.646,293.976 C 164.953,294.276 164.933,294.726 164.883,295.082 C 164.567,296.483 163.378,296.817 162.423,297.086 C 161.98,297.211 161.561,297.329 161.235,297.537 C 160.246,298.131 160.16,298.447 160.157,298.529 C 160.148,298.782 160.746,299.2 161.226,299.536 C 161.777,299.921 162.378,300.358 162.808,300.923 C 163.548,300.769 164.103,300.838 164.472,301.163 C 165.106,301.722 164.953,302.73 164.818,303.62 C 164.753,304.055 164.678,304.547 164.743,304.777 L 164.882,305.27 L 164.385,305.396 C 163.243,305.687 162.764,306.995 162.341,308.148 C 162.163,308.632 161.991,309.088 161.778,309.455 C 161.877,309.914 162.063,310.4 162.257,310.876 C 162.663,311.869 163.109,312.984 162.668,314.025 C 163.69,316.237 165.43,317.186 167.367,316.55 L 167.801,316.407 L 167.983,316.825 C 168.338,317.643 169.05,318.225 169.739,318.788 C 170.25,319.206 170.733,319.601 171.091,320.091 L 171.142,320.161 L 171.166,320.243 L 171.269,320.589 L 171.313,320.737 L 171.266,320.883 C 170.897,322.036 170.885,322.928 171.226,323.864 L 171.358,324.226 L 171.042,324.446 C 170.798,324.615 170.572,325.081 170.881,326.334 C 170.913,326.466 170.931,326.538 170.921,326.601 L 170.906,326.923 L 171.067,327.094 L 170.964,327.383 L 170.711,328.095 C 170.86,328.082 171.01,328.07 171.165,328.069 C 173.581,323.286 175.353,321.535 176.142,321.242 C 176.566,321.084 176.54,321.535 176.547,321.741 C 175.496,323.171 174.866,324.97 173.133,326.231 C 172.988,326.133 172.221,326.895 172.433,327.079 C 172.311,328.004 172.136,328.138 171.68,328.627 L 171.533,328.999 C 170.996,330.104 171.213,330.683 170.757,331.171 C 167.372,331.274 167.229,335.332 164.373,335.583 C 163.831,337.314 164.31,342.004 161.233,342.146 C 158.628,341.096 154.57,345.11 152.659,341.172 C 150.152,341.155 146.926,340.651 144.671,340.511 C 142.364,340.755 139.088,341.813 137.028,341.385 C 133.143,344.086 139.559,347.756 133.561,349.239 C 131.918,349.806 129.956,346.255 128.377,348.712 C 126.748,351.555 130.013,357.71 124.833,359.536 C 122.707,360.196 123.083,364.479 119.881,363.195 C 115.018,363.807 119.137,370.624 113.967,369.393 C 113.388,373.786 109.197,374.644 106.52,377.114 C 106.252,376.765 105.985,376.416 105.717,376.067 C 104.029,374.59 102.887,376.713 101.265,377.127 C 100.749,379.254 100.453,380.313 100.856,382.013 C 101.956,382 102.545,381.687 103.711,381.762 C 105.17,381.406 104.797,379.475 106.256,379.117 C 107.69,379.542 108.831,380.398 110.167,380.967 C 110.611,382.359 110.676,384.249 111.895,385.115 C 112.639,384.82 113.541,383.921 114.477,383.966 C 116.077,382.53 114.708,381.017 114.913,379.476 C 116.684,378.533 118.826,375.366 121.334,376.559 C 123.126,375.462 120.235,373.591 122.818,372.442 C 125.395,374.9 128.278,372.065 131.071,371.1 C 132.938,370.013 134.149,372.133 135.086,373.354 C 135.676,373.041 136.267,372.726 136.724,372.238 C 137.51,372.812 137.12,373.387 137.455,373.824 C 138.899,374.171 140.379,374.837 141.712,373.053 C 142.288,373.443 142.746,374.13 142.413,374.87 C 142.427,377.145 144.517,377.343 146.203,377.644 C 148.514,376.772 148.753,375.549 149.161,373.642 C 149.956,372.963 151.102,373.193 151.743,372.493 C 152.321,371.08 150.925,370.974 150.419,370.046 C 152.282,368.409 150.711,365.458 153.38,364.242 C 153.482,363.471 153.594,362.624 153.542,361.833 C 156.58,364.351 159.233,358.506 162.698,360.767 C 164.626,358.041 168.148,360.466 170.27,360.432 C 171.243,361.972 172.467,363.388 174.342,364.027 C 174.713,364.782 175.152,365.624 175.408,366.05 C 177.422,366.237 175.925,363.922 177.108,362.667 C 179.299,363.896 182.477,362.982 184.587,364.829 C 185.484,364.555 186.383,364.281 187.333,363.623 C 187.729,363.597 186.808,362.848 187.495,362.39 C 187.329,361.985 187.121,361.613 186.971,361.126 L 186.723,361.112 C 185.948,361.636 185.229,361.15 184.843,361.099 C 184.355,360.642 184.564,359.65 185.297,359.433 C 185.662,359.638 185.84,359.192 186.621,360.392 L 187.026,360.299 C 190.757,358.752 193.975,359.549 196.868,359.616 L 197.128,359.504 C 197.765,359.431 198.369,358.412 198.714,358.773 C 199.141,358.515 199.75,358.046 200.736,357.707 L 200.845,357.623 C 200.956,356.775 201.304,356.37 201.801,355.573 C 202.92,355.407 204.068,357.41 204.448,358.088 L 205.836,358.105 C 206.145,356.601 209.162,358.113 210.094,356.902 C 211.055,357.342 212.073,357.948 212.879,358.368 C 219.425,355.703 227.472,353.55 234.483,357.454 C 238.648,360.355 239.49,352.782 243.751,354.363 C 245.969,353.009 249.164,349.589 252.664,350.991 C 252.975,349.228 253.464,346.705 255.369,345.937 C 257.679,345.066 259.695,343.45 261.995,342.656 C 264.596,340.176 259.044,337.092 262.816,335.237 C 263.678,334.645 262.065,333.805 261.679,333.755 C 258.999,335.048 255.386,333.317 252.554,335.766 C 251.387,335.691 249.877,335.256 249.065,335.463 C 248.483,335.011 247.936,334.565 247.411,334.046 L 246.516,334.577 C 245.956,334.66 244.046,334.879 244.564,333.929 C 244.743,333.168 245.581,333.357 246.69,333.268 C 246.586,332.863 247.444,332.897 247.217,332.24 C 245.968,331.605 244.708,331.047 243.408,330.798 C 242.053,331.56 241.015,332.285 240.031,332.626 C 239.587,331.234 241.24,330.59 241.911,329.659 C 242.22,329.699 242.528,329.74 243.376,329.852 L 243.603,330.013 C 243.939,329.45 244.592,329.405 244.648,328.53 C 246.361,326.247 247.696,329.794 249.24,328.194 C 250.714,327.134 252.358,324.764 251.313,322.587 C 250.727,322.274 250.232,322.758 249.625,322.6 C 248.887,322.994 246.146,324.003 247.352,322.301 C 247.931,322.064 248.424,321.894 249.535,321.805 C 249.703,321.12 250.273,320.961 250.266,320.411 C 251.556,316.582 253.519,321.31 255.783,320.198 C 257.453,320.025 257.137,318.26 258.338,317.476 C 257.417,316.727 258.545,315.308 257.799,314.426 L 257.139,313.564 L 256.874,313.559 C 256.473,316.014 254.698,315.643 253.106,315.826 L 252.88,315.306 C 254.302,314.631 253.865,314.965 255.186,315.061 C 255.596,314.331 255.976,313.832 256.355,313.333 C 256.791,312.998 255.777,312.668 255.71,311.974 C 256.051,311.627 256.181,311.527 257.307,312.656 C 257.423,313.26 258.015,313.616 258.015,313.616 C 258.552,313.367 259.668,313.548 260.206,313.41 C 261.097,311.411 263.03,309.235 265.146,308.652 C 265.574,306.591 265.586,304.711 265.368,302.801 C 268.819,296.909 267.436,293.12 266.959,286.628 z M 99.43,262.653 C 97.143,261.568 98.043,259.491 99.5,257.959 C 99.391,257.003 99.064,255.314 97.549,255.507 C 96.169,252.894 95.133,250.641 96.785,248.819 C 94.816,247.697 98.173,246.023 95.711,245.07 C 93.101,244.648 94.32,242.535 94.966,241.209 C 96.615,241.191 97.381,241.92 98.819,241.717 C 99.075,240.967 99.149,240.262 98.999,239.614 C 98.684,239.087 98.647,238.741 98.715,238.557 L 98.415,239.161 L 97.339,238.627 L 97.196,238.556 L 97.12,238.415 C 96.867,237.943 96.602,237.67 96.331,237.606 C 95.856,237.492 95.171,237.97 94.509,238.432 C 93.555,239.097 92.385,239.895 91.169,239.385 C 90.133,240.028 89.418,239.745 89.072,239.495 C 88.073,238.772 87.881,236.858 88.192,235.909 L 88.247,235.74 L 88.397,235.644 C 88.829,235.367 88.923,234.954 88.869,234.66 C 88.821,234.4 88.659,234.212 88.436,234.131 C 87.405,234.455 86.663,234.169 86.217,233.853 C 85.02,233.005 84.618,231.145 84.639,230.103 L 84.64,230.062 L 84.647,230.023 C 84.853,228.9 83.434,226.904 82.029,225.862 C 81.513,226.295 80.939,226.666 80.363,227.007 C 79.488,227.525 78.662,228.014 78.255,228.711 C 78.129,228.91 78.407,229.27 78.783,229.719 C 79.184,230.198 79.638,230.741 79.434,231.341 L 79.337,231.626 L 79.04,231.673 C 77.689,231.888 77.415,232.604 77.067,233.511 C 76.757,234.319 76.406,235.235 75.244,235.676 C 74.112,236.133 73.085,235.661 72.179,235.245 C 71.254,234.82 70.658,234.578 70.086,234.943 L 69.634,235.232 L 69.377,234.762 C 68.414,232.997 66.356,231.748 63.874,231.42 L 63.33,231.348 L 63.453,230.813 C 63.981,228.501 62.691,227.607 61.058,226.475 C 59.648,225.498 58.051,224.39 57.786,222.162 L 57.74,221.772 L 58.108,221.634 C 58.85,221.356 59.563,220.807 60.252,220.276 C 61.609,219.23 63.134,218.062 64.757,219.401 C 65.118,219.009 65.549,218.711 65.944,218.442 C 66.699,217.927 67.144,217.553 67.203,216.905 C 67.143,216.89 67.086,216.876 67.021,216.86 C 65.84,216.574 63.865,216.095 63.718,214.624 L 63.711,214.555 L 63.723,214.487 C 63.941,213.263 64.312,212.565 64.891,212.291 C 65.613,211.95 66.364,212.371 67.091,212.778 C 67.694,213.116 68.317,213.465 68.793,213.314 C 69.111,213.213 69.409,212.877 69.679,212.315 L 69.877,211.902 L 70.306,212.064 C 70.898,212.287 71.102,212.219 71.151,212.193 C 71.296,212.114 71.381,211.73 71.457,211.39 C 71.57,210.883 71.698,210.308 72.103,209.846 L 72.167,209.773 L 72.254,209.73 C 73.467,209.118 73.684,208.224 73.959,207.091 C 74.045,206.736 74.134,206.369 74.26,206 L 74.283,206.008 C 74.396,205.438 74.774,204.287 75.614,202.161 C 76.503,201.964 77.227,202.413 78.69,201.43 C 79.161,200.238 80.098,199.969 80.944,198.905 C 82.254,199.078 83.628,196.985 85.042,197.564 L 85.065,197.333 C 85.178,196.738 85.401,196.115 84.977,195.674 C 81.354,195.196 80.802,189.869 77.346,190.512 C 77.526,190.928 76.813,190.991 77.244,191.283 C 77.461,192.017 77.668,192.829 78.028,193.661 C 77.216,193.867 76.593,193.236 75.87,193.376 C 74.858,193.321 73.395,194.304 74.014,195.562 C 73.615,196.215 73.577,197.092 73.378,198.007 C 73.604,198.527 76.024,201.728 73.719,202.11 C 73.154,201.937 73.281,200.974 72.038,202.965 C 71.391,204.154 69.918,206.41 71.523,202.407 C 71.793,201.855 70.892,201.247 71.919,200.891 C 72.489,200.281 74.023,199.797 72.307,198.689 C 72.153,198.374 72.343,197.673 72.343,197.673 C 71.546,197.177 71.612,197.126 71.025,196.814 C 71.936,192.711 71.314,194.838 69.841,196.036 C 69.882,197.219 70.411,197.458 69.848,198.757 C 69.644,199.563 69.874,201.161 69.563,199.062 L 69.462,198.707 C 69.205,198.428 69.208,198.036 68.999,197.764 C 68.581,197.219 68.829,196.696 68.829,196.696 C 68.405,196.751 67.657,196.624 67.172,196.308 C 67.048,196.056 67.108,197.985 66.738,198.407 C 63.445,192.759 61.589,200.59 58.219,197.009 C 57.43,198.238 57.369,199.877 56.369,200.921 C 55.595,201.446 54.601,200.062 54.68,201.247 C 49.596,201.753 55.345,202.746 54.477,205.768 C 54.395,206.384 54.314,207.001 54.233,207.618 C 53.529,207.604 52.825,207.59 52.333,207.76 C 53.828,211.877 50.028,209.181 48.452,209.835 C 48.028,211.27 44.505,211.824 46.603,213.747 C 48.14,214.577 50.258,216.347 52.05,215.25 C 52.287,215.83 52.524,216.41 52.781,216.836 C 54.972,215.086 56.885,216.044 59.164,215.404 C 60,217.395 55.603,218.619 55.474,220.797 C 52.909,219.441 51.681,222.806 49.02,222.769 C 48.63,223.346 48.241,223.921 48.036,224.287 C 47.516,224.061 48.746,224.851 49.45,224.865 C 50.731,226.445 48.338,226.757 48.675,228.369 C 46.846,224.992 43.612,229.897 42.578,225.841 C 40.47,223.994 38.512,226.951 37.333,228.756 C 35.923,227.551 36.296,225.326 34.917,223.89 C 33.489,224.015 32.144,224.701 30.639,224.816 C 28.662,221.968 26.165,224.853 24.071,222.303 C 23.234,222.115 22.259,223.554 22.497,224.133 C 22.004,224.304 21.588,224.485 20.911,224.865 C 20.238,224.619 20.939,223.458 19.794,223.227 C 15.848,222.237 18.617,226.208 16.473,228.2 C 15.575,228.473 16.312,230.61 17.385,230.202 C 17.022,228.194 19.045,227.128 20.507,226.144 C 20.35,227.927 18.992,230.493 21.137,231.481 C 20.862,232.136 20.586,232.793 20.186,233.472 L 20.436,233.819 C 21.27,234.634 20.92,234.902 21.208,235.097 C 21.09,235.395 20.885,235.76 20.681,236.125 C 19.68,236.179 19.548,234.876 19.562,234.724 L 19.354,233.543 C 18.103,232.738 16.564,233.082 15.625,233.439 L 15.406,233.606 C 14.615,233.659 14.236,233.864 14.38,233.96 C 13.848,234.283 12.983,235.639 15.51,234.306 C 16.014,234.059 16.893,234.528 17.418,235.302 C 17.238,236.063 16.607,236.685 17.374,237.413 C 18.905,237.693 20.312,240.702 21.768,237.993 C 22.929,238.694 25.409,237.139 26.756,238.806 C 23.443,239.546 28.071,242.508 24.907,242.718 C 22.957,240.266 20.81,244.06 19.693,242.422 C 19.201,243.769 19.045,245.552 19.062,247.2 C 17.853,249.236 15.671,246.754 15.253,248.737 C 14.703,248.742 14.153,248.749 13.605,248.755 C 10.982,250.212 16.06,252.137 13.045,252.993 C 11.357,254.496 14.548,254.681 15.21,255.004 C 16.767,258.659 17.13,253.532 19.216,254.356 C 21.001,255.689 17.679,256.505 18.005,258.196 C 18.284,259.643 20.265,258.885 21.663,258.992 L 21.938,258.088 C 22.415,257.444 22.717,256.936 23.596,256.817 C 24.787,257.288 24.209,258.702 23.635,259.488 L 23.565,260.027 C 25.106,260.231 24.774,262.147 25.504,262.557 C 27.8,262.389 30.587,260.875 32.588,262.943 C 33.861,262.797 35.136,262.651 36.641,262.536 C 36.57,263.076 36.653,263.636 36.896,264.765 C 37.715,266.285 35.32,265.419 34.385,265.374 C 33.674,267.789 31.508,265.779 30.148,265.992 C 30.12,267.398 27.967,267.664 27.881,268.907 C 27.267,270.002 26.729,271.107 26.113,272.202 C 30.681,272.647 24.843,274.701 25.37,276.651 C 23.978,277.095 23.857,278.02 23.442,279.377 C 20.81,277.933 20.57,282.135 18.074,282.041 C 17.664,282.77 16.732,282.844 16.379,283.738 C 16.152,284.313 15.211,284.039 15.061,284.593 C 15.122,284.763 15.329,284.746 15.442,284.75 C 17.94,284.845 19.923,282.284 22.596,283.421 C 23.393,283.917 24.067,283.124 24.751,284.469 L 25.037,284.527 C 26.434,284.633 26.871,284.298 27.353,284.206 C 28.093,284.538 28.92,284.805 29.691,284.905 L 30.546,284.372 C 31.191,283.046 32.379,282.359 33.255,281.063 C 33.943,280.605 33.936,278.879 35.329,279.611 C 34.516,282.798 39.011,281.567 39.799,283.318 C 40.821,283.296 41.443,283.789 41.663,283.897 C 40.091,283.925 37.883,284.026 35.664,284.203 C 33.97,285.156 32.323,286.35 30.867,284.904 C 29.696,285.455 28.767,285.96 27.829,286.542 C 26.884,286.574 26.272,286.297 25.138,285.99 L 24.835,286.049 C 23.64,286.205 22.769,286.267 22.048,285.78 C 20.069,284.734 18.531,286.884 19.109,288.45 C 17.836,288.596 15.901,289.596 14.242,289.689 C 12.769,290.75 14.047,289.977 14.691,291.63 C 13.342,292.942 16.544,297.205 12.423,296.349 C 11.265,295.021 9.255,294.206 7.839,295.431 C 7.37,294.821 8.355,293.304 7.117,293.768 C 5.701,294.993 3.034,294.405 2.698,296.949 C 0.786,295.991 -0.021,298.551 -0.003,300.2 C 1.882,300.762 2.317,299.251 4.1,299.408 C 6.758,301.248 9.946,298.336 12.525,299.734 C 12.591,299.77 12.673,299.588 12.791,299.583 C 13.348,299.433 13.861,299.83 14.416,299.896 C 14.447,300.102 14.742,300.107 14.75,300.333 C 14.955,300.485 14.747,300.664 14.783,300.827 C 14.064,301.058 13.648,300.708 12.927,300.778 C 12.945,300.877 12.505,300.809 12.537,300.765 C 11.963,301.552 11.249,301.684 10.818,302.568 C 8.076,303.148 5.63,302.669 3.338,305.189 C 2.234,305.827 -1.082,307.193 0.575,308.901 C 0.976,309.424 1.455,309.958 1.887,310.251 C 2.432,310.871 3.504,309.287 4.7,309.132 C 7.437,309.179 4.262,311.27 5.238,312.182 C 5.949,312.746 6.976,313.274 7.782,312.518 C 9.22,312.316 10.658,312.113 12.22,312.163 L 12.549,312.049 C 13.323,311.525 13.478,311.545 13.555,311.555 C 14.9,310.87 16.429,309.974 18.186,309.736 C 17.759,310.366 15.122,311.713 12.458,312.588 C 10.633,314.542 8.881,315.487 6.986,316.179 C 6.693,316.61 6.507,316.841 5.624,317.587 C 5.728,317.992 5.176,317.125 4.853,317.788 C 4.787,317.925 4.6,317.914 4.475,317.871 L 4.235,317.941 C 3.593,319.091 4.419,318.407 4.989,318.247 C 6.544,318.069 7.731,320.104 9.702,318.409 L 9.811,318.28 C 9.858,318.224 9.932,318.187 9.933,318.1 C 10.143,318.024 10.299,317.94 10.465,317.778 C 10.535,317.801 10.601,317.791 10.664,317.756 C 11.293,318.009 11.961,317.653 12.361,317.147 C 12.463,317.195 12.513,317.039 12.615,317.083 C 12.93,317.002 13.227,317.152 13.537,317.155 C 13.698,317.096 13.863,317.083 14.031,317.122 C 14.245,317.015 14.495,316.935 14.736,316.971 C 15.662,316.664 16.506,316.16 17.431,315.856 C 17.935,315.802 18.472,315.476 18.969,315.716 C 18.96,315.78 18.952,315.844 18.944,315.909 C 18.518,316.142 18.138,316.468 17.673,316.623 C 17.375,316.812 17.122,317.056 16.772,317.142 C 16.541,317.38 16.219,317.481 15.925,317.619 C 15.904,317.648 15.884,317.679 15.864,317.708 C 15.647,317.776 15.471,317.936 15.241,317.97 C 15.223,318.074 15.155,318.062 15.084,318.047 C 15.012,318.103 14.938,318.158 14.866,318.214 C 14.834,318.21 14.802,318.206 14.769,318.201 C 14.416,318.401 14.043,318.561 13.711,318.797 C 13.662,318.79 13.613,318.784 13.566,318.777 C 13.496,318.861 13.401,318.855 13.305,318.89 C 13.312,318.939 13.281,318.961 13.244,318.98 C 13.212,318.976 13.18,318.972 13.147,318.967 C 13.116,319.076 13.002,319.08 12.929,319.135 C 12.924,319.166 12.92,319.198 12.916,319.231 C 12.799,319.291 12.746,319.42 12.637,319.489 C 12.582,319.673 12.485,319.836 12.375,319.993 C 12.366,320.056 12.357,320.122 12.35,320.185 C 12.426,320.266 12.513,320.323 12.625,320.32 C 12.822,320.23 13.018,320.138 13.235,320.155 C 13.271,320.128 13.307,320.1 13.343,320.072 C 13.409,320.064 13.476,320.056 13.542,320.049 C 13.844,319.863 14.2,319.828 14.521,319.689 C 14.558,319.669 14.589,319.647 14.582,319.598 C 14.67,319.587 14.746,319.535 14.836,319.535 C 14.852,319.404 15.051,319.513 15.055,319.367 C 15.309,319.359 15.526,319.219 15.767,319.167 C 15.931,319.133 16.093,319.156 16.255,319.183 C 16.251,319.273 16.352,319.283 16.38,319.346 C 16.363,319.475 16.346,319.604 16.329,319.732 C 16.131,320.024 16.029,320.378 15.726,320.584 C 15.522,320.607 15.317,320.671 15.159,320.804 C 15.087,320.762 15.029,320.842 14.96,320.826 C 14.924,320.845 14.893,320.867 14.899,320.916 C 14.851,320.909 14.802,320.903 14.753,320.896 C 14.581,321.003 14.384,321.029 14.192,321.067 C 14.059,321.189 13.897,321.171 13.733,321.204 C 13.696,321.231 13.661,321.259 13.624,321.287 C 13.575,321.28 13.528,321.274 13.479,321.267 C 13.442,321.287 13.411,321.309 13.418,321.358 C 13.108,321.352 12.843,321.511 12.555,321.587 C 12.479,321.714 12.352,321.774 12.228,321.838 C 12.143,322.043 11.963,322.167 11.821,322.323 C 11.682,322.677 11.516,323.02 11.482,323.405 C 11.631,323.44 11.583,323.657 11.739,323.684 C 11.783,323.753 11.837,323.816 11.858,323.896 C 12.142,324.184 12.549,324.259 12.934,324.283 C 13.126,324.232 13.228,324.08 13.413,324.004 C 13.437,323.563 13.766,323.224 14.131,323.021 C 14.884,322.988 15.603,323.27 16.353,323.264 C 16.516,323.147 16.717,323.149 16.902,323.19 C 16.939,323.163 16.974,323.134 17.011,323.106 C 17.368,323.08 17.693,322.909 18.032,322.8 C 18.068,322.78 18.099,322.758 18.093,322.709 C 18.213,322.725 18.277,322.574 18.401,322.604 C 18.999,322.18 19.547,321.681 20.301,321.58 C 20.483,321.588 20.59,321.759 20.763,321.788 C 20.764,321.871 20.862,321.879 20.883,321.944 C 20.884,321.941 20.884,321.943 20.885,321.936 C 20.885,321.939 20.884,321.941 20.883,321.944 C 20.884,321.947 20.888,321.948 20.889,321.951 C 20.882,321.951 20.882,321.953 20.881,321.954 C 20.752,322.866 20.017,323.318 19.897,324.237 C 19.866,324.474 19.516,324.433 19.391,324.572 C 18.844,324.597 18.364,325.038 17.916,325.357 C 17.77,325.597 17.736,326.443 18.061,326.112 C 18.333,325.834 18.605,325.555 19.699,324.994 C 20.814,325.455 23.194,322.868 24.954,324.981 C 25.142,324.144 26.184,323.967 26.508,323.304 C 27.652,322.358 29.613,321.754 30.54,323.052 C 32.335,324.309 33.159,322.221 33.763,321.203 C 34.658,321.556 35.347,322.274 36.211,322.858 C 37.849,322.918 37.446,321.218 38.041,320.277 C 39.597,319.776 39.507,321.646 41.253,321.485 C 40.329,318.383 44.466,319.713 45.624,318.062 C 46.631,317.568 46.612,315.919 46.293,314.779 C 46.384,314.086 46.476,313.392 46.325,312.745 C 47.163,312.934 47.76,313.17 48.751,313.379 C 49.44,314.097 47.284,314.988 48.427,315.845 C 50.347,315.55 53.862,316.248 54.576,313.206 C 58.169,315.092 55.802,308.663 59.079,311.762 C 60.772,310.809 62.955,310.313 63.651,308.601 C 63.337,308.011 63.022,307.42 62.765,306.995 C 64.459,306.043 66.328,306.133 67.993,305.41 C 69.405,305.989 71.675,307.141 73.216,304.816 C 73.345,304.623 73.344,303.805 73.4,303.528 C 74.419,302.567 73.994,304.058 73.56,304.812 C 72.736,307.575 75.837,305.974 76.681,306.713 C 78.755,306.438 76.414,303.384 77.98,302.806 C 79.116,303.114 78.24,304.409 79.201,304.85 C 80.512,305.022 79.816,303.754 81.12,303.378 C 82.486,303.714 85.348,302.837 86.09,305.523 C 86.856,305.075 88.606,304.287 89.455,305.575 C 91.295,305.896 90.895,303.57 91.172,302.665 C 89.081,302.468 90.28,300.509 89.924,299.051 C 90.551,296.076 93.908,294.402 94.516,291.58 C 92.206,289.473 95.059,286.869 96.418,285.48 C 95.441,281.587 101.967,279.077 98.104,275.667 C 101.239,272.709 96.899,269.941 97.963,266.631 C 97.334,265.451 95.038,265.618 95.908,263.773 C 96.851,262.565 97.927,263.335 98.887,263.775 C 99.319,263.502 100.314,263.084 99.43,262.653 z M 27.5,248.915 C 27.581,248.299 27.771,248.344 27.822,247.958 C 27.477,247.599 27.933,247.11 27.59,246.751 C 29.129,245.778 28.925,243.164 30.923,242.878 C 32.784,244.222 32.725,245.86 31.694,247.136 C 31.491,248.677 31.476,249.381 30.416,250.887 L 29.876,250.816 C 28.786,249.574 24.257,249.428 27.5,248.915 z M 34.368,259.563 C 34.341,257.991 36.138,257.15 33.501,256.333 C 33.085,256.513 32.782,256.14 32.135,256.29 C 30.283,254.87 28.524,252.756 26.644,252.742 C 26.712,251.478 28.119,252.565 28.959,252.872 C 29.821,252.279 29.077,252.123 29.775,251.588 L 30.315,251.658 C 31.409,252.274 32.561,253.053 33.635,253.821 C 34.371,254.781 33.285,255.285 33.744,255.972 L 35.139,256.686 C 35.762,257.316 36.28,256.366 35.131,257.939 C 35.449,257.903 35.656,258.714 35.853,259.602 C 35.51,260.419 34.77,260.086 34.368,259.563 z M 50.059,276.137 C 49.674,276.086 49.221,275.949 48.959,276.149 C 48.493,276.715 48.047,277.128 47.405,277.826 C 47.422,278.3 47.166,279.05 46.9,279.877 C 46.668,279.847 46.33,280.037 46.39,279.575 C 46.449,279.135 46.326,278.876 46.373,278.513 C 46.413,278.204 46.017,277.055 45.44,276.665 C 45.299,276.57 45.211,276.821 45.1,276.787 C 44.848,276.606 44.557,276.534 44.258,276.479 C 44.155,276.419 44.117,276.286 43.995,276.249 C 44.004,276.186 44.012,276.12 44.02,276.057 C 44.199,276.045 44.181,275.8 44.457,275.79 C 44.93,275.774 45.325,275.749 45.952,275.753 C 46.941,274.785 47.58,275.89 48.643,275.559 C 48.923,274.028 49.076,272.871 49.305,271.726 C 49.383,268.757 52.41,270.175 53.439,270.704 C 52.613,271.614 51.242,271.903 50.473,272.978 C 51.546,274.373 50.848,274.908 50.059,276.137 z M 58.77,232.673 C 59.29,232.899 59.973,233.067 60.569,233.302 C 60.823,234.355 59.39,235.107 59.643,236.159 C 57.743,236.301 59.038,233.021 58.77,232.673 z M 60.893,258.199 C 60.321,260.162 59.592,257.949 59.124,257.339 C 58.141,255.877 58.98,254.262 57.469,252.651 C 59.006,250.502 59.485,254.014 60.487,254.147 C 60.845,253.802 61.339,253.631 61.868,253.78 C 61.125,255.25 60.375,256.171 60.893,258.199 z M 110.132,214.199 C 110.341,213.207 109.885,210.716 107.723,211.058 C 107.345,208.578 103.218,207.17 105.263,204.148 C 102.276,204.361 103.873,201.612 103.902,200.205 C 103.76,198.305 102.008,197.916 100.467,197.714 L 99.438,197.186 C 97.934,197.301 95.859,197.577 94.604,196.392 C 92.729,199.908 90.298,195.746 89.338,199.461 C 87.981,199.046 86.692,198.72 85.17,198.362 C 84.479,199.447 84.088,200.023 83.91,200.783 C 84.547,204.866 80.025,202.29 79.127,202.563 C 77.891,203.028 76.955,203.433 76.056,203.707 C 75.868,204.545 75.368,204.91 75.209,205.517 C 75.055,205.728 74.878,205.966 74.717,206.154 L 75.205,206.321 C 75.094,206.648 75.01,206.992 74.93,207.325 C 74.656,208.454 74.337,209.725 72.825,210.548 C 72.613,210.819 72.519,211.217 72.432,211.606 C 72.31,212.154 72.172,212.775 71.625,213.071 C 71.295,213.25 70.885,213.264 70.365,213.127 C 70.008,213.726 69.592,214.109 69.093,214.267 C 68.204,214.548 67.352,214.071 66.601,213.65 C 66.119,213.379 65.573,213.073 65.317,213.194 C 65.206,213.247 64.931,213.492 64.726,214.565 C 64.857,215.303 66.409,215.683 67.255,215.888 C 67.492,215.946 67.697,215.995 67.865,216.046 L 68.182,216.143 L 68.216,216.473 C 68.375,217.992 67.382,218.67 66.505,219.268 C 66.14,219.518 65.791,219.758 65.515,220.05 C 66.154,219.876 66.843,219.711 67.406,220.092 C 67.598,221.607 69.809,226.093 68.805,225.53 C 68.711,223.871 66.163,224.163 65.472,222.267 C 63.391,221.993 62.25,221.137 60.637,221.473 C 60.571,221.434 60.515,221.399 60.468,221.367 C 59.956,221.755 59.423,222.119 58.848,222.393 C 59.179,223.94 60.364,224.779 61.626,225.654 C 63.159,226.717 64.884,227.914 64.519,230.524 C 66.899,230.961 68.887,232.18 69.998,233.885 C 70.714,233.634 71.419,233.832 72.078,234.11 C 71.966,234.015 71.866,233.923 71.787,233.843 C 71.599,231.701 67.381,230.988 69.365,228.427 C 69.576,228.612 69.637,228.15 69.925,228.344 C 71.736,230.073 72.092,231.531 74.073,233.752 C 74.132,234.37 74.005,234.678 73.783,234.796 C 74.153,234.884 74.516,234.893 74.878,234.747 C 75.63,234.461 75.851,233.885 76.131,233.155 C 76.464,232.287 76.881,231.235 78.363,230.81 C 78.262,230.662 78.119,230.488 78.014,230.363 C 77.536,229.792 76.882,229.01 77.398,228.193 C 77.927,227.287 78.905,226.708 79.851,226.148 C 80.5,225.763 81.171,225.366 81.665,224.878 L 81.951,224.596 L 82.288,224.815 C 83.869,225.84 85.968,228.349 85.628,230.204 L 85.636,230.124 C 85.618,230.957 85.974,232.459 86.792,233.038 C 87.198,233.326 87.679,233.359 88.264,233.14 L 88.399,233.09 L 88.54,233.119 C 89.217,233.258 89.719,233.779 89.849,234.479 C 89.981,235.187 89.692,235.87 89.115,236.334 C 88.952,237.009 89.115,238.296 89.657,238.688 C 89.927,238.883 90.321,238.793 90.828,238.42 L 91.097,238.222 L 91.383,238.395 C 92.097,238.827 92.857,238.366 93.936,237.614 C 94.78,237.026 95.652,236.418 96.563,236.636 C 97.088,236.762 97.527,237.15 97.907,237.796 L 98.858,238.268 L 98.754,238.476 C 98.935,238.262 99.378,238.581 99.256,239.503 C 101.574,240.357 102.809,238.795 104.205,237.725 C 105.621,236.5 103.784,234.376 105.221,232.997 C 107.871,233.111 110.36,234.459 112.02,231.385 C 112.141,230.46 111.647,229.748 111.79,228.669 L 111.626,228.103 C 111.104,228.196 110.651,228.258 110.151,228.316 C 108.855,227.439 110.948,225.834 110.454,224.828 C 111.013,223.568 108.364,221.651 110.954,222.228 C 111.154,222.49 111.757,223.275 112.426,224.147 C 112.351,225.837 112.077,226.386 112.071,227.761 L 112.407,228.456 C 112.782,228.584 113.117,229.02 113.583,228.454 C 115.833,225.066 113.358,221.838 112.67,218.141 C 110.276,218.453 106.967,217.388 105.008,219.168 C 104.785,217.885 106.633,216.952 106.929,215.894 C 107.909,215.003 109.877,216.125 110.132,214.199 z M 97.997,219.42 C 97.073,220.474 96.254,221.934 95.813,222.896 C 94.256,222.22 90.961,224.608 91.053,220.936 C 91.909,219.793 92.849,219.211 93.627,218.06 C 94.397,216.986 91.574,215.202 93.91,214.726 C 96.039,216.417 97.449,214.644 98.463,215.875 C 99.488,217.029 95.458,218.457 97.997,219.42 z M 63.887,220.02 C 63.055,219.523 62.257,220.004 61.055,220.921 C 61.352,220.898 61.683,220.876 61.959,220.822 C 62.185,220.304 63.2,220.476 63.887,220.02 z M 19.563,234.717 L 19.591,234.876 C 19.58,234.711 19.566,234.677 19.563,234.717 z M 20.889,321.93 C 20.888,321.935 20.887,321.941 20.888,321.94 C 20.888,321.937 20.889,321.934 20.889,321.93 C 20.889,321.93 20.889,321.93 20.889,321.93 z M 52.334,207.753 C 52.17,207.81 52.129,208.118 52.334,207.753 L 52.334,207.753 z "
   id="path2213" />
		</g>
	</svg>