<?xml version="1.0" encoding="UTF-8" standalone="no"?>
<!-- Created with Inkscape (http://www.inkscape.org/) -->
<svg
   xmlns:svg="http://www.w3.org/2000/svg"
   xmlns="http://www.w3.org/2000/svg"
   version="1.0"
   width="546.13599"
   height="343.39301"
   viewBox="0 0 546.136 343.393"
   id="svg2268"
   xml:space="preserve"><defs
   id="defs2276" />
	
		<g
   style="fill:#000000"
   id="Layer_1">
			<path
   d="M 266.027,342.291 C 265.119,342.107 264.255,342.952 263.657,343.265 C 262.462,343.789 261.033,342.611 260.612,341.615 C 257.372,340.27 252.995,342.564 251.216,338.78 C 249.602,338.409 247.493,338.449 246.555,336.659 L 243.332,336.218 C 242.631,336.332 243.016,335.42 242.907,335.021 C 241.285,334.249 241.954,332.427 241.222,330.935 C 241.104,330.033 239.994,329.752 239.774,328.752 C 237.551,328.091 239.812,325.436 238.288,324.561 C 238.363,323.253 238.937,321.736 238.111,320.545 C 236.395,320.075 235.161,318.592 234.029,317.207 C 234.012,316.304 233.39,315.311 232.782,315.02 C 232.454,313.621 231.834,312.728 230.517,312.151 C 228.494,311.385 229.249,308.86 228.425,307.77 C 228.298,306.366 226.674,305.493 226.844,303.882 C 225.309,302.404 226.574,300.271 224.744,299.101 C 224.816,297.592 222.921,298.331 222.69,296.728 C 221.284,296.755 222.053,294.932 220.648,294.959 C 220.426,293.857 219.323,293.979 218.711,293.488 C 219.09,292.276 216.871,291.815 217.053,290.807 C 214.442,290.857 212.009,289.698 209.3,289.85 C 208.186,289.369 207.57,288.677 206.066,288.806 C 205.704,290.922 202.964,289.468 202.182,290.588 C 201.206,292.113 201.125,293.118 200.257,295.044 C 199.355,295.162 199.268,295.866 199.085,296.774 C 197.279,296.909 198.31,298.295 196.817,299.027 C 193.627,300.293 192.855,296.692 190.043,296.745 C 188.787,294.057 184.886,294.934 183.72,291.742 C 183.004,291.052 181.801,291.176 181.384,290.38 C 180.632,287.782 178.289,286.119 179.331,282.784 C 179.098,281.081 177.673,280.103 177.94,278.29 C 177.295,276.093 175.372,275.325 173.831,273.547 C 172.825,273.465 172.304,272.471 171.489,271.884 C 170.95,269.985 168.413,268.626 167.676,266.833 C 166.427,264.546 162.908,264.412 162.947,261.196 C 163.013,259.386 161.206,259.421 159.891,258.943 C 154.155,258.45 147.503,257.27 141.669,256.88 L 140.971,262.418 L 109.133,257.498 L 70.107,233.93 L 69.699,233.636 C 70.284,232.721 71.177,232.101 71.359,231.093 L 45.346,227.405 L 45.205,227.318 C 45.289,226.495 45.385,225.67 44.957,224.909 C 43.439,224.441 44.821,223.305 44.504,222.608 C 45.832,219.063 43.638,215.294 41.272,212.835 L 37.851,208.089 C 37.233,207.4 36.651,208.318 35.948,208.333 L 35.024,207.448 C 36.104,206.319 34.863,204.739 34.635,203.54 C 32.118,203.294 29.884,202.239 28.238,200.467 C 28.088,198.261 26.352,196.993 25.114,195.514 C 24.11,195.536 23.203,195.456 22.386,194.871 C 20.458,194.01 18.512,192.345 16.205,192.497 L 14.741,189.917 C 15.031,189.409 15.62,188.793 15.102,188.101 C 16.278,186.769 14.747,185.699 16.327,184.457 C 16.806,183.442 15.878,182.357 15.061,181.772 C 14.34,180.985 14.614,179.773 15.101,179.059 C 14.079,178.278 13.744,176.778 13.213,175.485 C 12.695,174.793 11.577,174.215 11.851,173.003 C 10.918,171.718 11.282,170.003 10.253,168.92 C 10.489,166.002 6.421,163.781 8.67,161.019 C 7.413,158.736 10.678,160.974 10.733,158.964 C 10.802,157.556 10.976,156.346 9.945,155.164 C 9.141,155.182 8.332,154.899 7.712,154.109 C 6.576,152.728 6.022,150.429 6.691,148.908 C 6.24,146.708 6.9,144.784 7.759,142.756 C 9.283,143.526 8.404,144.651 8.226,145.659 L 10.087,148.029 C 10.875,147.308 10.234,145.614 10.011,144.615 L 9.388,143.725 C 9.876,143.111 9.457,142.317 9.14,141.621 L 11.016,140.172 C 10.601,139.579 9.97,138.287 8.983,139.112 C 8.691,139.52 8.202,140.134 8.715,140.625 C 7.923,141.145 8.849,142.129 7.758,142.756 L 7.033,141.767 C 5.609,140.995 5.672,139.286 4.545,138.306 L 3.748,138.625 C 3.432,137.929 4.415,137.003 4.913,136.791 C 4.681,135.39 3.844,133.901 4.016,132.591 C 2.148,129.92 1.59,127.421 0.318,124.435 C 1.784,122.594 0.534,120.613 1.29,118.486 C 2.74,115.942 3.254,111.912 1.589,109.337 C 2.055,107.719 0.029,106.961 -0.005,105.455 L 0.724,102.123 C 1.771,99.487 4.977,99.115 5.216,96.296 L 7.039,92.438 C 7.498,90.519 8.55,88.084 7.3,86.103 C 9.373,84.449 7.219,82.488 8.078,80.459 L 8.315,77.541 C 10.093,76.195 9.544,74.098 9.403,72.292 L 13.091,66.483 L 14.374,65.45 C 17.689,60.955 19.481,55.691 21.779,50.617 C 23.314,47.368 25.458,44.407 26.386,40.97 C 27.174,40.249 26.951,39.25 27.739,38.529 C 27.406,37.13 28.493,36.302 28.361,34.898 C 29.752,34.164 29.106,32.27 29.787,31.25 L 30.506,31.937 C 31.604,31.611 32.449,33.501 33.63,32.37 C 34.141,32.76 34.369,33.961 34.766,33.751 L 34.534,32.35 C 33.036,32.786 32.476,30.186 30.691,31.23 C 30.278,30.737 29.963,30.141 29.363,30.255 C 29.53,28.744 30.711,27.613 31.085,26.399 L 31.603,27.09 L 32.569,25.361 C 32.261,25.067 31.956,24.873 31.554,24.882 C 31.44,24.282 31.409,22.876 31.9,22.363 C 32.518,23.052 32.694,21.943 33.194,21.832 L 32.17,20.951 C 32.024,18.945 33.1,17.615 32.462,16.022 C 32.308,13.614 34.35,10.555 32.287,8.189 C 32.136,5.882 33.396,3.844 34.462,2.113 C 36.923,4.368 39.209,7.734 42.44,8.465 C 43.453,8.844 44.583,9.924 45.675,9.398 L 46.307,10.69 C 47.097,10.07 47.738,11.763 48.313,10.545 C 50.034,11.109 48.463,12.752 48.891,13.948 C 48.508,14.76 47.418,15.488 46.7,14.801 C 46.051,17.227 42.833,17.097 42.28,19.32 C 42.704,20.315 43.8,19.889 44.391,19.373 C 43.983,19.081 43.492,19.594 43.376,18.894 L 45.049,17.35 C 46.852,17.109 48.122,15.473 49.713,14.734 C 50.135,15.629 48.943,16.258 48.548,16.568 C 48.97,17.463 47.964,17.385 47.365,17.599 C 47.278,18.204 47.396,19.005 48.108,19.391 C 48.124,20.094 47.941,20.902 47.249,21.419 C 46.213,20.036 45.865,22.455 45.062,22.473 C 44.951,21.973 45.54,21.357 45.325,20.759 L 45.022,20.665 C 44.138,21.589 43.154,22.515 42.262,23.037 L 42.885,23.928 C 43.568,23.009 44.599,24.191 45.304,24.276 L 47.17,22.326 C 47.759,21.71 47.589,23.12 48.283,22.703 C 49.461,21.471 48.816,19.577 49.793,18.349 C 49.372,17.454 50.869,17.019 50.545,16.021 C 51.335,15.401 51.71,14.187 52.81,13.961 C 51.583,12.983 52.351,11.359 52.723,10.045 L 51.976,7.85 C 51.862,7.25 52.46,7.036 52.768,7.33 L 52.744,6.225 C 54.246,5.991 52.807,4.516 53.592,3.695 L 53.183,3.403 L 52.589,3.818 C 52.566,2.814 51.623,1.026 52.604,0 L 52.701,0.083 L 63.625,4.006 L 98.69,14.892 L 131.898,23.201 L 159.524,28.502 L 189.348,33.159 L 224.278,36.915 L 255.454,38.733 C 265.81,39.239 275.556,39.255 286.805,39.141 C 287.076,37.529 286.941,35.723 287.026,34.918 C 287.624,34.605 290.622,33.845 290.359,35.859 L 291.59,42.466 C 292.41,43.355 293.807,42.825 294.813,42.907 C 296.151,44.59 300.329,42.4 299.984,45.421 C 300.887,45.404 302.175,44.475 303.065,43.654 C 305.077,43.817 307.187,43.877 308.715,44.953 C 308.42,45.36 308.137,46.27 308.745,46.559 C 309.749,46.54 311.451,46.206 311.379,47.715 L 312.192,48.202 C 313.195,48.082 312.662,46.485 314.182,47.16 C 314.908,48.351 316.021,48.833 317.429,48.907 C 317.366,50.917 319.165,50.381 320.371,50.458 C 322.48,50.418 323.244,48.293 325.041,47.757 C 325.66,48.549 326.195,50.347 327.686,49.414 L 332.707,49.319 L 334.634,50.287 L 336.813,49.811 L 337.196,49.64 C 336.349,50.339 335.457,51.018 334.74,51.802 C 331.663,53.671 328.162,54.443 325.501,57.007 C 322.252,60.386 319.325,64.764 315.76,67.346 C 315.869,67.846 316.287,68.641 316.989,68.527 C 319.389,67.977 321.68,67.028 323.763,65.681 C 325.167,65.553 326.034,63.627 327.76,64.598 C 327.872,65.199 327.483,65.809 326.987,66.12 C 327.41,67.217 326.024,68.248 326.644,69.141 C 328.022,67.707 328.753,69.099 330.364,69.268 C 332.361,68.626 334.251,67.684 335.927,66.044 L 339.527,65.169 C 341.027,64.838 341.382,62.521 342.991,62.589 C 344.069,61.161 346.234,58.908 347.616,57.676 C 349.503,56.533 351.67,54.381 354.112,55.941 C 353.73,56.953 352.61,56.171 352.016,56.685 L 352.029,57.288 C 349.556,59.246 347.9,61.89 348.357,64.694 C 348.86,64.684 348.644,63.985 349.041,63.676 C 349.846,63.76 350.211,61.844 351.037,63.034 C 351.766,62.967 352.658,62.897 353.519,63.012 C 354.316,63.117 355.085,63.38 355.676,63.947 C 356.403,65.138 358.028,66.01 358.555,67.306 C 359.671,67.887 361.07,67.457 361.864,66.939 C 362.987,67.921 364.078,67.197 365.197,67.878 C 366.374,66.448 367.861,65.414 369.349,64.481 C 371.247,63.941 372.747,63.61 374.854,63.468 C 376.141,62.538 378.039,61.898 379.737,61.463 L 380.045,61.758 C 379.061,62.782 380.49,63.959 379.907,64.975 C 380.22,65.572 380.804,64.656 381.12,65.353 C 381.724,65.441 382.935,65.719 383.322,64.908 C 383.526,65.105 383.932,65.298 383.94,65.7 C 384.64,65.586 385.434,65.068 385.725,64.56 C 387.133,64.633 386.866,66.346 387.881,66.929 L 387.506,68.242 C 388.216,68.63 389.012,68.212 389.622,68.602 L 389.435,69.309 C 390.147,69.797 390.755,70.087 391.46,70.173 C 390.485,71.699 388.459,70.835 386.953,70.865 C 386.244,70.577 385.473,72.2 385.046,70.903 C 384.029,70.32 384.561,71.817 383.963,72.029 C 383.673,72.637 384.39,73.326 383.692,73.541 C 381.862,72.472 380.115,70.497 377.613,70.948 C 376.505,70.769 375.424,71.996 375.14,72.906 L 373.137,73.247 C 372.858,74.357 371.831,73.273 371.133,73.487 C 369.419,73.219 369.359,75.23 368.673,76.148 C 367.575,76.471 367.3,77.782 366.916,78.694 L 365.998,78.009 C 366.07,76.601 367.88,76.666 367.451,75.268 C 366.647,75.284 365.868,76.505 365.048,75.717 C 364.863,76.525 364.985,77.527 364.09,78.047 C 363.377,77.559 363.767,76.948 363.354,76.354 C 362.455,76.572 362.793,78.475 361.593,78.8 C 361.133,80.918 360.371,83.043 358.903,84.981 C 358.222,86.1 358.852,87.494 357.665,88.421 C 355.86,88.557 356.802,90.447 355.514,91.377 C 355.733,92.277 354.357,93.811 356.072,94.179 C 357.051,92.854 358.135,91.828 358.503,90.113 C 361.323,90.459 360.954,87.051 361.927,85.425 C 363.13,85.3 362.888,83.196 364.097,83.373 C 364.204,83.773 364.418,84.372 363.816,84.383 C 363.942,85.687 363.161,86.807 362.78,87.92 C 361.225,90.563 360.885,93.684 360.241,96.71 C 360.561,97.608 360.99,99.006 359.795,99.531 C 359.029,101.455 358.957,102.863 359.699,104.858 C 358.454,107.896 358.113,111.017 358.675,114.02 L 359.21,115.717 C 360.855,117.593 359.912,120.726 360.265,123.331 C 361.315,125.621 362.16,127.713 363.31,130.001 C 364.138,131.19 365.059,132.076 366.662,131.844 C 368.771,131.802 369.942,130.072 371.622,128.632 C 373.543,124.174 376.266,119.599 375.158,114.397 L 372.047,107.538 L 370.643,104.44 L 371.219,103.123 C 371.095,101.92 371.258,100.008 370.236,99.124 L 372.164,94.967 C 372.631,93.15 369.952,89.787 373.263,89.521 C 373.543,88.511 372.709,86.92 374.107,86.49 C 375.924,86.957 375.672,84.349 376.756,83.323 L 377.355,83.111 C 377.759,83.203 377.465,83.611 377.267,83.715 C 377.389,84.818 376.718,86.439 377.538,87.326 L 378.212,85.806 C 379.026,86.392 377.84,87.32 378.252,87.814 C 380.821,85.654 377.039,82.413 380.113,80.343 C 380.909,79.926 382.024,80.506 382.405,79.394 L 381.388,78.811 C 380.057,77.532 381.946,76.49 381.817,75.086 C 382.725,75.269 383.319,74.856 384.012,74.339 C 385.257,76.323 387.637,74.77 389.367,75.941 C 389.397,77.447 390.904,77.418 392.002,77.094 C 392.513,77.486 393.123,77.876 393.822,77.661 C 394.642,78.549 396.232,77.614 396.862,79.008 C 396.383,80.122 398.406,80.886 398.328,81.993 L 397.422,81.91 L 397.237,82.717 C 399.586,84.68 399.354,88.2 399.713,91.107 C 399.316,91.316 398.721,91.729 398.833,92.33 C 396.825,92.37 398.895,95.443 397.087,95.478 C 396.908,96.587 394.59,96.23 395.13,98.128 C 396.042,98.512 394.467,100.15 395.782,100.627 C 396.987,100.604 398.427,102.283 398.682,99.967 C 400.176,99.335 400.022,96.625 401.411,95.694 C 402.312,95.575 402.901,94.861 403.492,94.246 C 407.201,93.871 406.991,98.496 408.343,100.781 C 409.688,102.763 408.877,105.863 411.311,107.021 L 410.671,107.61 C 410.307,109.626 411.354,111.816 410.179,113.446 L 410.16,113.422 C 410.062,112.806 409.806,112.233 409.267,112.014 C 408.666,112.126 407.879,112.946 408.296,113.741 C 407.499,114.058 407.816,114.856 407.732,115.661 C 407.739,116.063 406.94,116.279 407.251,116.776 L 407.209,116.647 C 406.826,117.659 405.749,118.252 405.67,119.358 L 405.87,119.618 L 405.901,119.616 C 405.013,120.437 406.137,121.419 405.149,122.242 C 405.462,122.839 404.161,123.065 404.466,123.26 L 403.991,124.676 L 404.014,125.881 L 404.717,125.867 C 406.124,125.94 407.147,126.824 408.458,127.099 C 409.264,127.183 410.353,126.358 411.069,127.047 L 410.181,127.868 C 411.202,128.752 412.47,126.818 413.408,128.508 C 414.703,127.98 416.01,127.954 416.887,126.631 C 419.089,126.186 421.203,126.445 422.562,124.007 C 423.725,121.875 425.122,121.344 427.006,120.102 C 429.679,118.141 433.075,117.169 435.028,114.318 L 435.432,114.41 C 438.306,112.445 440.06,109.698 442.827,107.332 L 443.591,105.308 C 444.183,104.794 445.376,104.167 445.053,103.069 C 444.748,102.874 444.742,102.573 444.437,102.378 L 444.329,102.374 C 442.608,101.704 442.948,99.193 441.985,97.938 L 441.927,97.97 C 442.719,97.36 443.536,96.782 444.523,96.55 C 448.103,94.671 452.505,93.78 456.648,95.005 C 458.225,93.467 460.145,94.032 462.045,93.592 C 462.625,92.476 464.431,92.34 464.607,91.03 C 465.794,90.103 465.757,88.295 467.571,88.561 C 468.247,87.141 467.111,85.556 466.478,84.062 C 467.181,84.048 467.969,83.229 467.553,82.534 C 466.757,82.951 466.938,81.944 466.73,81.546 C 466.326,81.453 465.93,81.763 465.736,82.068 L 465.531,81.871 C 465.12,81.377 465.109,80.874 465.504,80.465 C 467.496,79.622 467.954,77.402 468.826,75.778 L 468.769,75.842 C 469.159,75.232 469.983,72.928 470.369,72.117 C 471.734,69.981 473.694,67.332 476.184,66.28 L 489.377,62.714 L 505.544,57.723 L 505.495,57.761 C 505.483,56.815 505.772,55.739 505.494,54.472 C 505.974,53.358 507.379,53.231 508.084,53.318 L 508.262,52.11 C 508.758,51.799 509.575,52.487 509.975,52.379 C 510.061,51.574 509.727,49.872 510.932,49.85 L 510.515,49.054 C 510.084,47.555 511.174,46.731 511.957,45.711 C 511.831,44.307 512.221,43.697 512.499,42.486 C 512.387,41.885 511.167,41.105 511.749,39.989 C 510.72,38.702 511.496,37.281 511.869,35.767 C 510.871,30.864 513.173,25.094 514.387,20.249 C 516.27,18.907 516.009,21.021 516.928,21.808 C 518.762,23.18 520.12,20.642 521.612,19.81 L 522.698,18.785 C 524.094,18.256 524.716,19.249 525.928,19.628 C 526.746,20.416 527.841,19.893 528.363,20.888 C 530.063,25.778 532.67,30.751 534.169,35.645 C 534.483,36.342 535.098,36.933 535.621,38.028 L 538.138,38.281 C 539.744,38.251 538.765,39.575 538.983,40.475 C 539.692,40.763 540.101,41.157 540.014,41.862 C 540.327,42.459 541.146,43.247 541.738,42.733 L 542.739,42.513 C 543.144,42.706 543.792,43.045 543.991,42.941 L 544.034,43 C 544.251,43.699 545.271,44.379 544.584,45.098 L 545.004,45.892 C 545.405,45.883 545.593,45.276 545.902,45.671 C 546.724,46.457 545.124,46.794 545.445,47.691 C 545.259,48.398 544.87,48.909 544.173,49.226 C 543.464,48.94 543.198,50.554 542.186,50.174 C 542.613,51.27 541.407,51.297 541.122,52.006 L 539.915,51.933 C 539.83,52.638 540.363,54.033 539.264,54.258 C 539.07,54.564 539.081,55.066 538.684,55.276 C 538.068,54.687 537.737,53.388 536.835,53.508 C 536.64,53.714 536.444,54.019 536.138,53.725 C 535.744,54.136 536.075,55.434 535.169,55.354 C 535.682,55.845 534.89,56.365 534.595,56.673 C 534.31,57.382 535.334,58.264 534.029,58.293 C 533.715,57.697 533.018,58.014 532.612,57.822 C 532.304,57.528 533.083,56.405 531.981,56.53 L 531.666,55.934 C 530.657,55.755 531.291,57.148 530.693,57.362 C 530.631,59.071 530.765,60.575 531.006,62.379 L 529.841,64.213 C 528.94,64.334 528.906,62.828 528.332,64.147 C 528.351,64.95 528.285,66.559 527.174,66.282 C 526.665,65.992 526.853,65.385 526.946,65.082 C 525.935,64.803 526.272,66.403 525.367,66.323 C 525.578,66.821 526.496,67.403 525.607,68.126 C 525.212,68.436 524.601,68.048 524.32,68.959 C 523.412,68.778 524.489,67.549 523.492,67.873 C 522.811,68.893 521.841,70.421 522.97,71.501 C 522.886,72.207 521.295,72.945 522.417,73.724 C 521.734,74.643 521.654,75.549 520.871,76.471 C 520.996,77.574 521.224,78.774 520.444,79.896 C 520.478,81.402 520.117,83.219 521.353,84.598 C 521.971,85.287 523.04,83.656 523.076,85.263 C 520.992,86.414 521.327,87.914 520.867,89.833 L 520.57,90.041 C 520.577,90.342 520.985,90.635 521.289,90.729 C 521.36,89.421 522.688,90.396 523.293,90.483 C 523.519,91.583 525.632,91.737 525.264,93.252 C 526.273,93.43 526.702,94.627 527.12,95.421 L 529.935,95.559 C 530.514,94.441 532.624,94.495 531.885,92.904 C 530.884,93.027 530.95,91.518 530.038,91.137 C 529.64,91.346 529.547,91.65 529.139,91.358 C 528.733,91.166 529.027,90.858 529.023,90.658 C 530.93,90.616 532.58,92.487 533.123,94.283 C 533.87,96.276 530.833,95.238 530.569,96.952 C 528.749,96.39 529.108,98.994 527.297,98.833 C 526.783,98.342 526.561,97.342 526.148,96.85 L 524.79,98.99 L 524.589,98.995 C 524.605,99.698 524.111,100.11 523.523,100.726 C 522.712,100.443 522.132,101.46 521.726,101.268 C 521.436,101.776 521.253,102.584 520.842,102.192 C 520.932,101.688 520.816,100.987 521.726,101.268 C 521.498,100.067 521.483,99.365 521.168,98.768 C 520.89,99.779 520.164,98.79 519.666,99.002 C 519.598,100.41 520.24,102.204 519.973,103.717 C 518.666,103.746 517.995,105.168 516.898,105.493 C 515.981,104.91 515.405,106.129 514.595,105.846 C 513.914,106.866 512.716,107.194 511.817,107.415 C 511.141,108.636 509.412,107.669 508.837,108.888 C 507.738,109.214 506.313,108.342 506.253,110.151 C 505.354,110.372 505.583,111.673 504.47,111.296 L 501.315,113.979 C 501.244,115.287 499.84,115.418 499.566,116.63 C 498.979,117.346 498.196,118.268 498.017,119.276 C 498.017,119.276 498.05,119.665 497.121,119.598 C 495.725,120.131 496.255,121.325 496.074,122.233 C 496.909,123.621 497.687,122.291 498.803,122.976 C 499.198,123.219 499.722,123.659 499.722,123.659 C 500.312,127.564 501.321,132.263 499.089,135.829 C 499.433,137.73 497.148,138.887 496.887,140.701 C 496.821,142.209 496.356,143.928 494.966,144.662 C 494.049,144.079 496.074,140.317 493.192,141.687 C 492.876,140.991 492.591,141.801 492.19,141.81 C 490.462,140.944 488.834,139.976 487.203,138.907 C 487.85,140.902 489.879,141.761 490.028,143.968 C 490.865,145.456 492.498,146.625 494.016,147.093 C 494.534,148.371 495.033,149.709 495.304,151.076 C 495.645,152.797 495.624,154.564 494.824,156.318 C 494.841,157.021 494.466,158.235 494.07,158.545 L 494.64,156.274 C 493.227,156.004 493.755,157.95 493.17,158.766 C 494.003,160.054 492.418,161.094 492.55,162.497 C 492.369,163.405 492.812,165.204 491.602,165.03 C 490.433,166.664 491.381,168.652 490.82,170.473 C 489.918,170.594 489.591,169.395 489.072,168.703 C 488.613,166.101 489.263,163.776 489.814,161.453 C 490.31,161.14 490.89,160.123 489.979,159.842 L 490.074,159.539 C 489.458,158.95 488.59,160.577 488.362,159.376 C 488.743,158.463 488.433,158.068 488.215,157.269 C 487.814,157.278 487.229,158.095 487.01,157.296 C 486.996,156.693 487.988,156.069 486.874,155.692 L 485.99,156.616 C 484.568,155.945 483.149,155.373 482.515,153.981 C 482.803,153.372 482.791,152.87 482.579,152.372 L 483.666,151.544 C 483.05,150.955 481.231,150.493 481.903,149.072 C 482.101,148.967 482.606,149.056 482.398,148.759 C 482.188,148.362 482.174,147.759 481.574,147.873 C 481.381,148.179 481.294,148.783 480.887,148.591 C 480.875,148.089 480.543,146.69 481.856,146.962 C 481.543,146.467 482.416,145.041 481.217,145.369 C 480.793,144.374 481.471,143.254 481.549,142.247 C 482.445,141.825 482.836,141.414 483.015,140.406 C 482.112,140.426 482.897,139.605 482.783,139.005 C 482.482,139.011 481.48,139.134 481.697,139.833 C 481.713,140.536 481.838,141.638 480.833,141.661 C 480.148,142.48 479.256,143.002 479.383,144.205 L 478.593,144.826 C 478.906,145.321 480.04,146.602 478.739,146.832 C 479.05,147.227 478.968,148.133 479.475,148.323 C 478.792,149.242 480.214,149.914 479.429,150.735 C 480.165,152.225 480.209,154.234 482.041,155.298 C 480.854,156.129 482.87,156.385 482.386,157.199 C 482.897,157.59 483.615,158.277 483.633,159.08 L 483.338,159.388 C 482.535,159.406 482.49,157.398 481.616,158.723 C 480.58,157.34 479.897,158.259 478.489,158.19 C 478.282,157.894 478.27,157.391 477.866,157.3 C 477.387,158.315 476.554,157.028 475.851,157.044 C 475.266,157.861 476.691,158.633 477.297,158.82 C 477.703,159.012 478.403,158.896 478.719,159.492 C 479.207,158.878 479.714,159.068 480.312,158.853 C 481.253,160.54 483.264,160.596 484.789,161.366 C 484.999,161.763 484.807,162.169 484.512,162.477 L 485.071,164.977 C 484.156,164.495 483.359,164.814 482.442,164.232 C 482.478,165.838 484.466,164.89 484.993,165.983 C 485.698,166.068 485.719,166.971 486.232,167.462 L 486.245,168.065 C 485.741,167.976 484.63,167.699 484.647,168.502 C 484.857,168.899 485.772,169.381 484.979,169.901 L 486.425,171.676 C 487.425,171.453 486.642,172.375 487.151,172.665 L 486.067,173.594 C 484.855,173.319 484.928,172.112 483.626,172.241 C 483.4,171.14 482.604,171.461 481.799,171.378 L 481.602,171.583 C 481.91,171.878 483.213,171.748 482.836,172.861 C 483.854,173.441 485.262,173.51 485.493,174.912 C 486.078,174.096 487.404,174.971 487.475,173.662 L 490.284,173.5 C 490.713,174.695 492.141,175.668 491.57,177.088 C 491.254,178.086 492.108,178.684 492.108,178.684 L 492.734,179.774 C 493.367,181.067 494.6,182.345 494.729,183.649 L 493.1,182.68 C 492.308,183.2 491.608,183.316 491.128,184.33 C 490.206,183.548 490.35,185.453 489.329,184.773 C 489.269,186.582 487.058,186.531 485.852,186.558 C 485.961,186.956 485.27,187.474 485.874,187.562 C 487.458,186.521 489.592,187.58 490.856,185.743 C 491.755,185.522 492.865,185.699 493.088,186.698 C 493.163,185.592 494.589,186.464 494.664,185.357 C 495.689,186.238 496.702,186.617 496.635,188.126 C 495.852,189.048 497.164,189.32 496.482,190.239 L 495.48,190.361 C 494.099,191.498 494.886,195.298 492.142,193.851 C 491.647,194.164 491.062,194.981 490.538,193.988 C 490.245,194.396 489.444,194.515 489.228,193.816 C 489.312,193.111 488.418,193.533 488.214,193.437 L 488.134,194.343 C 487.741,194.753 487.016,193.765 486.737,194.776 C 487.561,195.662 489.748,194.609 489.884,196.213 C 489.701,197.022 488.302,197.354 489.427,198.233 C 488.844,199.151 488.168,200.372 486.969,200.7 C 488.213,202.38 488.648,199.356 489.768,200.034 C 490.159,199.523 490.759,199.409 490.746,198.807 C 491.157,199.2 491.665,199.489 492.252,198.773 L 492.662,199.166 C 492.596,200.675 491.623,202.103 490.536,202.931 L 489.824,202.545 C 484.923,203.458 481.919,208.447 479.083,211.927 C 477.919,213.761 478.378,216.363 477.818,218.283 C 477.619,218.388 477.32,218.496 477.214,218.197 L 477.402,217.59 C 474.799,218.05 471.882,217.914 469.926,220.269 L 466.24,226.178 C 465.871,227.693 466.518,229.688 465.03,230.525 C 464.745,231.234 464.765,232.138 463.868,232.46 C 463.359,232.17 462.849,231.88 462.465,232.592 C 462.701,234.195 461.215,235.131 460.131,236.06 C 460.07,237.87 457.882,238.822 456.592,239.554 C 455.603,240.28 455.233,241.695 453.711,241.025 C 453.117,241.441 454.126,241.619 453.934,242.025 C 454.059,243.128 453.578,244.042 452.681,244.363 C 452.377,244.27 452.162,243.672 451.766,243.883 C 453.216,245.859 448.914,246.658 450.557,248.23 C 450.663,248.529 450.371,248.937 450.168,248.841 L 449.666,248.852 C 449.577,249.356 449.803,250.456 448.798,250.479 C 449.224,251.575 446.924,252.028 447.857,253.313 C 448.404,255.31 446.129,256.968 447.177,258.854 C 447.101,259.96 445.503,260.398 446.036,261.792 C 445.345,262.31 446.46,262.787 446.072,263.398 C 446.043,266.614 447.31,269.399 448.083,272.496 C 450.368,280.382 456.338,286.779 461.007,293.406 C 460.628,294.702 460.611,296.01 461.033,297.495 L 461.169,297.994 C 461.359,298.116 461.757,299.238 461.948,299.36 C 462.138,299.482 461.953,299.815 461.953,299.815 C 461.451,299.27 461.001,298.245 460.797,297.529 C 458.963,296.365 458.914,294.156 458.97,292.145 C 457.562,292.076 458.441,290.951 457.423,290.371 L 457.233,290.878 L 459.171,296.662 C 461.021,298.529 461.487,301.433 463.932,302.885 C 465.335,307.275 469.618,310.092 470.326,314.798 L 470.632,319.513 L 470.787,326.443 C 470.433,328.661 468.573,330.812 469.624,332.898 C 468.841,333.82 468.79,336.031 467.069,335.467 C 465.98,336.194 465.11,337.721 463.787,336.946 C 463,337.667 461.888,337.389 460.996,337.912 C 459.889,337.837 459.757,336.433 460.139,335.52 L 460.137,335.419 C 460.851,335.905 461.671,336.69 462.466,336.271 C 462.957,335.758 462.046,335.477 461.94,335.178 C 459.238,335.64 458.768,332.637 457.83,331.05 C 457.023,330.967 456.509,330.376 456.391,329.574 L 453.856,328.526 C 453.465,329.037 452.941,328.044 452.352,328.66 C 452.338,328.057 451.935,327.966 451.527,327.674 C 450.897,326.483 449.781,326.005 449.947,324.395 C 449.333,323.906 449.317,323.203 449.201,322.502 C 447.885,322.028 445.767,321.674 445.327,319.976 C 446.327,319.753 446.001,318.655 446.184,317.847 C 445.67,317.357 446.06,316.846 446.15,316.341 L 444.349,316.683 C 444.262,317.287 445.573,317.459 444.988,318.276 C 443.988,318.5 442.674,318.127 442.446,316.926 C 440.611,315.761 440.557,313.351 438.925,312.182 L 437.776,310.199 C 438.954,308.967 439.511,306.946 440.48,305.316 C 440.172,305.021 440.152,304.118 439.554,304.333 C 438.755,304.551 439.49,305.941 438.573,305.359 C 438.754,304.45 437.847,304.371 437.434,303.878 L 436.745,304.496 C 436.761,305.199 438.16,304.866 437.981,305.875 L 437.711,307.287 L 436.617,307.813 L 435.064,305.738 C 435.636,304.42 435.704,302.912 435.17,301.516 C 436.359,300.787 435.121,299.307 435.802,298.287 C 436.669,296.66 435.726,294.873 435.794,293.465 C 435.29,293.375 435.78,292.862 435.673,292.563 C 433.946,291.699 434.708,289.772 433.081,288.904 C 431.767,288.532 430.289,289.871 429.843,287.871 C 428.736,287.796 428.19,285.799 427.288,285.92 C 426.464,285.034 425.453,284.755 425.524,283.447 C 423.208,283.197 422.831,279.79 420.32,279.845 C 419.325,280.27 419.094,278.968 418.288,278.785 C 416.694,279.424 415.272,278.752 413.896,280.088 C 413.907,280.591 413.818,281.095 414.226,281.387 L 411.638,282.45 C 410.656,283.476 409.384,285.013 408.367,284.432 C 407.485,285.455 406.172,285.083 405.278,285.605 C 402.911,287.567 404.033,283.825 402.716,283.352 C 402.098,282.663 401.188,282.381 400.483,282.296 L 399.554,281.212 C 399.854,281.105 400.462,281.393 401.08,282.082 C 401.276,281.877 401.676,281.767 401.769,281.464 C 400.756,281.084 400.637,280.283 399.337,280.513 C 398.02,280.041 399.4,278.905 397.988,278.635 C 397.286,278.651 396.592,279.068 396.406,279.775 C 394.577,278.812 392.87,278.85 391.046,278.187 C 391.329,277.377 393.155,278.14 392.025,277.06 L 389.22,277.424 C 387.739,278.562 386.427,278.29 384.727,278.629 L 382.89,277.363 C 382.59,277.47 382.31,278.382 381.997,277.885 L 381.6,278.095 C 380.511,278.823 380.552,280.629 378.84,280.467 C 378.307,279.072 377.949,281.09 377.135,280.606 C 376.256,281.731 374.353,281.974 373.447,281.894 C 373.746,281.787 374.232,281.073 374.018,280.474 C 373.702,279.778 372.806,280.2 372.784,279.196 C 373.26,277.979 372.633,276.888 371.808,276.003 C 370.938,277.529 370.878,279.339 370.615,281.053 C 369.814,281.171 367.467,279.516 367.107,281.433 C 366.311,281.752 365.28,280.57 364.798,281.484 L 361.77,280.849 C 360.061,280.786 358.794,282.622 357.173,281.955 C 356.39,282.877 355.819,284.296 354.72,284.622 L 353.417,284.752 C 353.336,284.674 353.038,284.86 352.615,284.87 L 352.095,284.078 C 351.002,284.604 350.768,283.102 349.677,283.729 C 349.047,282.538 347.94,282.461 346.831,282.286 C 346.362,283.804 344.26,284.152 344.6,285.852 C 345.122,286.745 346.222,286.519 347.028,286.601 C 349.155,287.357 350.393,284.316 352.027,285.486 C 352.34,285.556 352.268,285.5 352.87,285.172 L 353.417,284.752 C 353.337,285.657 352.661,286.878 351.453,286.805 L 351.471,287.608 C 352.563,286.981 352.804,288.784 353.898,288.257 C 354.286,287.646 354.056,286.345 355.166,286.521 C 355.236,285.213 356.266,286.295 356.957,285.779 L 358.434,284.44 L 358.669,285.941 C 357.87,286.16 356.563,286.088 356.179,286.901 C 357.584,286.87 356.516,288.501 356.929,288.994 C 356.657,290.306 355.402,288.124 355.342,289.933 L 354.654,290.652 L 354.961,290.846 C 354.769,291.252 353.86,291.071 354.178,291.767 L 353.281,292.088 C 353.194,292.693 354.009,293.178 354.301,292.77 L 354.999,292.553 L 355.225,293.653 C 356.131,293.733 356.767,295.226 357.651,294.302 C 357.859,294.599 358.377,295.29 358.969,294.875 L 361.435,297.332 L 360.172,299.269 C 359.659,298.779 358.954,298.694 358.36,299.109 C 357.864,299.422 358.086,300.321 357.283,300.338 C 356.872,299.945 357.662,299.324 357.65,298.823 C 356.632,298.242 356.379,295.837 354.684,296.477 C 354.545,294.773 351.685,297.146 352.54,294.917 C 351.604,293.531 349.821,294.677 348.889,293.391 C 348.59,293.498 347.981,293.21 347.992,293.712 C 349.099,293.788 349.53,295.085 349.354,296.193 L 349.557,296.29 C 349.46,296.493 348.867,296.907 349.679,297.291 C 349.611,298.699 347.8,298.64 347.008,299.159 L 346.968,297.351 C 346.367,297.465 345.944,296.469 345.357,297.186 L 344.94,296.493 C 344.65,297.002 344.045,296.915 343.541,296.825 C 342.648,297.347 343.305,299.744 341.591,299.481 C 341.27,298.584 340.368,298.704 339.875,299.117 C 339.062,298.733 338.449,298.245 337.449,298.469 C 336.724,297.48 335.429,298.011 334.707,297.123 C 334.997,296.614 335.588,296.099 336.103,296.689 C 336.21,296.989 336.316,297.187 336.521,297.383 C 337.584,295.551 334.696,296.619 335.259,294.9 C 334.354,294.819 333.538,294.336 332.93,294.047 C 332.537,294.457 331.631,294.377 331.716,293.672 C 331.698,292.868 331.004,293.286 330.598,293.094 C 330.979,292.182 330.263,291.595 329.563,291.711 L 327.858,291.849 C 327.55,291.555 327.941,291.044 327.432,290.753 C 326.316,290.276 325.851,291.994 324.95,292.114 C 324.767,292.923 325.486,293.61 326.386,293.389 C 327.472,292.56 328.504,293.743 329.615,294.019 C 329.523,294.423 329.033,294.937 328.636,295.147 C 326.175,292.89 323.609,294.958 320.785,294.518 L 319.172,294.252 C 315.946,293.722 312.776,291.28 309.08,292.167 C 306.261,291.928 304.194,293.883 301.481,293.843 C 299.208,295.501 296.087,295.269 294.532,297.614 L 294.227,297.42 C 294.309,296.614 294.945,296.271 295.944,296.047 C 296.645,295.931 296.893,295.352 296.584,294.956 C 295.785,295.175 294.589,295.603 294.073,295.013 C 294.459,294.301 295.146,293.582 294.722,292.587 L 294.514,292.29 C 293.41,292.314 292.758,294.64 291.725,293.356 C 290.433,293.988 292.256,294.65 291.471,295.471 C 291.582,295.971 292.784,295.844 292.2,296.66 C 293.108,296.841 292.928,297.749 292.742,298.457 C 291.342,298.688 291.386,300.697 289.871,300.329 C 290.02,302.536 287.336,303.801 285.856,305.04 C 284.678,306.271 282.659,305.814 281.166,306.45 C 280.376,307.07 281.48,307.046 281.492,307.549 L 279.658,308.104 C 278.741,307.522 277.196,308.649 276.958,306.946 C 276.268,307.564 275.148,306.886 274.565,307.804 L 273.249,307.33 C 272.568,308.35 273.881,308.622 274.396,309.213 C 274.898,309.202 275.206,309.496 275.214,309.899 C 274.224,310.524 272.958,312.36 271.626,311.184 C 271.614,310.682 271.008,310.496 270.611,310.705 C 270.938,311.903 270.356,312.821 269.671,313.64 C 269.181,314.154 268.648,312.759 268.368,313.769 C 267.451,313.188 266.565,314.01 265.878,314.73 C 266.187,315.024 265.991,315.33 266.398,315.522 C 266.582,314.713 267.392,314.997 267.882,314.484 L 268.193,314.879 L 265.95,317.943 C 265.149,318.061 265.43,317.151 264.83,317.264 C 264.23,317.377 263.224,317.3 263.445,318.199 C 262.776,319.721 264.476,319.382 265.092,319.971 C 263.409,321.114 264.483,324.204 262.283,324.655 C 261.859,323.66 261.071,324.381 260.475,324.696 C 260.796,325.592 261.894,325.267 262.7,325.349 C 262.912,325.846 262.637,327.058 262.24,327.268 L 262.466,328.368 L 261.468,328.692 C 261.381,329.296 261.89,329.587 262.301,329.979 L 261.913,330.59 C 262.051,332.295 263.1,334.28 262.532,335.801 C 262.552,336.704 264.156,336.568 263.678,337.684 C 264.301,338.574 264.33,339.88 264.953,340.77 C 264.761,341.176 264.571,341.683 264.979,341.975 L 265.283,342.069 L 265.756,340.753 L 266.162,340.944 L 266.027,342.291 z "
   style="fill:#000000"
   id="path2273" />
		</g>
	</svg>